<svg width="425" height="307" viewBox="0 0 425 307" fill="none" xmlns="http://www.w3.org/2000/svg">
<path d="M222.126 6.53801C199.228 3.75697 174.885 -1.08278 151.462 0.217447C128.401 1.49962 101.693 18.1317 87.8956 38.9535C81.6112 48.4163 78.3786 59.7211 72.6721 69.527C68.049 77.4909 61.7826 84.0824 55.1009 90.0056C42.1708 101.473 28.1933 110.701 18.0985 125.491C-3.89709 157.726 -8.93548 214.575 20.5003 244.3C33.3943 257.32 51.2905 262.954 68.8256 264.562C93.5841 266.819 118.433 261.979 143.174 264.796C154.117 266.042 164.609 268.968 174.65 273.916C189.205 281.085 203.49 284.95 219.761 284.751C237.115 284.535 254.127 282.657 270.416 276.643C287.012 270.521 304.799 272.381 322.353 270.521C340.845 268.571 363.978 270.431 380.953 261.907C406.886 248.905 420.719 219.505 423.554 191.731C426.678 161.193 413.802 131.577 390.073 111.983C378.588 102.52 369.053 93.2562 367.59 77.0756C366.235 62.141 362.443 53.1657 357.856 38.5201C345.883 0.181329 302.759 -2.0399 270.018 4.02785C250.334 7.67572 240.944 7.07978 224.438 6.8089C222.072 6.77278 224.438 6.8089 222.126 6.53801Z" fill="#F5F5F5"/>
<path d="M34.2614 95.0075C40.2208 92.714 46.108 88.1451 49.7378 85.2016C60.1938 76.7139 69.765 66.0954 70.9207 52.0276C70.993 51.1788 71.0291 50.294 70.7221 49.4994C70.3429 48.4881 69.476 47.7296 68.537 47.2059C64.3112 44.8583 58.8575 46.7183 55.1735 49.8606C51.4895 53.0028 48.9432 57.2466 45.5662 60.7139C38.5594 67.9193 28.3382 71.4408 21.6745 78.9532C18.2975 82.7636 16.0943 88.8855 19.4352 92.7682C23.3359 97.3371 28.8258 97.1023 34.2614 95.0075Z" fill="#F5F5F5"/>
<path d="M372.575 61.9064C372.088 66.1502 372.304 70.5385 372.575 74.8004C373.027 81.7169 375.085 88.0916 379.022 93.8162C383.41 100.209 390.453 105.5 398.182 105.139C399.085 105.103 400.006 104.977 400.765 104.471C402.246 103.478 402.517 101.419 402.48 99.6312C402.354 91.1435 398.977 83.9381 395.853 76.2992C393.27 69.9967 386.86 47.0801 375.862 55.1885C373.803 56.7235 372.864 59.3601 372.575 61.9064Z" fill="#F5F5F5"/>
<path d="M238.67 302.186C253.503 269.766 259.102 235.655 257.573 198.799C256.58 174.792 248.36 152.854 232.872 139.607C183.193 97.1623 139.312 143.008 139.312 143.008C124.5 125.903 99.9779 114.188 62.7285 130.14C50.815 135.251 39.4774 146.966 33.0839 160.114C26.1343 174.375 25.9358 191.699 25.9159 208.167C25.8961 225.412 31.3564 261.353 37.3528 277.086C41.2049 287.17 48.4919 304.454 51.7483 306.304L238.67 302.186Z" fill="#ED7E1C"/>
<path d="M162.301 177.932C128.984 189.29 89.6294 180.657 66.4975 151.598C61.8909 145.95 58.4162 139.824 55.9342 133.379C58.1581 131.987 60.4216 130.814 62.7249 129.859C99.9743 114.444 124.496 125.762 139.309 142.27C139.309 142.27 176.042 105.235 220.34 130.296C216.011 137.497 211.683 144.697 205.825 151.141C194.23 164.328 178.504 172.045 162.301 177.932Z" fill="#F6A460"/>
<path d="M133.515 78.6217C129.603 63.4656 136.691 57.1407 143.085 55.0721C149.498 53.0036 156.746 56.0865 161.114 61.2579C163.576 64.1817 165.482 67.8812 168.957 69.4724C171.181 70.4867 173.703 70.4669 176.145 70.3674C184.266 70.0293 192.427 69.0149 200.488 70.0293C208.549 71.0437 216.77 74.4249 221.456 81.1278C225.486 86.876 226.598 94.5335 231.582 99.4662C240.378 108.158 256.144 103.862 266.091 111.181C269.665 113.807 272.187 117.864 272.981 122.24C274.689 131.708 268.633 141.732 271.889 150.802C274.51 158.081 282.671 162.954 283.326 170.672C283.723 175.445 280.884 180.099 276.933 182.725C272.962 185.35 268.057 186.206 263.312 186.086C251.875 185.828 240.676 180.099 233.707 170.97C230.411 166.654 228.048 161.681 224.791 157.365C221.535 153.029 217.008 149.211 211.627 148.674C209.542 148.475 207.438 148.773 205.333 148.813C196.656 148.972 188.038 144.258 183.432 136.839C178.726 129.261 177.694 126.317 171.221 120.231C159.744 109.451 151.762 123.791 138.181 111.778C132.879 107.084 139.193 91.7291 135.58 85.6229C133.812 82.6195 140.285 80.8493 136.93 80.0537L133.515 78.6217Z" fill="#3F3C36"/>
<path d="M135.639 64.0046C133.713 56.705 139.59 49.664 146.798 48.8286C151.186 48.3115 155.654 49.8032 159.228 52.3094C163.238 55.0939 165.72 59.768 169.95 62.1946C175.092 65.1383 181.168 63.8255 186.629 62.6918C191.215 61.757 195.782 60.8421 200.488 61.4587C208.549 62.4929 216.154 67.0477 220.741 73.8102C226.479 82.3032 225.268 94.2172 234.838 100.065C244.27 105.833 255.945 104.202 265.952 108.22C273.18 111.123 279.732 117.667 278.759 126.021C277.707 135.21 269.228 143.206 275.225 152.395C277.786 156.333 281.559 159.436 283.485 163.792C285.173 167.63 284.815 171.847 282.651 175.427C277.111 184.577 265.456 184.159 256.938 179.902C255.885 179.385 256.819 177.814 257.851 178.331C266.349 182.588 280.129 182.389 282.572 170.833C284.339 162.439 275.046 157.427 272.147 150.565C269.109 143.365 273.696 136.722 275.94 130.059C277.369 125.802 277.469 121.466 274.987 117.568C272.485 113.59 268.256 110.944 263.887 109.453C255.19 106.489 245.68 107.066 237.181 103.386C229.497 100.045 226.042 94.0382 223.779 86.2612C222.528 81.9651 221.297 77.7285 218.616 74.0688C216.055 70.5682 212.56 67.7637 208.688 65.8543C204.797 63.9449 200.448 62.9504 196.1 63.1095C191.533 63.2686 187.105 64.6211 182.618 65.3372C178.488 65.9935 174.159 66.2322 170.267 64.462C166.058 62.5327 163.636 58.5547 160.3 55.5514C156.21 51.8718 150.233 49.3855 144.753 51.1359C139.63 52.7668 135.917 58.2166 137.327 63.567C137.684 64.6609 135.937 65.1383 135.639 64.0046Z" fill="#3F3C36"/>
<path d="M137.046 65.0381C129.004 63.2281 120.784 67.4447 117.905 75.3012C115.244 82.561 118.52 89.0252 121.737 95.4098C124.179 100.283 126.522 105.574 125.271 111.123C124.04 116.612 119.791 120.491 114.529 122.062C108.195 123.952 97.1356 123.832 97.1356 133.041C97.1356 139.864 102.834 145.532 101.663 152.553C100.849 157.367 96.937 159.515 92.4297 159.912C89.8485 160.151 87.2474 159.932 84.6661 160.231C80.1986 160.748 77.9946 163.314 76.7437 167.55C75.5126 171.707 72.7924 179.822 66.6768 176.998C63.2617 175.427 63.9367 169.738 67.8682 169.559C69.0397 169.499 69.0397 171.329 67.8682 171.389C65.3465 171.508 66.3989 173.776 67.074 174.571C68.2057 175.924 69.4566 175.884 70.9855 174.969C72.5541 174.034 73.3881 172.264 73.9837 170.593C74.917 167.948 75.2744 165.084 76.8231 162.677C79.2455 158.878 83.6336 158.361 87.7835 158.262C90.2059 158.202 92.7673 158.361 95.1103 157.625C98.9623 156.432 100.352 152.951 99.8955 149.172C99.2005 143.265 94.8919 138.173 95.3684 132.067C95.7457 127.214 99.5183 124.19 103.827 122.679C110.022 120.511 117.369 121.227 121.538 115.16C128.964 104.38 116.257 93.6396 115.145 82.9389C113.854 70.3884 125.43 60.5828 137.522 63.2878C138.674 63.5265 138.197 65.2966 137.046 65.0381Z" fill="#3F3C36"/>
<path d="M199.929 145.671C210.314 145.154 218.871 153.547 218.891 163.95C218.891 170.434 215.714 176.838 219.268 182.984C220.956 185.908 223.994 188.633 227.489 188.852C229.593 188.991 232.294 188.016 232.87 185.689C233.684 182.408 228.74 179.603 227.787 183.661C227.509 184.794 225.761 184.317 226.039 183.183C227.389 177.495 235.272 179.703 234.796 185.232C234.22 191.994 225.642 191.398 221.671 188.394C218.931 186.346 216.965 183.323 216.131 180.001C215.138 176.023 216.131 172.005 216.727 168.047C218.355 157.307 211.584 146.924 199.969 147.501C198.757 147.541 198.757 145.731 199.929 145.671Z" fill="#3F3C36"/>
<path d="M150.688 86.9546C149.496 87.8297 148.285 87.5115 148.285 87.5115C148.206 86.7159 146.637 85.9999 146.637 85.9999C146.835 85.7214 147.769 84.886 147.491 84.707L150.688 86.9546Z" fill="#3F3C36"/>
<path d="M151.143 87.7317C150.249 88.3284 149.118 88.6268 148.045 88.3881C147.748 88.3284 147.47 88.05 147.41 87.7516C147.311 87.2942 146.576 86.9759 146.179 86.7969C145.583 86.5185 145.683 85.7825 146 85.3649C146.119 85.2256 146.239 85.0864 146.358 84.9472C146.517 84.7682 146.616 84.4698 146.616 84.7682C146.695 84.987 146.795 85.2057 146.874 85.4046C146.854 85.3848 146.834 85.3649 146.834 85.345C146.1 84.4499 147.37 83.1571 148.125 84.0521C148.959 85.0665 147.867 85.8621 147.271 86.6179C147.211 86.1406 147.152 85.6632 147.092 85.1858C147.946 85.5836 148.959 86.2599 149.157 87.2345C148.939 87.0157 148.74 86.8168 148.522 86.598C148.998 86.6975 149.713 86.4588 150.23 86.1207C151.202 85.5041 152.116 87.0953 151.143 87.7317Z" fill="#3F3C36"/>
<path d="M161.309 131.214L144.193 64.7617C144.193 64.7617 114.509 83.836 118.043 110.23L131.942 106.331C131.942 106.331 129.341 119.419 126.819 132.288C124.456 144.341 134.9 155.002 146.973 152.874C147.132 152.854 147.29 152.814 147.449 152.794C157.457 150.984 163.85 141.079 161.309 131.214Z" fill="#F6A460"/>
<path d="M160.772 92.4499C158.151 95.6323 153.465 96.0699 150.288 93.4444C147.111 90.8189 146.675 86.125 149.296 82.9426C151.917 79.7602 156.602 79.3226 159.779 81.9481C162.936 84.5735 163.393 89.2874 160.772 92.4499Z" fill="#F6A460"/>
<path d="M151.519 88.6113C153.842 87.1792 156.185 85.767 158.548 84.3946C159.561 83.7979 160.474 85.3692 159.461 85.9659C157.099 87.3383 154.775 88.7704 152.432 90.1826C151.44 90.7992 150.526 89.2279 151.519 88.6113Z" fill="#3F3C36"/>
<path d="M131.961 106.33L126.858 132.863L142.008 102.75L131.961 106.33Z" fill="#3F3C36"/>
<path d="M126.026 91.933C126.026 91.933 130.752 93.0269 137.265 91.2965C138.515 90.9584 139.687 92.0523 139.429 93.3054C138.853 95.911 136.172 99.69 125.808 101.102L126.026 91.933Z" fill="white"/>
<path d="M126.305 90.9182C129.422 91.5945 132.897 91.1967 135.955 90.5403C138.635 89.9635 141.216 91.0773 140.243 94.2597C138.556 99.8487 130.931 101.42 126.066 102.136C124.736 102.335 124.16 100.286 125.511 100.087C129.045 99.5703 136.967 98.4366 138.099 93.9613C138.595 92.032 135.836 92.7481 134.604 92.947C133.155 93.1856 131.686 93.3249 130.216 93.3448C128.727 93.3646 127.198 93.2851 125.749 92.9669C124.399 92.6685 124.974 90.6199 126.305 90.9182Z" fill="#ED7E1C"/>
<path d="M131.624 77.61C127.97 80.6929 124.377 84.1935 121.398 87.9129C121.18 87.3958 120.961 86.8786 120.763 86.3615C122.649 86.5206 124.555 86.6797 126.461 86.8389C127.613 86.9383 127.633 88.7483 126.461 88.6687C124.555 88.5096 122.669 88.3505 120.763 88.1914C119.929 88.1118 119.611 87.2565 120.127 86.64C123.106 82.9007 126.7 79.42 130.353 76.337C131.227 75.5613 132.517 76.8542 131.624 77.61Z" fill="#3F3C36"/>
<path d="M212.659 198.779C213.016 212.88 212.282 226.982 210.356 240.965C208.648 253.396 205.769 265.827 198.998 276.548C198.383 277.542 196.794 276.627 197.429 275.633C204.121 265.051 206.92 252.759 208.608 240.487C210.495 226.684 211.209 212.721 210.852 198.779C210.812 197.605 212.639 197.605 212.659 198.779Z" fill="#3F3C36"/>
<path d="M218.576 199.89C217.722 203.689 216.114 207.17 213.731 210.253C213.036 211.167 211.448 210.272 212.162 209.338C214.446 206.374 215.995 203.052 216.809 199.413C217.067 198.259 218.834 198.736 218.576 199.89Z" fill="#3F3C36"/>
<path d="M78.0143 197.486C79.5829 221.911 81.3103 246.714 90.2057 269.766C90.6227 270.86 88.8754 271.337 88.4584 270.243C79.5035 247.052 77.776 222.05 76.2074 197.486C76.128 196.333 77.9349 196.333 78.0143 197.486Z" fill="#3F3C36"/>
<path d="M76.6047 208.844C72.8719 205.84 70.4693 201.644 69.7347 196.89C69.5559 195.736 71.3032 195.259 71.4819 196.413C72.1769 200.888 74.361 204.727 77.8755 207.551C78.8087 208.287 77.5181 209.56 76.6047 208.844Z" fill="#3F3C36"/>
<path d="M142.509 92.9655C141 94.6562 138.895 95.591 136.632 95.6109C135.46 95.6308 135.46 93.8009 136.632 93.8009C138.439 93.781 140.027 93.0451 141.218 91.6926C142.013 90.8174 143.283 92.0904 142.509 92.9655Z" fill="#3F3C36"/>
<path d="M143.143 81.0696C140.78 79.5977 137.96 79.3789 135.419 80.5723C134.366 81.0696 133.453 79.4983 134.505 79.001C137.623 77.5292 141.117 77.6684 144.056 79.4983C145.049 80.1149 144.136 81.6861 143.143 81.0696Z" fill="#3F3C36"/>
<path d="M141.556 80.1761C141.616 80.8325 141.556 81.4888 141.338 82.1054C141.159 82.6226 140.524 83.0005 140.008 82.6424C139.71 82.4435 139.432 82.2844 139.074 82.2446C138.757 82.2049 138.439 82.3043 138.121 82.3043C137.168 82.3242 136.99 81.5286 136.91 80.7728C136.831 80.017 136.831 79.2015 137.724 78.923C138.479 78.7043 139.472 79.1418 140.186 79.3407C140.822 79.5198 141.1 80.3949 140.583 80.8524C139.888 81.4689 138.876 81.5087 138.201 80.8126C137.387 79.9573 138.677 78.6844 139.491 79.5197C139.452 79.48 139.333 79.5396 139.293 79.5595C139.432 80.0568 139.551 80.5739 139.69 81.0711C139.392 80.9916 139.094 80.912 138.816 80.8325C138.677 80.7927 138.518 80.7529 138.379 80.7131C138.101 80.6932 138.082 80.6535 138.32 80.6137C138.419 80.5142 138.538 80.3949 138.638 80.2955C138.677 80.1164 138.677 80.1164 138.677 80.2557C138.677 80.3551 138.697 80.4546 138.697 80.554C138.697 80.6336 138.816 81.1109 138.677 80.8524C138.578 80.7529 138.459 80.6336 138.36 80.5341C138.399 80.554 138.419 80.5739 138.459 80.5938C138.3 80.554 138.161 80.5142 138.002 80.4745C138.439 80.4943 138.955 80.3949 139.452 80.4745C139.968 80.554 140.464 80.7728 140.901 81.0711C140.464 81.2502 140.008 81.4292 139.571 81.6082C139.73 81.1109 139.789 80.6734 139.73 80.1562C139.67 79.659 140.186 79.2413 140.643 79.2413C141.179 79.2612 141.497 79.6789 141.556 80.1761Z" fill="#3F3C36"/>
<path d="M141.159 83.5344C139.649 83.2957 138.14 83.3554 136.671 83.7134C135.539 83.972 135.043 82.2217 136.195 81.9631C138.021 81.5454 139.808 81.4858 141.655 81.7841C142.787 81.983 142.31 83.7333 141.159 83.5344Z" fill="#3F3C36"/>
<path d="M142.924 71.4631C141.554 70.9261 140.164 70.7868 138.735 71.125C137.603 71.3835 137.107 69.6332 138.258 69.3747C139.986 68.9769 141.753 69.0564 143.401 69.7128C144.493 70.1305 144.016 71.8808 142.924 71.4631Z" fill="#3F3C36"/>
<path d="M163.179 139.567C161.948 136.046 160.737 132.526 159.506 129.025C159.129 127.912 160.876 127.434 161.253 128.548C162.484 132.069 163.696 135.589 164.927 139.09C165.324 140.184 163.557 140.661 163.179 139.567Z" fill="#3F3C36"/>
<path d="M110.764 71.0211L106.545 73.3304C103.977 75.2392 104.33 75.8754 103.741 79.0331L102.257 88.4118C102.21 88.7182 101.738 88.7182 101.691 88.4118L100.23 79.1038C99.641 75.9697 99.7117 75.2863 97.1667 73.354L93.1607 71.0447C93.0193 70.9268 93.0193 70.6912 93.1607 70.5969L97.6852 68.429C100.207 66.4967 100.065 65.2242 100.631 62.1136L101.691 53.2298C101.738 52.9234 102.21 52.9234 102.257 53.2298L103.482 62.3964C104.048 65.507 104.354 66.803 106.875 68.7118L110.787 70.5498C110.928 70.6912 110.929 70.9033 110.764 71.0211Z" fill="#FFBD1A"/>
<path d="M86.7324 91.0523L82.5143 93.3617C79.9458 95.2704 80.2993 95.9067 79.7101 99.0643L78.202 108.42C78.1549 108.726 77.6836 108.726 77.6365 108.42L76.1754 99.1115C75.5863 95.9774 75.657 95.294 73.112 93.3617L69.106 91.0523C68.9647 90.9345 68.9647 90.6989 69.106 90.6046L73.6305 88.4367C76.1519 86.5044 76.0105 85.2319 76.576 82.1213L77.6129 73.261C77.66 72.9547 78.1313 72.9547 78.1784 73.261L79.4038 82.4277C79.9694 85.5382 80.2993 86.8343 82.7971 88.743L86.7089 90.581C86.8738 90.7224 86.8738 90.9581 86.7324 91.0523Z" fill="#FFBD1A"/>
</svg>
