<svg width="438" height="429" viewBox="0 0 438 429" fill="none" xmlns="http://www.w3.org/2000/svg">
<path d="M243.008 28.969C245.436 37.5936 255.3 41.6803 263.11 37.2928C273.124 31.6517 285.216 39.9754 283.588 51.3579C282.312 60.2333 289.647 67.9804 298.559 67.128C310 66.0499 317.66 78.5857 311.552 88.3135C306.77 95.9102 310.35 105.964 318.837 108.822C329.702 112.508 331.654 127.074 322.091 133.467C314.656 138.457 313.83 149.087 320.414 155.179C328.85 162.977 324.695 177.067 313.379 179.022C304.567 180.552 299.485 189.929 303.015 198.177C307.571 208.732 298.033 219.914 286.918 217.106C278.231 214.9 269.795 221.419 269.669 230.369C269.544 241.877 256.301 248.22 247.264 241.1C240.229 235.559 229.865 238.066 226.135 246.214C221.353 256.669 206.658 257.07 201.301 246.891C197.12 238.969 186.631 237.013 179.921 242.955C171.31 250.552 157.741 244.936 156.965 233.453C156.364 224.502 147.577 218.46 139.04 221.143C128.075 224.578 117.962 213.897 121.942 203.116C125.046 194.692 119.464 185.591 110.551 184.563C99.1608 183.234 94.2291 169.37 102.24 161.121C108.474 154.703 107.072 144.098 99.3861 139.535C89.5226 133.668 90.6492 119.001 101.314 114.739C109.625 111.404 112.654 101.175 107.472 93.8543C100.838 84.4775 107.823 71.5406 119.288 71.9919C128.226 72.3429 135.16 64.2197 133.383 55.4195C131.13 44.1373 142.771 35.1868 153.06 40.2512C161.096 44.2125 170.709 39.5994 172.687 30.8494C175.215 19.6424 189.485 16.1825 196.82 25.0077C202.552 31.9024 213.217 31.6015 218.549 24.406C225.434 15.2298 239.879 17.9124 243.008 28.969Z" fill="#4F3422"/>
<path d="M384.203 299.544C374.815 266.65 345.9 243.183 311.828 240.776C233.847 235.235 100.689 233.229 72.4255 263.466C63.1878 273.344 82.0387 255.393 72.4255 263.466C29.1913 299.744 22.457 387.745 22.457 387.745L123.445 387.043L404.706 387.846C406.258 379.823 394.617 336.098 384.203 299.544Z" fill="#9BB168"/>
<path d="M252.674 204.246L245.714 182.083C251.547 183.462 257.956 182.007 262.687 177.62C270.273 170.6 270.748 158.766 263.739 151.169C256.729 143.573 244.913 143.096 237.328 150.116C236.877 150.543 236.451 150.969 236.051 151.42L227.84 125.296C226.813 122.061 223.609 120.056 220.254 120.557C203.631 123.039 157.218 134.697 153.838 187.348C153.588 191.334 156.717 194.744 160.723 194.744L181.201 194.719L179.574 208.959C204.257 213.698 228.841 211.116 252.674 204.246Z" fill="#CFD9B5"/>
<path d="M252.672 204.246C228.864 211.141 204.256 213.698 179.597 208.96L174.74 251.506C172.287 272.942 184.754 293.651 205.157 300.596C206.108 300.922 207.084 301.223 208.061 301.524C243.409 311.803 275.779 277.781 264.713 242.606L252.672 204.246Z" fill="#9BB168"/>
<path d="M189.26 136.805C179.146 142.045 169.007 147.26 158.894 152.5C157.567 153.177 157.442 155.107 158.418 156.11C161.422 159.169 164.401 162.203 167.405 165.261C169.483 167.367 172.713 164.133 170.635 162.027C167.631 158.968 164.651 155.935 161.647 152.876C161.497 154.08 161.347 155.283 161.172 156.486C171.286 151.246 181.424 146.032 191.538 140.792C194.192 139.413 191.864 135.451 189.26 136.805Z" fill="#4F3422"/>
<path d="M186.382 172.305C186.657 174.662 183.904 176.818 181.751 175.489C179.222 173.96 176.919 177.921 179.447 179.451C184.329 182.434 191.639 178.172 190.988 172.305C190.838 171.077 190.037 170.024 188.685 170.024C187.559 169.999 186.257 171.052 186.382 172.305Z" fill="#4F3422"/>
<path d="M253.524 159.442C249.593 160.771 245.663 162.099 241.733 163.428C238.954 164.381 240.155 168.794 242.959 167.841C246.89 166.512 250.82 165.183 254.75 163.854C257.529 162.927 256.328 158.489 253.524 159.442Z" fill="#4F3422"/>
<path d="M198.2 150.516C202.581 160.419 216.25 162.951 224.286 156.082C226.539 154.151 223.285 150.917 221.057 152.847C215.049 157.987 205.285 155.229 202.181 148.209C200.979 145.501 197.024 147.833 198.2 150.516Z" fill="#4F3422"/>
<path d="M201.954 152.347C200.276 154.052 198.574 155.732 196.897 157.436C194.819 159.517 198.048 162.777 200.126 160.671C201.803 158.966 203.506 157.286 205.183 155.581C207.286 153.5 204.057 150.266 201.954 152.347Z" fill="#4F3422"/>
<path d="M209.188 158.967C209.213 160.672 209.238 162.352 209.263 164.057C209.288 167.015 213.894 167.015 213.844 164.057C213.819 162.352 213.794 160.672 213.769 158.967C213.719 156.034 209.138 156.009 209.188 158.967Z" fill="#4F3422"/>
<path d="M218.2 158.918C218.751 160.422 219.277 161.952 219.827 163.456C220.253 164.609 221.38 165.411 222.656 165.06C223.783 164.76 224.684 163.406 224.259 162.227C223.708 160.723 223.182 159.194 222.631 157.689C222.206 156.511 221.079 155.734 219.802 156.085C218.676 156.411 217.8 157.765 218.2 158.918Z" fill="#4F3422"/>
<path d="M233.973 327.348C233.973 331.735 230.418 335.321 226.012 335.321C221.631 335.321 218.051 331.76 218.051 327.348C218.051 322.96 221.606 319.375 226.012 319.375C230.418 319.375 233.973 322.935 233.973 327.348Z" fill="#4F3422"/>
<path d="M118.765 302.178C93.2546 315.291 67.7447 328.403 42.2097 341.516C36.3517 344.524 30.4936 347.533 24.6356 350.542C15.0225 355.506 7.21175 362.049 2.98096 372.329C-0.774188 381.43 -1.22481 393.991 3.03102 403.067C7.43706 412.468 14.722 421.093 24.7608 424.753C34.2989 428.213 46.065 429.517 55.4528 424.703C71.4498 416.48 87.4717 408.256 103.469 400.008C126.475 388.174 149.482 376.365 172.488 364.532C159.32 341.365 146.252 318.124 133.91 294.406C128.853 297.014 123.796 299.596 118.765 302.178Z" fill="#9BB168"/>
<path d="M197.574 351.643C207.187 346.704 214.998 340.16 219.229 329.881C222.984 320.78 223.434 308.219 219.179 299.143C214.773 289.741 207.488 281.116 197.449 277.456C187.911 273.996 196.247 260.232 186.859 265.071C175.894 270.712 144.852 288.788 133.887 294.404C146.229 318.147 159.272 341.388 172.465 364.53C174.968 363.251 177.496 361.947 180 360.669C185.858 357.66 191.716 354.651 197.574 351.643Z" fill="#CFD9B5"/>
<path d="M201.878 295.58C204.907 275.247 207.936 254.889 210.966 234.556C211.842 228.639 207.586 222.12 201.427 221.443C195.294 220.766 189.286 224.653 188.335 230.996C185.305 251.329 182.276 271.687 179.247 292.02C178.371 297.937 182.627 304.455 188.785 305.132C194.919 305.834 200.927 301.923 201.878 295.58Z" fill="#CFD9B5"/>
<path d="M202.981 295.881C205.26 280.512 207.563 265.118 209.841 249.749C211.193 240.623 216.049 226.232 204.759 221.193C200.778 219.413 195.872 220.14 192.342 222.597C187.961 225.631 187.285 230.194 186.559 235.158C184.281 250.552 181.978 265.921 179.7 281.315C179.474 282.769 181.702 283.37 181.903 281.916C183.755 269.506 185.583 257.095 187.435 244.685C187.886 241.701 188.311 238.718 188.762 235.76C189.163 233.077 189.263 230.143 190.64 227.712C193.468 222.747 200.578 220.867 205.335 224.126C211.017 228.037 209.866 234.28 208.99 240.172C208.113 246.114 207.212 252.081 206.336 258.023C204.484 270.434 202.656 282.819 200.803 295.229C200.553 296.734 202.756 297.335 202.981 295.881Z" fill="#4F3422"/>
<path d="M207.36 334.165C212.542 300.995 217.725 267.8 222.907 234.631C223.833 228.714 219.627 222.17 213.444 221.443C207.31 220.716 201.277 224.577 200.276 230.92C195.094 264.09 189.911 297.285 184.729 330.454C183.803 336.371 188.009 342.915 194.192 343.642C200.326 344.369 206.359 340.508 207.36 334.165Z" fill="#CFD9B5"/>
<path d="M214.272 301.398C216.175 288.561 218.103 275.724 220.005 262.913C220.956 256.495 221.908 250.076 222.859 243.658C223.535 239.045 225.162 233.855 223.785 229.217C221.632 221.946 213.997 218.336 207.037 221.119C203.533 222.523 200.754 225.431 199.677 229.066C197.95 234.908 197.7 241.577 196.798 247.619C194.62 262.186 192.467 276.727 190.289 291.294C190.064 292.748 192.292 293.35 192.492 291.896C194.545 278.081 196.598 264.267 198.651 250.452C199.602 244.059 200.228 237.54 201.505 231.197C202.731 225.105 208.965 220.768 215.174 222.874C222.609 225.406 222.108 233.078 221.157 239.321C220.155 245.99 219.179 252.659 218.178 259.303C216.125 273.117 214.072 286.932 212.019 300.771C211.844 302.225 214.047 302.852 214.272 301.398Z" fill="#4F3422"/>
<path d="M208.639 242.929C204.959 267.65 201.279 292.37 197.599 317.091C196.722 323.008 200.978 329.527 207.137 330.203C213.27 330.88 219.278 326.994 220.23 320.651C223.91 295.931 227.59 271.21 231.27 246.489C232.146 240.573 227.89 234.054 221.732 233.377C215.598 232.7 209.59 236.586 208.639 242.929Z" fill="#CFD9B5"/>
<path d="M219.403 333.965C223.484 306.612 227.539 279.259 231.62 251.906C232.396 246.766 233.322 241.952 230.143 237.389C227.239 233.228 222.357 231.397 217.401 232.475C205.835 234.983 206.561 249.148 205.184 258.424C203.131 272.289 201.053 286.154 199 300.043C198.775 301.497 201.003 302.099 201.203 300.645C202.73 290.316 204.283 279.986 205.81 269.657C206.636 264.015 207.487 258.374 208.313 252.758C208.989 248.195 208.864 241.852 211.993 238.217C216.7 232.776 225.437 233.403 228.916 239.821C231.645 244.886 229.292 251.881 228.491 257.246C226.663 269.531 224.836 281.841 223.008 294.126C221.056 307.189 219.128 320.276 217.175 333.338C216.975 334.793 219.178 335.419 219.403 333.965Z" fill="#4F3422"/>
<path d="M319.239 303.356C344.749 316.468 370.259 329.581 395.794 342.693C401.652 345.702 407.51 348.71 413.368 351.719C422.981 356.658 430.792 363.202 435.023 373.481C438.778 382.582 439.229 395.143 434.973 404.219C430.567 413.621 423.282 422.27 413.243 425.906C403.705 429.366 391.939 430.669 382.551 425.856C366.554 417.632 350.532 409.409 334.535 401.16C311.529 389.326 288.522 377.518 265.516 365.684C278.684 342.518 291.752 319.276 304.093 295.559C309.15 298.166 314.207 300.773 319.239 303.356Z" fill="#9BB168"/>
<path d="M240.433 352.795C230.819 347.856 223.009 341.312 218.778 331.033C215.023 321.932 214.572 309.371 218.828 300.295C223.234 290.893 230.519 282.244 240.558 278.608C250.096 275.148 241.759 261.384 251.147 266.223C262.112 271.864 293.155 289.941 304.12 295.582C291.778 319.325 278.735 342.566 265.542 365.707C263.038 364.428 260.51 363.125 258.007 361.846C252.149 358.837 246.291 355.829 240.433 352.795Z" fill="#CFD9B5"/>
<path d="M236.124 296.76C233.094 276.427 230.065 256.069 227.036 235.736C226.16 229.819 230.416 223.3 236.574 222.623C242.708 221.946 248.716 225.832 249.667 232.175C252.696 252.508 255.725 272.867 258.755 293.2C259.631 299.117 255.375 305.635 249.217 306.312C243.083 306.989 237.075 303.103 236.124 296.76Z" fill="#CFD9B5"/>
<path d="M237.227 296.456C235.375 284.045 233.547 271.66 231.695 259.25C230.819 253.308 229.917 247.341 229.041 241.399C228.165 235.507 226.988 229.264 232.696 225.353C237.453 222.068 244.537 223.974 247.391 228.938C248.768 231.32 248.868 234.303 249.269 236.986C249.72 239.97 250.145 242.953 250.596 245.912C252.448 258.322 254.276 270.732 256.128 283.143C256.354 284.597 258.557 283.97 258.331 282.541C256.053 267.147 253.75 251.778 251.472 236.384C250.721 231.42 250.07 226.857 245.689 223.824C242.159 221.366 237.252 220.639 233.272 222.419C221.957 227.459 226.838 241.825 228.19 250.976C230.468 266.345 232.771 281.739 235.049 297.108C235.225 298.512 237.453 297.885 237.227 296.456Z" fill="#4F3422"/>
<path d="M230.643 335.345C225.461 302.175 220.279 268.98 215.097 235.81C214.17 229.893 218.376 223.35 224.56 222.623C230.693 221.896 236.726 225.757 237.728 232.1C242.91 265.269 248.092 298.464 253.274 331.634C254.2 337.551 249.994 344.095 243.811 344.822C237.677 345.549 231.644 341.688 230.643 335.345Z" fill="#CFD9B5"/>
<path d="M225.935 301.948C223.882 288.134 221.829 274.319 219.776 260.48C218.825 254.061 217.873 247.643 216.922 241.225C215.971 234.806 215.045 226.683 222.805 224.051C228.638 222.07 235.072 225.956 236.374 231.848C237.776 238.317 238.377 245.061 239.328 251.604C241.381 265.419 243.433 279.233 245.486 293.048C245.712 294.502 247.915 293.875 247.689 292.446C245.787 279.609 243.859 266.773 241.956 253.961C241.005 247.543 240.054 241.125 239.103 234.706C238.477 230.569 237.676 226.984 234.296 224.226C228.388 219.387 219.426 220.691 215.495 227.335C213.142 231.322 213.693 235.233 214.344 239.595C215.295 246.013 216.246 252.432 217.198 258.85C219.376 273.417 221.528 287.958 223.706 302.525C223.932 304.029 226.16 303.402 225.935 301.948Z" fill="#4F3422"/>
<path d="M229.366 244.109C233.046 268.83 236.726 293.55 240.407 318.271C241.283 324.188 237.027 330.706 230.868 331.383C224.735 332.06 218.727 328.174 217.776 321.831C214.095 297.11 210.415 272.39 206.735 247.669C205.859 241.752 210.115 235.234 216.273 234.557C222.407 233.88 228.415 237.766 229.366 244.109Z" fill="#CFD9B5"/>
<path d="M220.804 334.517C217.249 310.674 213.695 286.806 210.165 262.963C209.364 257.522 207.786 251.656 207.786 246.165C207.761 238.819 214.871 233.754 221.756 236.387C227.814 238.719 228.29 244.435 229.116 250.026C229.917 255.441 230.718 260.857 231.544 266.272C233.296 278.106 235.074 289.94 236.826 301.799C237.052 303.253 239.255 302.626 239.029 301.197C237.202 288.987 235.399 276.777 233.572 264.542C232.696 258.6 231.794 252.658 230.918 246.716C230.142 241.577 228.64 237.139 223.683 234.707C213.544 229.743 204.357 238.694 205.784 248.948C207.661 262.336 209.764 275.674 211.742 289.037C214.02 304.406 216.323 319.75 218.601 335.119C218.802 336.598 221.03 335.971 220.804 334.517Z" fill="#4F3422"/>
<path d="M31.6448 348.257C61.0351 332.563 90.4503 316.868 119.841 301.173C123.996 298.942 128.152 296.735 132.308 294.504C133.609 293.802 132.458 291.821 131.156 292.523C101.766 308.218 72.3506 323.913 42.9603 339.608C38.8046 341.839 34.6489 344.045 30.4932 346.277C29.1664 346.979 30.343 348.959 31.6448 348.257Z" fill="#4F3422"/>
<path d="M391.288 339.105C365.979 325.942 340.694 312.755 315.384 299.592C311.854 297.762 308.325 295.907 304.77 294.076C303.468 293.4 302.291 295.38 303.618 296.057C328.928 309.22 354.213 322.407 379.522 335.57C383.052 337.4 386.582 339.255 390.137 341.086C391.439 341.763 392.59 339.782 391.288 339.105Z" fill="#4F3422"/>
<path d="M48.8198 325.743C54.2272 327.222 59.6346 328.676 65.0671 330.156C66.494 330.532 67.0949 328.325 65.6679 327.949C60.2605 326.47 54.8531 325.016 49.4207 323.537C47.9937 323.136 47.3929 325.342 48.8198 325.743Z" fill="#4F3422"/>
<path d="M368.282 328.15C372.612 326.796 376.843 325.167 380.974 323.261C382.301 322.659 381.149 320.679 379.822 321.28C375.867 323.086 371.811 324.64 367.681 325.944C366.279 326.37 366.88 328.601 368.282 328.15Z" fill="#4F3422"/>
<path d="M318.965 114.892C323.17 124.043 334.736 123.542 341.771 118.226C349.306 112.51 356.892 100.25 353.587 90.4973C351.134 83.2516 340.069 78.8641 335.888 87.238C334.085 90.8232 335.512 95.1105 338.291 97.7931C341.846 101.203 347.278 101.78 351.96 101.93C363.05 102.306 376.018 97.3168 377.72 84.9063C378.121 82.0231 373.715 80.7695 373.314 83.6778C372.062 92.6785 363.551 96.9407 355.214 97.3168C351.259 97.4923 346.352 97.5173 342.822 95.4364C340.895 94.3082 339.292 92.2272 339.843 89.9457C340.394 87.589 343.123 86.8118 345.226 87.4887C349.532 88.8927 350.157 94.3082 349.431 98.0689C348.555 102.582 346.027 107.045 343.123 110.555C338.391 116.246 327.251 121.962 322.945 112.535C321.668 109.903 317.738 112.234 318.965 114.892Z" fill="#4F3422"/>
<path d="M72.0487 53.7645C71.2226 64.5954 80.2349 73.9722 91.1499 72.8941C101.815 71.816 109.074 61.311 106.346 50.9063C105.344 47.1205 102.165 42.6578 97.809 45.1148C93.4531 47.5718 92.5268 54.1155 93.1276 58.5532C94.8049 70.8382 106.221 77.1312 117.035 80.3404C119.864 81.1928 121.066 76.7551 118.262 75.9278C111.503 73.922 104.268 70.9636 100.262 64.821C98.2596 61.7372 97.058 57.801 97.6588 54.0904C97.784 53.3633 97.9592 52.6112 98.2346 51.9343C98.535 51.1069 99.8118 49.1262 101.013 49.7029C102.115 50.2294 102.34 54.4916 102.34 55.2938C102.39 62.715 96.3821 68.6069 88.9719 68.4063C81.2363 68.2057 76.0792 61.1857 76.63 53.7645C76.8553 50.8311 72.274 50.8311 72.0487 53.7645Z" fill="#4F3422"/>
<path d="M76.0311 228.312C81.8641 233.828 91.1268 234.856 97.9612 230.493C101.691 228.112 103.944 224.351 105.496 220.314C107.049 216.177 108.951 210.612 106.473 206.425C104.745 203.491 100.69 201.586 97.5356 203.391C94.3312 205.221 93.8806 209.358 94.8819 212.567C97.3353 220.515 106.548 224.476 114.284 224.075C125.274 223.498 133.585 215.175 139.518 206.65C141.195 204.218 137.24 201.937 135.563 204.344C131.232 210.561 125.624 216.679 118.114 218.835C112.005 220.59 103.994 219.061 100.339 213.42C99.6635 212.367 98.587 210.461 98.9625 209.132C100.064 205.196 102.367 208.506 102.793 209.885C103.193 211.188 102.993 212.392 102.718 213.695C101.967 217.456 100.465 221.794 97.811 224.652C92.9793 229.841 84.2924 229.816 79.2605 225.028C77.1326 223.022 73.8782 226.281 76.0311 228.312Z" fill="#4F3422"/>
<path d="M267.166 48.6007C263.011 41.9818 263.586 32.7805 269.57 27.3901C274.727 22.7519 287.069 20.5957 291.224 27.8414C292.626 30.2984 291.6 33.633 288.245 32.9059C285.642 32.3292 284.465 29.6466 284.265 27.2146C283.939 23.4037 285.391 19.4424 287.319 16.2333C291.224 9.7648 298.109 5.32712 305.619 4.60005C308.523 4.32426 308.548 -0.263842 305.619 0.011946C296.431 0.86438 288.145 5.95391 283.364 13.9016C279.358 20.5456 276.629 33.6079 286.167 37.0427C289.522 38.2461 293.552 37.4689 295.505 34.2848C297.959 30.3235 296.106 25.4847 292.801 22.6767C285.767 16.7598 274.576 17.7125 267.592 23.1029C259.155 29.6215 257.653 42.057 263.211 50.9073C264.788 53.4144 268.743 51.1079 267.166 48.6007Z" fill="#4F3422"/>
</svg>
