<svg width="545" height="453" viewBox="0 0 545 453" fill="none" xmlns="http://www.w3.org/2000/svg">
<path d="M121.71 335.132C147.361 328.936 172.91 326.922 199.816 326.234C241.263 324.959 280.022 329.293 320.214 339.287C326.896 375.619 332.246 416.081 333.065 452.999L113.517 439.843C118.305 407.004 122.401 368.276 121.71 335.132Z" fill="#FE814B"/>
<path d="M198.126 78.745C197.998 78.745 197.87 78.745 197.716 78.7195C197.102 78.694 196.513 78.2096 196.539 77.5467C196.564 76.9348 197.051 76.3484 197.716 76.3738C197.844 76.3738 197.972 76.3739 198.126 76.3993C198.74 76.4248 199.329 76.9093 199.303 77.5721C199.278 78.184 198.791 78.7705 198.126 78.745Z" fill="#FE814B"/>
<path d="M197.947 80.0703C189.115 76.6794 186.196 64.2629 191.137 56.2827C196.078 48.3025 206.6 45.0135 215.918 46.5433C221.192 47.4101 226.594 49.6028 231.714 48.1495C234.99 47.2316 237.679 44.9115 240.162 42.6169C248.507 34.9172 256.264 26.478 265.762 20.257C275.26 14.0361 287.113 10.1862 298.172 13.0417C307.67 15.4893 315.811 22.5772 325.564 23.291C342.819 24.5403 355.67 5.7499 372.899 4.50061C379.094 4.04168 385.443 6.05585 390.256 9.98221C400.65 18.4468 403.312 34.5347 414.96 41.1891C424.356 46.5433 437.438 44.2996 445.118 51.8719C449.879 56.5631 451.082 64.0589 449.239 70.4329C447.396 76.8068 442.942 82.1355 437.796 86.3168C425.38 96.3622 408.279 100.441 392.586 97.076C385.187 95.4953 378.147 92.3593 370.749 90.7276C363.35 89.0958 355.081 89.1468 348.861 93.4301C346.454 95.0874 344.483 97.331 342.281 99.2687C333.193 107.274 319.753 110.079 308.105 106.382C296.226 102.609 285.653 92.5888 273.34 94.2205C264.021 95.4443 256.008 103.323 246.664 102.201C236.834 101.028 230.664 90.5491 221.269 87.3366C216.661 85.7559 211.464 86.1128 207.137 88.3055L197.947 80.0703Z" fill="#4B3425"/>
<path d="M191.597 72.1422C183.021 66.2782 182.996 53.7087 189.805 46.4679C193.748 42.2866 199.329 39.941 204.986 39.2016C212.692 38.1818 220.679 41.7002 228.231 39.4056C240.699 35.6322 245.87 20.9976 255.547 13.3743C264.789 6.08249 277.358 3.25245 288.878 5.77654C302.882 8.86154 312.533 22.8588 327.714 21.533C343.689 20.1562 355.209 7.10233 369.801 1.95216C380.271 -1.74473 393.43 -0.673908 399.881 9.37146C406.64 19.8757 405.129 35.5557 419.286 39.9665C425.942 42.0316 433.341 41.7257 439.639 45.0401C444.707 47.6917 447.779 52.6124 448.496 58.2215C450.288 72.3462 437.949 81.9581 425.482 84.9921C424.381 85.2471 423.92 83.5644 425.021 83.3094C437.411 80.3009 450.109 70.0771 446.269 55.9269C442.506 42.0826 426.403 45.2441 416.035 40.6294C406.563 36.3971 404.771 26.2242 401.673 17.4281C399.651 11.6916 396.656 6.41394 390.921 3.71138C384.905 0.906835 377.635 1.28927 371.439 3.27795C358.742 7.33179 348.911 17.1987 336.29 21.482C330.581 23.4197 324.386 24.159 318.498 22.5528C312.84 20.9976 308.002 17.5301 303.138 14.3686C292.283 7.33179 280.302 4.52725 267.758 8.81055C255.649 12.9409 249.659 22.6293 241.697 31.7823C238.267 35.7087 234.247 39.3801 229.179 41.0118C222.139 43.2809 214.996 40.5019 207.854 40.7823C200.43 41.0628 192.365 44.3263 188.628 51.0827C185.069 57.5076 186.221 66.4312 192.493 70.7145C193.389 71.2754 192.519 72.7796 191.597 72.1422Z" fill="#4B3425"/>
<path d="M160.723 41.1641C155.527 38.0536 150.33 34.9177 145.133 31.8072C142.112 29.997 144.877 25.2802 147.898 27.1159C153.094 30.2264 158.291 33.3624 163.488 36.4729C166.483 38.2831 163.744 42.9743 160.723 41.1641Z" fill="#FE814B"/>
<path d="M153.35 60.6431C147.565 59.0368 141.805 57.4051 136.019 55.7989C132.64 54.8555 134.073 49.6034 137.478 50.5467C143.238 52.153 149.024 53.7847 154.809 55.3909C158.189 56.3343 156.755 61.5864 153.35 60.6431Z" fill="#FE814B"/>
<path d="M151.866 80.1242C145.645 80.2007 139.527 80.8381 133.434 82.0619C130.004 82.7502 128.519 77.4981 131.975 76.8097C138.554 75.4839 145.159 74.77 151.866 74.6681C155.373 74.6426 155.373 80.0732 151.866 80.1242Z" fill="#FE814B"/>
<path d="M242.875 141.187C248.354 146.49 253.295 152.252 257.749 158.448C258.261 159.162 257.57 160.233 256.725 160.207C251.656 160.08 246.587 159.952 241.493 159.825C239.982 159.774 239.982 157.454 241.493 157.505C246.562 157.632 251.631 157.759 256.725 157.887C256.392 158.473 256.059 159.06 255.727 159.646C251.375 153.629 246.536 148.046 241.211 142.87C240.136 141.774 241.8 140.142 242.875 141.187Z" fill="#FE814B"/>
<path d="M199.815 326.234C173.575 326.897 148.128 331.079 123.117 337.121C122.323 299.77 117.997 262.469 110.138 225.934C114.797 224.812 119.43 223.716 124.09 222.594C125.83 222.186 127.776 221.625 128.672 220.07C129.543 218.566 129.133 216.679 128.621 215.022C122.938 196.716 105.325 188.225 89.1709 177.798C73.0171 167.37 52.0505 166.707 33.9255 160.282C46.6744 141.517 62.9818 130.707 75.6795 123.925C109.753 105.695 145.082 105.976 179.898 112.885C187.118 137.183 202.478 158.727 225.262 172.138C233.787 176.905 246.305 176.293 254.958 170.174C264.917 163.724 267.221 151.792 264.226 140.931C292.079 152.2 319.829 162.653 350.908 164.336C329.174 195.415 343.74 241.588 350.396 278.863C337.724 273.917 313.865 266.574 301.192 261.654C309.052 287.124 315.401 313.079 320.213 339.314C281.019 329.523 240.238 324.985 199.815 326.234Z" fill="#FE814B"/>
<path d="M254.958 170.148C246.305 176.267 233.787 176.879 225.262 172.111C202.477 158.7 187.143 137.182 179.898 112.859C185.402 113.955 190.88 115.204 196.333 116.581C220.167 122.573 242.235 131.981 264.225 140.879C267.221 151.791 264.916 163.723 254.958 170.148Z" fill="#FE814B"/>
<path d="M352.854 278.454C367.471 278.021 378.531 252.066 377.584 220.502C376.611 188.938 363.99 163.697 349.372 164.156C334.754 164.59 323.695 190.545 324.642 222.108C325.615 253.672 338.236 278.888 352.854 278.454Z" fill="#4B3425"/>
<path d="M132.128 238.633C141.267 227.262 126.701 200.516 99.5899 178.87C72.4793 157.224 43.0901 148.913 33.9252 160.284C24.7859 171.655 39.3525 198.4 66.4632 220.046C93.5739 241.667 122.989 250.004 132.128 238.633Z" fill="#4B3425"/>
<path d="M340.105 179.836C342.716 174.814 348.118 171.856 353.775 172.29C362.403 172.953 371.03 172.672 379.606 171.448C399.344 168.669 415.472 154.57 430.5 141.771C434.954 137.972 439.024 133.74 442.506 129.023C453.924 113.522 454.717 101.488 451.671 82.3403C450.135 72.7029 459.3 76.6802 460.708 78.5669C463.473 82.2383 464.522 91.3403 465.034 93.6349C467.799 105.669 474.353 102.686 477.297 116.785C498.263 106.485 513.572 95.4961 528.139 80.6576C530.955 77.7765 533.797 74.6405 538.097 74.1051C540.274 73.8247 542.526 74.615 543.858 76.3743C546.469 79.8417 543.832 84.38 541.17 87.5924C533.361 96.9494 524.222 105.236 514.11 112.094C518.308 112.808 520.792 117.627 520.331 121.859C519.896 126.091 517.336 129.763 514.724 133.128C517.822 131.751 521.893 133.205 523.403 136.239C524.913 139.273 523.633 143.377 520.664 145.009C524.222 143.224 528.574 146.819 529.061 150.746C529.547 154.672 527.525 158.445 525.477 161.836C490.686 220.018 422.256 268.766 351.395 262.902C338.364 261.831 331.478 251.25 329.814 238.553C326.87 218.208 331.119 197.199 340.105 179.836Z" fill="#FEAF8F"/>
<path d="M521.866 145.29C514.289 147.713 507.684 152.761 503.741 159.721C502.897 161.2 501.821 163.061 501.873 164.82C501.514 166.375 502.205 167.013 503.972 166.707C504.97 167.421 505.815 167.446 506.557 166.783C507.402 166.503 508.298 165.611 509.015 165.101C513.009 162.322 517.002 159.568 520.996 156.789C522.225 155.922 523.402 157.962 522.174 158.803C518.82 161.123 515.466 163.469 512.087 165.789C509.86 167.344 507.274 169.868 504.433 170.174C500.567 170.582 499.159 166.936 499.645 163.698C501.156 153.781 512.42 145.826 521.252 143.021C522.66 142.588 523.3 144.857 521.866 145.29Z" fill="#4B3425"/>
<path d="M515.953 132.365C510.577 134.736 505.687 137.923 501.515 142.079C499.492 144.093 497.342 146.337 495.985 148.887C495.294 150.059 494.91 151.309 494.833 152.635C495.754 153.756 496.65 154.904 497.572 156.025C499.185 156.79 501.847 155.822 503.486 155.388C504.945 154.98 505.559 157.249 504.1 157.632C501.105 158.448 497.265 159.289 494.577 157.147C491.761 154.878 492.247 151.156 493.681 148.249C497.675 140.142 506.711 133.895 514.75 130.351C516.132 129.739 517.31 131.753 515.953 132.365Z" fill="#4B3425"/>
<path d="M515.057 113.191C508.452 115.537 502.564 119.361 497.777 124.461C495.473 126.934 493.45 129.636 491.786 132.568C490.993 133.971 489.969 135.577 489.559 137.183C489.047 139.121 490.455 142.078 492.375 142.614C493.911 143.047 495.882 142.384 497.367 142.002C498.826 141.619 499.441 143.888 497.982 144.245C494.372 145.163 489.15 145.954 487.076 141.874C485.13 138.075 488.996 132.492 490.942 129.432C496.471 120.815 504.791 114.39 514.417 110.973C515.851 110.438 516.465 112.707 515.057 113.191Z" fill="#4B3425"/>
<path d="M476.938 114.132C480.394 121.679 481.751 129.71 480.804 137.971C480.625 139.45 478.295 139.45 478.474 137.971C479.37 130.144 478.244 122.469 474.941 115.305C474.301 113.954 476.324 112.781 476.938 114.132Z" fill="#4B3425"/>
<path d="M475.248 168.667C470.948 177.514 464.01 184.628 455.255 189.191C453.923 189.88 452.746 187.866 454.077 187.177C462.525 182.792 469.079 176.036 473.226 167.494C473.866 166.143 475.888 167.316 475.248 168.667Z" fill="#4B3425"/>
<path d="M447.677 200.869C446.372 202.986 444.58 204.745 442.455 206.02C441.149 206.81 439.972 204.77 441.277 204.005C443.069 202.935 444.554 201.481 445.655 199.697C446.423 198.396 448.471 199.569 447.677 200.869Z" fill="#4B3425"/>
<path d="M443.505 198.655C441.636 200.236 439.793 201.842 437.924 203.423C436.797 204.391 435.133 202.76 436.26 201.765C438.129 200.185 439.972 198.578 441.841 196.998C442.993 196.029 444.657 197.661 443.505 198.655Z" fill="#4B3425"/>
<path d="M453.821 77.572C456.074 81.4219 456.125 85.9347 454.052 89.861C453.36 91.1868 451.338 90.014 452.029 88.6882C453.719 85.5012 453.616 81.8553 451.799 78.7448C451.031 77.4446 453.053 76.2717 453.821 77.572Z" fill="#4B3425"/>
<path d="M506.071 156.176C508.35 159.898 507.735 164.691 504.638 167.751C503.563 168.822 501.899 167.164 502.974 166.094C505.355 163.748 505.79 160.178 504.049 157.323C503.281 156.074 505.303 154.901 506.071 156.176Z" fill="#4B3425"/>
<path d="M500.235 143.939C502.257 148.222 501.617 153.041 498.52 156.661C497.547 157.809 495.883 156.152 496.856 155.004C499.211 152.251 499.748 148.401 498.187 145.112C497.572 143.786 499.595 142.588 500.235 143.939Z" fill="#4B3425"/>
<path d="M494.91 129.89C496.626 134.607 493.554 140.139 490.661 143.734C489.714 144.907 488.075 143.25 488.997 142.077C491.403 139.094 494.066 134.403 492.632 130.502C492.12 129.099 494.398 128.488 494.91 129.89Z" fill="#4B3425"/>
<path d="M125.651 216.526C128.851 222.874 126.649 230.089 120.377 234.143C113.056 238.86 107.424 245.591 103.993 252.959C100.256 261.016 99.0523 270.449 103.353 278.557C108.448 288.169 121.197 294.288 133.254 293.498C145.312 292.682 152.275 288.424 159.239 275.548C160.442 273.356 161.747 270.883 163.642 269.073C164.922 267.849 166.791 267.135 168.736 267.237C171.296 267.39 172.244 268.767 172.781 270.194C176.621 280.495 160.16 290.209 167.917 300.789C169.786 303.339 172.679 305.251 175.93 306.373C181.408 308.26 188.73 309.636 194.644 311.217C210.926 315.551 223.265 318.891 230.919 324.526C233.249 326.234 235.553 328.248 235.988 330.925C236.219 332.379 235.758 333.883 234.503 334.826C232.609 336.28 230.305 335.668 228.206 335.056C209.594 329.727 190.983 324.373 172.372 319.044C194.029 327.382 216.25 336.025 232.763 350.914C234.478 352.469 235.348 354.637 234.759 356.676C233.351 361.571 225.441 360.501 220.398 358.257C204.116 351.067 189.447 340.206 171.68 336.891C189.575 340.971 206.471 348.671 220.602 359.175C222.42 360.526 223.239 362.693 222.394 364.58C221.447 366.671 219.118 366.773 217.044 366.645C199.917 365.574 184.583 352.826 167.661 354.637C166.612 354.739 165.485 354.968 165.255 356.192C165.05 357.365 166.023 358.512 167.354 358.869C180.282 362.438 192.365 368.481 202.426 376.436C203.962 377.659 205.55 379.036 205.114 381.127C204.73 382.886 203.066 384.186 201.044 384.62C197.537 385.359 194.081 383.906 190.906 382.504C169.684 373.07 147.718 363.05 124.141 362.234C108.704 361.699 105.171 363.637 89.7594 362.642C61.7015 360.832 40.4789 345.433 24.0435 326.107C15.877 316.495 9.52812 305.659 5.94409 294.262C-0.09758 275.141 -2.29916 258.849 2.97449 239.727C10.0146 214.129 22.8403 189.347 45.6245 171.398C53.407 165.253 65.0295 164.132 74.6808 168.542L78.1881 170.149C98.4123 179.404 114.464 194.344 123.552 212.344L125.651 216.526Z" fill="#FEAF8F"/>
<path d="M220.756 358.306C206.548 347.368 189.319 341.045 171.425 339.949C169.94 339.847 169.914 337.527 171.425 337.603C190.01 338.725 207.7 345.278 222.42 356.649C223.598 357.567 221.934 359.198 220.756 358.306Z" fill="#4B3425"/>
<path d="M234.042 332.991C228.871 331.461 224.801 327.305 223.751 322.002C223.444 320.549 225.722 319.911 226.004 321.39C226.926 325.928 230.228 329.447 234.683 330.747C236.091 331.155 235.476 333.399 234.042 332.991Z" fill="#4B3425"/>
<path d="M232.763 356.215C227.848 355.068 224.187 350.581 224.417 345.507C224.469 344.003 226.824 344.003 226.773 345.507C226.593 349.586 229.461 353.054 233.403 353.972C234.862 354.329 234.248 356.572 232.763 356.215Z" fill="#4B3425"/>
<path d="M220.859 363.535C215.432 361.954 211.566 357.161 211.438 351.475C211.413 349.971 213.742 349.971 213.793 351.475C213.896 356.09 217.096 359.991 221.499 361.266C222.933 361.725 222.318 363.968 220.859 363.535Z" fill="#4B3425"/>
<path d="M203.605 382.171C198.817 380.565 195.105 376.842 193.774 371.972C193.364 370.519 195.643 369.907 196.027 371.361C197.153 375.414 200.225 378.576 204.245 379.927C205.653 380.386 205.038 382.655 203.605 382.171Z" fill="#4B3425"/>
<path d="M166.381 268.154C168.352 273.254 165.46 278.837 160.493 280.8C159.085 281.361 158.471 279.092 159.879 278.557C163.744 277.027 165.613 272.591 164.128 268.792C163.591 267.39 165.844 266.778 166.381 268.154Z" fill="#4B3425"/>
<path d="M167.943 311.778C167.38 312.823 166.817 313.868 166.279 314.914C165.563 316.24 163.54 315.067 164.257 313.741C164.82 312.696 165.383 311.65 165.921 310.605C166.638 309.279 168.66 310.452 167.943 311.778Z" fill="#FE814B"/>
<path d="M161.236 327.051C160.263 327.995 159.7 329.295 159.904 330.672C160.007 331.309 159.751 331.921 159.085 332.099C158.548 332.252 157.728 331.895 157.652 331.283C157.344 329.091 157.959 326.949 159.597 325.394C160.672 324.349 162.336 326.006 161.236 327.051Z" fill="#FE814B"/>
<path d="M155.706 344.718C155.143 346.299 154.58 347.879 154.042 349.46C153.556 350.862 151.277 350.251 151.789 348.848C152.352 347.268 152.916 345.687 153.453 344.106C153.94 342.678 156.192 343.29 155.706 344.718Z" fill="#FE814B"/>
<path d="M150.791 356.575C150.228 358.155 149.69 359.736 149.127 361.317C148.64 362.719 146.362 362.133 146.874 360.705C147.437 359.124 147.975 357.543 148.538 355.963C149.024 354.56 151.303 355.147 150.791 356.575Z" fill="#FE814B"/>
<path d="M467.364 126.703C467.108 125.377 466.852 124.051 466.596 122.725C466.315 121.247 468.568 120.635 468.849 122.113C469.105 123.439 469.361 124.765 469.617 126.091C469.899 127.544 467.646 128.181 467.364 126.703Z" fill="#FE814B"/>
<path d="M470.641 144.319C470.41 143.248 470.18 142.178 469.95 141.107C469.642 139.653 471.895 139.016 472.202 140.495C472.433 141.566 472.663 142.636 472.894 143.707C473.201 145.161 470.948 145.798 470.641 144.319Z" fill="#FE814B"/>
<path d="M476.708 157.451C475.684 156.099 474.66 154.748 473.611 153.397C473.227 152.887 473.534 152.096 474.02 151.791C474.609 151.434 475.249 151.714 475.633 152.198C476.657 153.55 477.681 154.901 478.731 156.252C479.115 156.762 478.807 157.553 478.321 157.859C477.707 158.241 477.092 157.961 476.708 157.451Z" fill="#FE814B"/>
<path d="M455.742 113.393C454.41 113.367 453.079 113.367 451.748 113.342C450.238 113.316 450.238 110.996 451.748 111.022C453.079 111.047 454.41 111.047 455.742 111.073C457.252 111.098 457.252 113.418 455.742 113.393Z" fill="#FE814B"/>
<path d="M152.788 296.789C151.738 295.463 150.689 294.112 149.639 292.786C149.255 292.277 149.153 291.639 149.639 291.129C150.049 290.721 150.919 290.645 151.303 291.129C152.353 292.455 153.402 293.806 154.452 295.132C154.836 295.642 154.938 296.305 154.452 296.789C154.042 297.197 153.172 297.274 152.788 296.789Z" fill="#FE814B"/>
<path d="M302.242 267.086C295.637 243.375 285.192 221.066 274.722 198.885C274.082 197.534 276.104 196.361 276.744 197.712C287.317 220.098 297.839 242.585 304.495 266.475C304.904 267.928 302.652 268.54 302.242 267.086Z" fill="#4B3425"/>
<path d="M229.614 136.318C237.883 141.697 245.307 148.071 251.835 155.465C252.527 156.255 252.04 157.352 251.016 157.454C244.13 158.066 237.269 158.678 230.382 159.315C228.872 159.442 228.898 157.122 230.382 156.995C237.269 156.383 244.13 155.771 251.016 155.134C250.735 155.796 250.453 156.459 250.197 157.122C243.797 149.907 236.552 143.609 228.437 138.357C227.157 137.516 228.334 135.502 229.614 136.318Z" fill="#4B3425"/>
<path d="M195.642 163.801C190.036 165.79 184.43 167.881 178.798 169.818C176.647 170.558 173.293 171.705 172.449 168.569C172.141 167.396 172.653 166.274 173.037 165.204C174.061 162.424 175.418 159.696 176.596 156.968C178.977 151.487 181.358 146.005 183.738 140.524C184.327 139.147 186.35 140.345 185.761 141.696C182.586 149.014 179.386 156.305 176.237 163.623C175.751 164.719 175.29 165.841 174.829 166.963C175.853 168.187 176.954 168.391 178.157 167.549C179.975 167.294 182.049 166.172 183.764 165.535C187.502 164.209 191.239 162.858 195.002 161.532C196.436 161.048 197.05 163.291 195.642 163.801Z" fill="#4B3425"/>
<path d="M222.701 177.362C222.625 179.809 224.519 181.849 226.977 181.951C229.434 182.027 231.482 180.141 231.585 177.693C231.661 175.245 229.767 173.206 227.309 173.104C224.852 173.002 222.778 174.914 222.701 177.362Z" fill="#4B3425"/>
<path d="M226.235 193.987C226.158 196.434 228.052 198.474 230.51 198.576C232.967 198.653 235.015 196.766 235.118 194.318C235.195 191.871 233.3 189.831 230.843 189.729C228.385 189.627 226.311 191.539 226.235 193.987Z" fill="#4B3425"/>
<path d="M189.113 133.607L219.45 50.9241C219.45 50.9241 253.012 79.4794 244.128 111.4L227.539 104.236L229.485 139.803C230.202 152.856 218.528 163.208 205.6 160.964C205.37 160.939 205.165 160.888 204.934 160.837C192.313 158.619 184.71 145.616 189.113 133.607Z" fill="#FEAF8F"/>
<path d="M194.183 82.236C196.896 86.5958 202.631 87.947 207.008 85.2445C211.386 82.5419 212.743 76.8309 210.029 72.4711C207.316 68.1113 201.581 66.76 197.204 69.4626C192.826 72.1651 191.495 77.8762 194.183 82.236Z" fill="#FEAF8F"/>
<path d="M204.781 80.7792C202.144 78.6375 199.482 76.4704 196.794 74.3797C195.616 73.4619 197.28 71.8046 198.458 72.7225C201.146 74.8131 203.783 76.9803 206.445 79.1219C207.597 80.0908 205.933 81.7225 204.781 80.7792Z" fill="#4B3425"/>
<path d="M227.54 104.235L229.357 137.788L215.712 98.1165L227.54 104.235Z" fill="#4B3425"/>
<path d="M241.16 90.8249C241.16 90.8249 229.46 87.9183 220.526 83.8645C220.526 83.8645 231.739 101.355 242.132 102.884L241.16 90.8249Z" fill="white"/>
<path d="M225.159 76.4691C223.828 73.8431 218.784 73.6391 216.583 75.1433C215.328 75.9847 214.151 73.9705 215.405 73.1292C218.631 70.962 225.287 71.5484 227.181 75.2963C227.847 76.6221 225.825 77.7949 225.159 76.4691Z" fill="#4B3425"/>
<path d="M198.484 85.989C197.408 97.87 209.364 103.556 218.401 108.17C228.026 113.117 237.985 117.884 248.199 121.479C250.657 122.346 249.607 126.298 247.099 125.406C235.399 121.275 223.956 115.768 212.999 109.955C203.527 104.907 193.261 98.023 194.362 85.9635C194.644 83.4139 198.74 83.3884 198.484 85.989Z" fill="#4B3425"/>
<path d="M239.931 127.419L247.969 130.019C250.913 130.963 254.088 129.356 255.035 126.45C255.982 123.518 254.369 120.356 251.451 119.413L243.412 116.813C240.468 115.869 237.294 117.475 236.347 120.382C235.374 123.314 237.012 126.475 239.931 127.419Z" fill="#4B3425"/>
<path d="M242.594 121.833C241.085 121.833 241.085 119.489 242.594 119.489C244.103 119.489 244.103 121.833 242.594 121.833Z" fill="#4B3425"/>
<path d="M210.209 76.1927C212.231 75.5553 213.383 73.3627 212.718 71.323L210.337 63.9037C209.697 61.8895 207.495 60.7422 205.447 61.4051C203.425 62.0425 202.273 64.2351 202.938 66.2748L205.319 73.6941C205.985 75.7338 208.186 76.8556 210.209 76.1927Z" fill="#4B3425"/>
<path d="M207.932 71.6311C206.422 71.6311 206.422 69.3125 207.932 69.3125C209.441 69.3125 209.441 71.6311 207.932 71.6311Z" fill="#4B3425"/>
</svg>
