<svg width="21" height="19" viewBox="0 0 21 19" fill="none" xmlns="http://www.w3.org/2000/svg">
<path d="M8.75 5.875C8.75 6.70343 8.07843 7.375 7.25 7.375C6.42157 7.375 5.75 6.70343 5.75 5.875C5.75 5.04657 6.42157 4.375 7.25 4.375C8.07843 4.375 8.75 5.04657 8.75 5.875Z" fill="#926247"/>
<path d="M14.25 7.375C15.0784 7.375 15.75 6.70343 15.75 5.875C15.75 5.04657 15.0784 4.375 14.25 4.375C13.4216 4.375 12.75 5.04657 12.75 5.875C12.75 6.70343 13.4216 7.375 14.25 7.375Z" fill="#926247"/>
<path fill-rule="evenodd" clip-rule="evenodd" d="M1.85002 6.875H0.75V4.875H1.85002C2.31329 2.59276 4.33104 0.875 6.75 0.875H14.75C17.169 0.875 19.1867 2.59276 19.65 4.875H20.75V6.875H19.65C19.2955 8.62121 18.031 10.037 16.3731 10.6057C16.8887 10.9563 17.3739 11.3567 17.8211 11.8039C19.6964 13.6793 20.75 16.2228 20.75 18.875H18.75C18.75 16.7533 17.9071 14.7184 16.4069 13.2181C14.9066 11.7179 12.8717 10.875 10.75 10.875C8.62827 10.875 6.59344 11.7179 5.09315 13.2181C3.59286 14.7184 2.75 16.7533 2.75 18.875L0.75 18.875C0.75 16.2228 1.80357 13.6793 3.67893 11.8039C4.12613 11.3567 4.61132 10.9563 5.12692 10.6057C3.46898 10.037 2.20448 8.62121 1.85002 6.875ZM6.75 8.875H14.75C16.4069 8.875 17.75 7.53185 17.75 5.875C17.75 4.21815 16.4069 2.875 14.75 2.875H6.75C5.09315 2.875 3.75 4.21815 3.75 5.875C3.75 7.53185 5.09315 8.875 6.75 8.875Z" fill="#926247"/>
</svg>
