<svg width="20" height="16" viewBox="0 0 20 16" fill="none" xmlns="http://www.w3.org/2000/svg">
<path d="M16 2C16 2.78793 15.8448 3.56815 15.5433 4.2961C15.2417 5.02405 14.7998 5.68549 14.2426 6.24264C13.6855 6.79979 13.0241 7.24175 12.2961 7.54328C11.5681 7.84481 10.7879 8 10 8C9.21207 8 8.43185 7.84481 7.7039 7.54328C6.97595 7.24175 6.31451 6.79979 5.75736 6.24264C5.20021 5.68549 4.75825 5.02405 4.45672 4.2961C4.15519 3.56815 4 2.78793 4 2M8 15H12C15.866 15 19 11.866 19 8C19 4.13401 15.866 1 12 1H8C4.13401 1 1 4.13401 1 8C1 11.866 4.13401 15 8 15Z" stroke="#4B3425" stroke-width="2" stroke-linejoin="round"/>
</svg>
