<svg width="20" height="14" viewBox="0 0 20 14" fill="none" xmlns="http://www.w3.org/2000/svg">
<path d="M6.03095 6.5C5.4908 5.06931 8.33166 2.66343 10 3C11.5631 2.61787 14.4485 4.99529 13.9691 6.5C13.9691 7.60457 11.1046 9 10 9C8.89543 9 6.03095 7.60457 6.03095 6.5Z" fill="#1F160F" fill-opacity="0.32"/>
<path fill-rule="evenodd" clip-rule="evenodd" d="M0 7C0 3.13401 3.13401 0 7 0H13C16.866 0 20 3.13401 20 7C20 10.866 16.866 14 13 14H7C3.13401 14 0 10.866 0 7ZM10 3C7.79086 3 6 4.79086 6 7C6 9.20914 7.79086 11 10 11C12.2091 11 14 9.20914 14 7C14 4.79086 12.2091 3 10 3Z" fill="#1F160F" fill-opacity="0.32"/>
</svg>
