<svg width="20" height="20" viewBox="0 0 20 20" fill="none" xmlns="http://www.w3.org/2000/svg">
<path d="M12.6497 4C12.6497 5.65685 11.3066 7 9.6497 7C7.99285 7 6.6497 5.65685 6.6497 4C6.6497 2.34315 7.99285 1 9.6497 1C11.3066 1 12.6497 2.34315 12.6497 4Z" fill="#EC7F1C"/>
<path d="M12.6497 16C12.6497 17.6569 11.3066 19 9.6497 19C7.99285 19 6.6497 17.6569 6.6497 16C6.6497 14.3431 7.99285 13 9.6497 13C11.3066 13 12.6497 14.3431 12.6497 16Z" fill="#EC7F1C"/>
<path d="M15.6497 13C13.9928 13 12.6497 11.6569 12.6497 10C12.6497 8.34315 13.9928 7 15.6497 7C17.3066 7 18.6497 8.34315 18.6497 10C18.6497 11.6569 17.3066 13 15.6497 13Z" fill="#EC7F1C"/>
<path d="M3.6497 13C1.99285 13 0.649704 11.6569 0.649704 10C0.649704 8.34315 1.99285 7 3.6497 7C5.30656 7 6.6497 8.34315 6.6497 10C6.6497 11.6569 5.30656 13 3.6497 13Z" fill="#EC7F1C"/>
<path d="M12.6497 4C12.6497 5.65685 11.3066 7 9.6497 7C7.99285 7 6.6497 5.65685 6.6497 4C6.6497 2.34315 7.99285 1 9.6497 1C11.3066 1 12.6497 2.34315 12.6497 4Z" stroke="#4F3422" stroke-linejoin="round"/>
<path d="M12.6497 16C12.6497 17.6569 11.3066 19 9.6497 19C7.99285 19 6.6497 17.6569 6.6497 16C6.6497 14.3431 7.99285 13 9.6497 13C11.3066 13 12.6497 14.3431 12.6497 16Z" stroke="#4F3422" stroke-linejoin="round"/>
<path d="M15.6497 13C13.9928 13 12.6497 11.6569 12.6497 10C12.6497 8.34315 13.9928 7 15.6497 7C17.3066 7 18.6497 8.34315 18.6497 10C18.6497 11.6569 17.3066 13 15.6497 13Z" stroke="#4F3422" stroke-linejoin="round"/>
<path d="M3.6497 13C1.99285 13 0.649704 11.6569 0.649704 10C0.649704 8.34315 1.99285 7 3.6497 7C5.30656 7 6.6497 8.34315 6.6497 10C6.6497 11.6569 5.30656 13 3.6497 13Z" stroke="#4F3422" stroke-linejoin="round"/>
</svg>
