<svg width="20" height="20" viewBox="0 0 20 20" fill="none" xmlns="http://www.w3.org/2000/svg">
<path d="M14.3301 12.5C13.8913 13.2601 13.2601 13.8913 12.5 14.3301C11.7399 14.769 10.8777 15 10 15C9.12232 15 8.2601 14.769 7.5 14.3301C6.7399 13.8913 6.10871 13.2601 5.66987 12.5M19 10C19 14.9706 14.9706 19 10 19C5.02944 19 1 14.9706 1 10C1 5.02944 5.02944 1 10 1C14.9706 1 19 5.02944 19 10ZM8 7C8 7.55228 7.55228 8 7 8C6.44772 8 6 7.55228 6 7C6 6.44772 6.44772 6 7 6C7.55228 6 8 6.44772 8 7ZM14 7C14 7.55228 13.5523 8 13 8C12.4477 8 12 7.55228 12 7C12 6.44772 12.4477 6 13 6C13.5523 6 14 6.44772 14 7Z" stroke="#4F3422"/>
</svg>
