<svg width="20" height="20" viewBox="0 0 20 20" fill="none" xmlns="http://www.w3.org/2000/svg">
<path fill-rule="evenodd" clip-rule="evenodd" d="M19 10C19 14.9706 14.9706 19 10 19C5.02944 19 1 14.9706 1 10C1 5.02944 5.02944 1 10 1C14.9706 1 19 5.02944 19 10ZM14.5 7.5C14.5 8.32843 14.3284 8.5 13.5 8.5C12.6716 8.5 12.5 8.32843 12.5 7.5C12.5 6.67157 12.6716 6.5 13.5 6.5C14.3284 6.5 14.5 6.67157 14.5 7.5ZM6.5 8.5C7.32843 8.5 7.5 8.32843 7.5 7.5C7.5 6.67157 7.32843 6.5 6.5 6.5C5.67157 6.5 5.66987 6.67157 5.66987 7.5C5.66987 8.32843 5.67157 8.5 6.5 8.5Z" fill="#E7CE66"/>
<path d="M14.3301 12.5C13.8913 13.2601 13.2601 13.8913 12.5 14.3301C11.7399 14.769 10.8777 15 10 15C9.12232 15 8.2601 14.769 7.5 14.3301C6.7399 13.8913 6.10871 13.2601 5.66987 12.5M19 10C19 14.9706 14.9706 19 10 19C5.02944 19 1 14.9706 1 10C1 5.02944 5.02944 1 10 1C14.9706 1 19 5.02944 19 10ZM7.5 7.5C7.5 8.32843 7.32843 8.5 6.5 8.5C5.67157 8.5 5.66987 8.32843 5.66987 7.5C5.66987 6.67157 5.67157 6.5 6.5 6.5C7.32843 6.5 7.5 6.67157 7.5 7.5ZM14.5 7.5C14.5 8.32843 14.3284 8.5 13.5 8.5C12.6716 8.5 12.5 8.32843 12.5 7.5C12.5 6.67157 12.6716 6.5 13.5 6.5C14.3284 6.5 14.5 6.67157 14.5 7.5Z" stroke="#694A39"/>
</svg>
