<svg width="18" height="18" viewBox="0 0 18 18" fill="none" xmlns="http://www.w3.org/2000/svg">
<path d="M18 3H16M2 3H0M18 12H16M2 12H0M4.5 1C3.11929 1 2 2.11929 2 3.5C2 4.88071 3.11929 6 4.5 6H13.5C14.8807 6 16 4.88071 16 3.5C16 2.11929 14.8807 1 13.5 1H4.5ZM4.5 9C3.11929 9 2 10.1193 2 11.5C2 12.8807 3.11929 14 4.5 14H13.5C14.8807 14 16 12.8807 16 11.5C16 10.1193 14.8807 9 13.5 9H4.5ZM3.5 6C2.67157 6 2 6.67157 2 7.5C2 8.32843 2.67157 9 3.5 9H14.5C15.3284 9 16 8.32843 16 7.5C16 6.67157 15.3284 6 14.5 6H3.5ZM3.5 14C2.67157 14 2 14.6716 2 15.5C2 16.3284 2.67157 17 3.5 17H14.5C15.3284 17 16 16.3284 16 15.5C16 14.6716 15.3284 14 14.5 14H3.5Z" stroke="#4B3425" stroke-width="2" stroke-linejoin="round"/>
</svg>
