<svg width="20" height="19" viewBox="0 0 20 19" fill="none" xmlns="http://www.w3.org/2000/svg">
<path fill-rule="evenodd" clip-rule="evenodd" d="M4 6.84315C4 5.88271 4.38153 4.96162 5.06066 4.28249L7.17158 2.17157C8.73367 0.609474 11.2663 0.609477 12.8284 2.17157L14.8839 4.22703C15.5985 4.94167 16 5.91092 16 6.92157V6.92157V8.5V12.3431C16 15.6569 13.3137 18.3431 10 18.3431C6.68629 18.3431 4 15.6569 4 12.3431V8.34315V6.84315V6.84315ZM7.5 12.3431C7.5 13.4477 8.89543 15.5 10 15.5C11.1046 15.5 12.5 13.4477 12.5 12.3431C12.5 11.2386 11.1046 9.5 10 9.5C8.89543 9.5 7.5 11.2386 7.5 12.3431Z" fill="#4E3522"/>
<path d="M1 8.34315L7.17158 2.17157M7.17158 2.17157C8.73367 0.609474 11.2663 0.609477 12.8284 2.17157M7.17158 2.17157L5.06066 4.28249C4.38153 4.96162 4 5.88271 4 6.84315V6.84315V8.34315V12.3431C4 15.6569 6.68629 18.3431 10 18.3431C13.3137 18.3431 16 15.6569 16 12.3431V8.5V6.92157V6.92157C16 5.91092 15.5985 4.94167 14.8839 4.22703L12.8284 2.17157M12.8284 2.17157L19 8.34315M10 15.5C8.89543 15.5 7.5 13.4477 7.5 12.3431C7.5 11.2386 8.89543 9.5 10 9.5C11.1046 9.5 12.5 11.2386 12.5 12.3431C12.5 13.4477 11.1046 15.5 10 15.5Z" stroke="#4F3422" stroke-linejoin="round"/>
</svg>
