<svg width="18" height="20" viewBox="0 0 18 20" fill="none" xmlns="http://www.w3.org/2000/svg">
<path d="M6 0.500002C6 0.893968 6.0776 1.28408 6.22836 1.64805C6.37913 2.01203 6.6001 2.34275 6.87868 2.62132C7.15726 2.8999 7.48797 3.12088 7.85195 3.27164C8.21593 3.4224 8.60604 3.5 9 3.5M9 3.5C9.39397 3.5 9.78407 3.4224 10.1481 3.27164C10.512 3.12088 10.8427 2.8999 11.1213 2.62132C11.3999 2.34275 11.6209 2.01203 11.7716 1.64805C11.9224 1.28407 12 0.893966 12 0.5M9 3.5C4.58172 3.5 1 7.08172 1 11.5C1 15.9183 4.58172 19.5 9 19.5C13.4183 19.5 17 15.9183 17 11.5C17 7.08172 13.4183 3.5 9 3.5ZM9 12.5L13 8.5" stroke="#4B3425" stroke-linejoin="round"/>
</svg>
