<svg width="44" height="44" viewBox="0 0 44 44" fill="none" xmlns="http://www.w3.org/2000/svg">
<g filter="url(#filter0_d_6523_2599)">
<path d="M22 5C24.7614 5 27 7.23858 27 10C27 12.7614 24.7614 15 22 15C19.2386 15 17 12.7614 17 10C17 7.23858 19.2386 5 22 5Z" fill="#9BB167" shape-rendering="crispEdges"/>
<path d="M19 18C19 15.2386 16.7614 13 14 13C11.2386 13 9 15.2386 9 18C9 20.7614 11.2386 23 14 23C16.7614 23 19 20.7614 19 18Z" fill="#9BB167" shape-rendering="crispEdges"/>
<path d="M27 26C27 23.2386 24.7614 21 22 21C19.2386 21 17 23.2386 17 26C17 28.7614 19.2386 31 22 31C24.7614 31 27 28.7614 27 26Z" fill="#9BB167" shape-rendering="crispEdges"/>
<path d="M35 18C35 15.2386 32.7614 13 30 13C27.2386 13 25 15.2386 25 18C25 20.7614 27.2386 23 30 23C32.7614 23 35 20.7614 35 18Z" fill="#9BB167" shape-rendering="crispEdges"/>
<path d="M22 20.875C24.8305 20.875 27.125 23.1695 27.125 26C27.125 28.8305 24.8305 31.125 22 31.125C19.1695 31.125 16.875 28.8305 16.875 26C16.875 23.1695 19.1695 20.875 22 20.875ZM14 12.875C16.8305 12.875 19.125 15.1695 19.125 18C19.125 20.8305 16.8305 23.125 14 23.125C11.1695 23.125 8.875 20.8305 8.875 18C8.875 15.1695 11.1695 12.875 14 12.875ZM30 12.875C32.8305 12.875 35.125 15.1695 35.125 18C35.125 20.8305 32.8305 23.125 30 23.125C27.1695 23.125 24.875 20.8305 24.875 18C24.875 15.1695 27.1695 12.875 30 12.875ZM22 4.875C24.8305 4.875 27.125 7.16954 27.125 10C27.125 12.8305 24.8305 15.125 22 15.125C19.1695 15.125 16.875 12.8305 16.875 10C16.875 7.16954 19.1695 4.875 22 4.875Z" stroke="url(#paint0_linear_6523_2599)" stroke-width="0.25" shape-rendering="crispEdges"/>
</g>
<defs>
<filter id="filter0_d_6523_2599" x="0.75" y="0.75" width="42.5" height="42.5" filterUnits="userSpaceOnUse" color-interpolation-filters="sRGB">
<feFlood flood-opacity="0" result="BackgroundImageFix"/>
<feColorMatrix in="SourceAlpha" type="matrix" values="0 0 0 0 0 0 0 0 0 0 0 0 0 0 0 0 0 0 127 0" result="hardAlpha"/>
<feOffset dy="4"/>
<feGaussianBlur stdDeviation="4"/>
<feComposite in2="hardAlpha" operator="out"/>
<feColorMatrix type="matrix" values="0 0 0 0 0.607843 0 0 0 0 0.694118 0 0 0 0 0.403922 0 0 0 0.24 0"/>
<feBlend mode="normal" in2="BackgroundImageFix" result="effect1_dropShadow_6523_2599"/>
<feBlend mode="normal" in="SourceGraphic" in2="effect1_dropShadow_6523_2599" result="shape"/>
</filter>
<linearGradient id="paint0_linear_6523_2599" x1="22" y1="5" x2="22" y2="31" gradientUnits="userSpaceOnUse">
<stop stop-color="#9BB167"/>
<stop offset="1" stop-color="#9BB167" stop-opacity="0"/>
</linearGradient>
</defs>
</svg>
