<svg width="24" height="24" viewBox="0 0 24 24" fill="none" xmlns="http://www.w3.org/2000/svg">
<path d="M17.9961 5.29004L17.7114 6.24864L18.6627 4.54461L17.9961 5.29004ZM17.9961 18.709L18.6627 19.4544L17.7113 17.7504L17.9961 18.709ZM12 3V4C14.0479 4 15.9135 4.76923 17.3295 6.03547L17.9961 5.29004L18.6627 4.54461C16.8949 2.96379 14.5594 2 12 2V3ZM17.9961 5.29004L18.2808 4.33143C17.5579 4.11671 16.7924 4 16 4V5V6C16.595 6 17.1689 6.08752 17.7114 6.24864L17.9961 5.29004ZM16 5V4C11.5817 4 8 7.58172 8 12H9H10C10 8.68629 12.6863 6 16 6V5ZM9 12H8C8 16.4183 11.5817 20 16 20V19V18C12.6863 18 10 15.3137 10 12H9ZM16 19V20C16.7934 20 17.5588 19.8821 18.2809 19.6676L17.9961 18.709L17.7113 17.7504C17.1679 17.9118 16.5942 18 16 18V19ZM17.9961 18.709L17.3295 17.9636C15.9132 19.2302 14.0479 20 12 20V21V22C14.5598 22 16.895 21.0353 18.6627 19.4544L17.9961 18.709ZM12 21V20C7.58172 20 4 16.4183 4 12H3H2C2 17.5228 6.47715 22 12 22V21ZM3 12H4C4 7.58172 7.58172 4 12 4V3V2C6.47715 2 2 6.47715 2 12H3Z" fill="#4B3425"/>
</svg>
