<svg width="16" height="17" viewBox="0 0 16 17" fill="none" xmlns="http://www.w3.org/2000/svg">
<path d="M1 16.5C1 15.5807 1.18106 14.6705 1.53284 13.8212C1.88463 12.9719 2.40024 12.2003 3.05025 11.5503C3.70026 10.9002 4.47194 10.3846 5.32122 10.0328C6.1705 9.68106 7.08075 9.5 8 9.5M8 9.5C8.91926 9.5 9.82951 9.68106 10.6788 10.0328C11.5281 10.3846 12.2997 10.9002 12.9497 11.5503C13.5998 12.2003 14.1154 12.9719 14.4672 13.8212C14.8189 14.6705 15 15.5808 15 16.5M8 9.5C5.79086 9.5 4 7.70914 4 5.5C4 3.29086 5.79086 1.5 8 1.5C10.2091 1.5 12 3.29086 12 5.5C12 7.70914 10.2091 9.5 8 9.5Z" stroke="#4B3425" stroke-width="2" stroke-linejoin="round"/>
</svg>
