<svg width="16" height="16" viewBox="0 0 16 16" fill="none" xmlns="http://www.w3.org/2000/svg">
<path d="M1.53284 13.3212C1.24499 14.0161 1.07145 14.7519 1.01788 15.5H14.9821C14.9285 14.7519 14.755 14.0161 14.4672 13.3212C14.1154 12.4719 13.5998 11.7003 12.9497 11.0503C12.2997 10.4002 11.5281 9.88463 10.6788 9.53284C9.82951 9.18106 8.91926 9 8 9C7.08075 9 6.1705 9.18106 5.32122 9.53284C4.47194 9.88463 3.70026 10.4002 3.05025 11.0503C2.40024 11.7003 1.88463 12.4719 1.53284 13.3212Z" fill="#4E3522"/>
<path d="M4 5C4 7.20914 5.79086 9 8 9C10.2091 9 12 7.20914 12 5C12 2.79086 10.2091 1 8 1C5.79086 1 4 2.79086 4 5Z" fill="#4E3522"/>
<path d="M1 16C1 15.8329 1.00598 15.6662 1.01788 15.5M8 9C7.08075 9 6.1705 9.18106 5.32122 9.53284C4.47194 9.88463 3.70026 10.4002 3.05025 11.0503C2.40024 11.7003 1.88463 12.4719 1.53284 13.3212C1.24499 14.0161 1.07145 14.7519 1.01788 15.5M8 9C8.91926 9 9.82951 9.18106 10.6788 9.53284C11.5281 9.88463 12.2997 10.4002 12.9497 11.0503C13.5998 11.7003 14.1154 12.4719 14.4672 13.3212C14.755 14.0161 14.9285 14.7519 14.9821 15.5M8 9C5.79086 9 4 7.20914 4 5C4 2.79086 5.79086 1 8 1C10.2091 1 12 2.79086 12 5C12 7.20914 10.2091 9 8 9ZM15 16C15 15.8329 14.994 15.6662 14.9821 15.5M1 15.5H1.01788M15 15.5H14.9821M1.01788 15.5H14.9821" stroke="#4E3522"/>
</svg>
