<svg width="18" height="22" viewBox="0 0 18 22" fill="none" xmlns="http://www.w3.org/2000/svg">
<path d="M10 11.393C10 10.8407 9.55228 10.393 9 10.393C8.44772 10.393 8 10.8407 8 11.393C8 11.9453 8.44772 12.393 9 12.393C9.55228 12.393 10 11.9453 10 11.393ZM12 11.393C12 13.0499 10.6569 14.393 9 14.393C7.34315 14.393 6 13.0499 6 11.393C6 9.73617 7.34315 8.39302 9 8.39302C10.6569 8.39302 12 9.73617 12 11.393Z" fill="#4B3425"/>
<path d="M3 13.393C3 14.1809 3.15552 14.961 3.45703 15.6889C3.75856 16.4169 4.20066 17.0781 4.75781 17.6352C5.31496 18.1924 5.97615 18.6345 6.7041 18.936C7.43204 19.2375 8.21209 19.393 9 19.393C9.78791 19.393 10.568 19.2375 11.2959 18.936C12.0239 18.6345 12.685 18.1924 13.2422 17.6352C13.7993 17.0781 14.2414 16.4169 14.543 15.6889C14.8445 14.961 15 14.1809 15 13.393H17C17 14.4436 16.7927 15.4839 16.3906 16.4545C15.9886 17.4251 15.4 18.3074 14.6572 19.0502C13.9144 19.7931 13.0321 20.3816 12.0615 20.7836C11.0909 21.1857 10.0506 21.393 9 21.393C7.94943 21.393 6.90908 21.1857 5.93848 20.7836C4.96795 20.3816 4.08559 19.7931 3.34277 19.0502C2.59995 18.3074 2.01141 17.4251 1.60938 16.4545C1.20734 15.4839 1 14.4436 1 13.393H3Z" fill="#4B3425"/>
<path d="M15 7.71431C15 6.63774 14.423 5.64395 13.4883 5.10982L10.4883 3.39497C9.56611 2.86813 8.43389 2.86813 7.51172 3.39497L4.51172 5.10982C3.57699 5.64395 3 6.63774 3 7.71431V13.393H1V7.71431C1 5.92003 1.96166 4.2637 3.51953 3.37349L6.51953 1.65865C8.05657 0.780451 9.94343 0.780451 11.4805 1.65865L14.4805 3.37349C16.0383 4.2637 17 5.92003 17 7.71431V13.393H15V7.71431Z" fill="#4B3425"/>
<path d="M3 13.393C3 14.1809 3.15552 14.961 3.45703 15.6889C3.75856 16.4169 4.20066 17.0781 4.75781 17.6352C5.31496 18.1924 5.97615 18.6345 6.7041 18.936C7.43204 19.2375 8.21209 19.393 9 19.393C9.78791 19.393 10.568 19.2375 11.2959 18.936C12.0239 18.6345 12.685 18.1924 13.2422 17.6352C13.7993 17.0781 14.2414 16.4169 14.543 15.6889C14.8445 14.961 15 14.1809 15 13.393M3 13.393H1M3 13.393V7.71431C3 6.63774 3.57699 5.64395 4.51172 5.10982L7.51172 3.39497C8.43389 2.86813 9.56611 2.86813 10.4883 3.39497L13.4883 5.10982C14.423 5.64395 15 6.63774 15 7.71431V13.393M15 13.393H17M17 13.393C17 14.4436 16.7927 15.4839 16.3906 16.4545C15.9886 17.4251 15.4 18.3074 14.6572 19.0502C13.9144 19.7931 13.0321 20.3816 12.0615 20.7836C11.0909 21.1857 10.0506 21.393 9 21.393C7.94943 21.393 6.90908 21.1857 5.93848 20.7836C4.96795 20.3816 4.08559 19.7931 3.34277 19.0502C2.59995 18.3074 2.01141 17.4251 1.60938 16.4545C1.20734 15.4839 1 14.4436 1 13.393M17 13.393V7.71431C17 5.92003 16.0383 4.2637 14.4805 3.37349L11.4805 1.65865C9.94343 0.780451 8.05657 0.780451 6.51953 1.65865L3.51953 3.37349C1.96166 4.2637 1 5.92003 1 7.71431V13.393M10 11.393C10 10.8407 9.55228 10.393 9 10.393C8.44772 10.393 8 10.8407 8 11.393C8 11.9453 8.44772 12.393 9 12.393C9.55228 12.393 10 11.9453 10 11.393ZM12 11.393C12 13.0499 10.6569 14.393 9 14.393C7.34315 14.393 6 13.0499 6 11.393C6 9.73617 7.34315 8.39302 9 8.39302C10.6569 8.39302 12 9.73617 12 11.393Z" stroke="black" stroke-width="0.1" stroke-linejoin="round"/>
</svg>
