<svg width="20" height="20" viewBox="0 0 20 20" fill="none" xmlns="http://www.w3.org/2000/svg">
<path d="M1 7.5C3.20914 7.5 5 9.29086 5 11.5M1 11.5009V3.5M1 11.5009C1 13.7101 2.79086 15.5 5 15.5H15C17.2091 15.5 19 13.7091 19 11.5M1 11.5009L19 11.5M19 11.5V8.5M12 0.5V8.5M16 4.5L8 4.5M1 19.5C1 18.7044 1.31607 17.9413 1.87868 17.3787C2.44129 16.8161 3.20435 16.5 4 16.5C4.79565 16.5 5.55871 16.8161 6.12132 17.3787C6.68393 17.9413 7 18.7044 7 19.5M13 19.5C13 18.7044 13.3161 17.9413 13.8787 17.3787C14.4413 16.8161 15.2044 16.5 16 16.5C16.7956 16.5 17.5587 16.8161 18.1213 17.3787C18.6839 17.9413 19 18.7044 19 19.5" stroke="#4B3425" stroke-linejoin="round"/>
</svg>
