<svg width="20" height="20" viewBox="0 0 20 20" fill="none" xmlns="http://www.w3.org/2000/svg">
<path d="M0 1H8C9.10457 1 10 1.89543 10 3C10 4.10457 9.10457 5 8 5H3C1.89543 5 1 5.89543 1 7C1 8.10457 1.89543 9 3 9H11M12 9H17.5C18.3284 9 19 9.67157 19 10.5C19 11.3284 18.3284 12 17.5 12H14.5C13.6716 12 13 12.6716 13 13.5C13 14.3284 13.6716 15 14.5 15H20M4 13H8.5C9.32843 13 10 13.6716 10 14.5C10 15.3284 9.32843 16 8.5 16H6.5C5.67157 16 5 16.6716 5 17.5C5 18.3284 5.67157 19 6.5 19H11" stroke="#4F3422" stroke-width="2"/>
</svg>
