<svg width="20" height="20" viewBox="0 0 20 20" fill="none" xmlns="http://www.w3.org/2000/svg">
<path fill-rule="evenodd" clip-rule="evenodd" d="M0 10C0 4.47715 4.47715 0 10 0C15.5228 0 20 4.47715 20 10C20 15.5228 15.5228 20 10 20C4.47715 20 0 15.5228 0 10ZM6.49999 9C7.32841 9 7.99999 8.32843 7.99999 7.5C7.99999 6.67157 7.32841 6 6.49999 6C5.67156 6 4.99999 6.67157 4.99999 7.5C4.99999 8.32843 5.67156 9 6.49999 9ZM13.5 9C14.3284 9 15 8.32843 15 7.5C15 6.67157 14.3284 6 13.5 6C12.6716 6 12 6.67157 12 7.5C12 8.32843 12.6716 9 13.5 9ZM6.99998 15.1962C7.9121 15.7228 8.94676 16 9.99998 16C11.0532 16 12.0879 15.7228 13 15.1962C13.9121 14.6695 14.6695 13.9121 15.1961 13L13.4641 12C13.113 12.6081 12.6081 13.113 12 13.4641C11.3919 13.8152 10.7021 14 9.99998 14C9.29784 14 8.60806 13.8152 7.99999 13.4641C7.39191 13.113 6.88696 12.6081 6.53588 12L4.80383 13C5.33044 13.9121 6.08787 14.6695 6.99998 15.1962Z" fill="#E0A500"/>
</svg>
