<svg width="20" height="20" viewBox="0 0 20 20" fill="none" xmlns="http://www.w3.org/2000/svg">
<path fill-rule="evenodd" clip-rule="evenodd" d="M0 10C0 4.47715 4.47715 0 10 0C15.5228 0 20 4.47715 20 10C20 15.5228 15.5228 20 10 20C4.47715 20 0 15.5228 0 10ZM6.5 9C7.32843 9 8 8.32843 8 7.5C8 6.67157 7.32843 6 6.5 6C5.67157 6 5 6.67157 5 7.5C5 8.32843 5.67157 9 6.5 9ZM15 7.5C15 8.32843 14.3284 9 13.5 9C12.6716 9 12 8.32843 12 7.5C12 6.67157 12.6716 6 13.5 6C14.3284 6 15 6.67157 15 7.5ZM10 11C8.94678 11 7.91211 11.2772 7 11.8038C6.08788 12.3305 5.33046 13.0879 4.80385 14L6.5359 15C6.88697 14.3919 7.39192 13.887 8 13.5359C8.60808 13.1848 9.29785 13 10 13C10.7021 13 11.3919 13.1848 12 13.5359C12.6081 13.887 13.113 14.3919 13.4641 15L15.1962 14C14.6695 13.0879 13.9121 12.3305 13 11.8038C12.0879 11.2772 11.0532 11 10 11Z" fill="#DF4B01"/>
</svg>
