<svg width="24" height="24" viewBox="0 0 24 24" fill="none" xmlns="http://www.w3.org/2000/svg">
<path fill-rule="evenodd" clip-rule="evenodd" d="M12 1.5C6.47715 1.5 2 5.97715 2 11.5C2 17.0228 6.47715 21.5 12 21.5C17.5228 21.5 22 17.0228 22 11.5C22 5.97715 17.5228 1.5 12 1.5ZM10 9C10 9.82843 9.32843 10.5 8.5 10.5C7.67157 10.5 7 9.82843 7 9C7 8.17157 7.67157 7.5 8.5 7.5C9.32843 7.5 10 8.17157 10 9ZM9 13.3038C9.91211 12.7772 10.9468 12.5 12 12.5C13.0532 12.5 14.0879 12.7772 15 13.3038C15.9121 13.8305 16.6695 14.5879 17.1962 15.5L15.4641 16.5C15.113 15.8919 14.6081 15.387 14 15.0359C13.3919 14.6848 12.7021 14.5 12 14.5C11.2979 14.5 10.6081 14.6848 10 15.0359C9.39192 15.387 8.88697 15.8919 8.5359 16.5L6.80385 15.5C7.33046 14.5879 8.08788 13.8305 9 13.3038Z" fill="#5530E8"/>
<path d="M17 7L15 10" stroke="#E8DDD9"/>
<path d="M14.5 7.5L17.5 9.5" stroke="#E8DDD9"/>
</svg>
