<svg width="22" height="21" viewBox="0 0 22 21" fill="none" xmlns="http://www.w3.org/2000/svg">
<path d="M9.00874 2.16231C9.72357 0.612564 11.9261 0.612564 12.641 2.16231L14.0237 5.16013C14.3151 5.79174 14.9136 6.22663 15.6044 6.30853L18.8828 6.69723C20.5775 6.89818 21.2582 8.99295 20.0052 10.1517L17.5814 12.3931C17.0707 12.8654 16.8421 13.5691 16.9776 14.2513L17.621 17.4893C17.9536 19.1633 16.1717 20.4579 14.6825 19.6243L11.8017 18.0118C11.1948 17.6721 10.4549 17.6721 9.84797 18.0118L6.96722 19.6243C5.47799 20.4579 3.69607 19.1633 4.02868 17.4893L4.67208 14.2513C4.80764 13.5691 4.579 12.8654 4.06833 12.3931L1.64453 10.1517C0.391531 8.99295 1.07216 6.89818 2.76695 6.69723L6.04535 6.30853C6.73607 6.22663 7.33464 5.79174 7.62598 5.16013L9.00874 2.16231Z" fill="#9AB166" stroke="#4F3422" stroke-linejoin="round"/>
</svg>
