<svg width="18" height="20" viewBox="0 0 18 20" fill="none" xmlns="http://www.w3.org/2000/svg">
<path d="M14.0325 19.5V15.2963C14.0325 13.9955 14.7297 12.8218 15.5277 11.7947C15.836 11.398 16.1018 10.9676 16.3196 10.5105C16.8365 9.42534 17.0653 8.22538 16.9839 7.02617C16.9026 5.82696 16.5138 4.66891 15.855 3.66354C15.1963 2.65817 14.2898 1.83937 13.2228 1.28599C12.1557 0.732617 10.9642 0.463312 9.76295 0.504016C8.56167 0.544719 7.39112 0.894061 6.36402 1.51839C5.33692 2.14273 4.48789 3.02101 3.89869 4.06867C3.3095 5.11632 3 6.29803 3 7.5L1 11.5H3V14.5H6V19.5M10.2941 12.2059L13.5 9C14.3284 8.17157 14.3284 6.82843 13.5 6C12.6716 5.17157 11.3284 5.17157 10.5 6L10 6.5L9.5 6C8.67157 5.17157 7.32843 5.17157 6.5 6C5.67157 6.82843 5.67157 8.17157 6.5 9L9.70588 12.2059C9.86832 12.3683 10.1317 12.3683 10.2941 12.2059Z" stroke="#4B3425" stroke-linejoin="round"/>
</svg>
