<svg width="21" height="19" viewBox="0 0 21 19" fill="none" xmlns="http://www.w3.org/2000/svg">
<path fill-rule="evenodd" clip-rule="evenodd" d="M7.75 2.93689V0.875H5.75V3.45652C2.81817 4.64329 0.75 7.51762 0.75 10.875C0.75 15.2933 4.33172 18.875 8.75 18.875H12.75C17.1683 18.875 20.75 15.2933 20.75 10.875C20.75 7.51762 18.6818 4.64329 15.75 3.45652V0.875H13.75V2.93689C13.4224 2.89604 13.0887 2.875 12.75 2.875H8.75C8.41134 2.875 8.07759 2.89604 7.75 2.93689ZM17.2222 6.875C16.1236 5.6475 14.527 4.875 12.75 4.875H8.75C6.973 4.875 5.37643 5.6475 4.27779 6.875H17.2222ZM3.09141 8.875H18.4086C18.6297 9.50056 18.75 10.1737 18.75 10.875C18.75 14.1887 16.0637 16.875 12.75 16.875H8.75C5.43629 16.875 2.75 14.1887 2.75 10.875C2.75 10.1737 2.87031 9.50056 3.09141 8.875Z" fill="#926247"/>
</svg>
