<svg width="409" height="444" viewBox="0 0 409 444" fill="none" xmlns="http://www.w3.org/2000/svg">
<path d="M223.826 258.877C226.761 252.281 236.334 244.656 236.948 237.447C237.561 230.239 236.071 222.635 231.603 216.982C229.456 214.265 226.739 212.096 223.87 210.168C213.333 203.113 200.627 199.366 187.966 199.585C195.238 192.705 202.599 185.737 208.185 177.411C213.771 169.084 217.517 159.158 216.75 149.145C216.794 149.737 236.269 154.294 238.415 155.039C245.82 157.559 253.049 160.736 259.533 165.162C273.794 174.869 291.735 195.882 296.357 212.469C308.405 255.634 273.772 295.184 237.298 284.863L223.826 258.877Z" fill="#191E10"/>
<path d="M258.81 264.268C265.864 259.776 273.312 255.832 279.73 250.442C289.194 242.51 296.445 237.01 296.182 230.809C295.809 221.388 288.537 215.997 281.943 211.747C306.083 203.289 327.727 183.021 345.843 164.922C347.552 163.213 361.068 186.483 362.207 188.477C366.281 195.576 368.581 203.596 369.173 211.747C370.312 227.523 365.537 246.323 354.934 258.352C328.953 287.779 291.122 317.074 251.91 317.337L258.81 264.268Z" fill="#6D4B36"/>
<path d="M26.7806 293.431C23.188 282.826 13.7903 275.048 3.58208 270.446C2.48677 269.964 1.34766 269.46 0.602849 268.518C-0.141958 267.576 -0.273395 266.042 0.646661 265.275C0.975253 264.99 1.41337 264.859 1.82959 264.771C4.58976 264.202 7.30611 265.692 9.95675 266.656C13.0674 267.795 17.3391 267.905 18.4125 264.114C18.763 262.887 18.6535 261.572 18.2153 260.367C15.959 254.166 13.2427 247.418 12.1912 240.669C11.7531 237.886 14.7104 235.717 17.142 237.119C17.602 237.382 17.9963 237.689 18.2811 238.018C19.5516 239.486 20.0774 241.436 20.5593 243.298L20.5155 235.87C20.5155 235.103 20.7126 234.337 21.2165 233.745C22.8375 231.773 25.5539 233.635 26.2768 235.717C26.934 237.623 26.8025 239.814 27.7883 241.567C27.1749 239.069 27.7883 236.396 29.2122 234.271C30.7237 232.014 34.1411 232.649 34.8202 235.279C36.2441 240.866 38.5223 246.234 41.5234 251.142C45.7513 258.045 51.3812 263.982 55.7405 270.797C57.011 272.791 58.2159 275.113 57.6025 277.392C57.252 278.729 56.2881 279.824 55.3024 280.81C49.3439 286.726 40.7786 289.925 32.4105 289.378L26.7806 293.431Z" fill="#FEAF8F"/>
<path d="M212.763 367.295C245.009 352.22 276.006 334.494 305.317 314.335C290.092 275.421 250.289 248.645 208.952 242.532C207.572 242.335 208.842 239.421 207.55 239.968C206.454 240.45 205.622 241.371 204.833 242.291C173.091 279.19 141.284 316.088 109.498 353.009L212.763 367.295Z" fill="#9BB068"/>
<path d="M152.872 341.878C140.67 338.942 134.361 323.757 136.705 311.115C139.071 298.472 147.702 288.108 156.596 279.036C164.307 271.192 172.456 263.808 180.89 256.775C185.6 252.852 190.441 249.018 195.939 246.345C214.691 237.252 237.232 243.628 255.217 254.233C263.673 259.207 271.822 265.298 277.058 273.734C282.293 282.17 284.177 293.366 279.796 302.306C278.285 305.396 276.094 308.113 273.903 310.742C267.748 318.126 261.307 325.291 254.604 332.149C244.9 342.119 234.144 351.782 220.978 355.748C203.3 361.072 184.461 355.31 166.892 349.547C161.963 347.947 157.823 343.521 152.872 341.878Z" fill="#926247"/>
<path d="M123.54 344.353C129.717 339.818 136.158 336.115 142.795 333.288C129.038 326.715 115.938 318.761 103.781 309.252C85.6204 295.053 69.8261 278.751 55.5652 260.63C41.4358 265.78 28.9274 275.355 20.2526 287.669C32.301 313.086 49.1248 331.382 64.2181 347.224C77.6685 361.357 91.8636 372.772 108.074 383.706C106.409 368.96 111.557 353.49 123.54 344.353Z" fill="#9BB068"/>
<path d="M123.825 393.719C144 405.836 165.337 415.916 187.528 423.409C176.224 412.388 169.017 398.167 170.309 381.778C171.405 369.705 176.553 357.193 186.126 349.02C175.874 346.325 165.819 343.017 156.005 339.051C154.734 339.861 153.485 340.738 152.259 341.658C135.785 354.17 120.298 373.451 123.825 393.719Z" fill="#9BB068"/>
<path d="M123.54 344.353C111.557 353.49 106.409 368.981 108.074 383.706C113.244 387.19 118.48 390.52 123.825 393.719C120.298 373.43 135.807 354.169 152.259 341.658C153.485 340.716 154.734 339.861 156.005 339.051C151.558 337.254 147.133 335.348 142.795 333.266C136.158 336.093 129.717 339.796 123.54 344.353Z" fill="#191E10"/>
<path d="M194.998 405.835C189.587 388.986 189.061 363.503 204.57 353.205C198.371 352.021 192.194 350.619 186.104 349.02C176.531 357.192 171.383 369.704 170.287 381.777C168.995 398.167 176.202 412.387 187.506 423.408C195.436 426.082 203.497 428.448 211.624 430.442C204.242 423.934 198.393 415.761 194.998 405.835Z" fill="#191E10"/>
<path d="M346.193 357.368C312.217 361.663 280.475 359.976 247.506 358.31C233.136 357.587 218.744 355.922 204.592 353.205C189.083 363.503 189.609 388.986 195.019 405.836C198.415 415.762 204.242 423.935 211.646 430.42C220.825 432.677 230.135 434.496 239.533 435.789C269.938 440.039 300.782 439.207 331.451 438.352C324.813 436.205 320.257 429.697 318.789 422.861C317.321 416.025 318.46 408.904 320.169 402.133C324.484 385.13 332.743 368.631 346.193 357.368Z" fill="#9BB068"/>
<path d="M325.426 437.761C313.816 433.093 311.648 411.27 320.585 389.03C329.523 366.79 346.172 352.548 357.782 357.215C369.392 361.882 371.561 383.705 362.623 405.945C353.685 428.185 337.015 442.428 325.426 437.761Z" fill="#191E10"/>
<path d="M279.358 209.269C273.421 200.329 283.476 183.173 301.856 170.946C320.213 158.698 339.928 156.025 345.865 164.965C351.801 173.904 341.747 191.061 323.367 203.287C304.988 215.514 285.295 218.209 279.358 209.269Z" fill="#6D4B36"/>
<path d="M177.188 198.928C170.835 193.494 174.822 178.375 186.104 165.141C197.385 151.928 211.69 145.618 218.043 151.052C224.396 156.486 220.409 171.605 209.127 184.839C197.867 198.074 183.563 204.362 177.188 198.928Z" fill="#191E10"/>
<path d="M171.295 196.189C176.114 195.992 180.912 195.795 185.731 195.598C187.615 195.532 189.521 195.444 191.252 194.699C192.763 194.042 194.034 192.924 195.238 191.785C203.015 184.335 208.733 174.738 211.624 164.352C212.194 162.271 212.632 159.926 211.537 158.086C210.485 156.289 208.316 155.544 206.345 154.908C195.085 151.359 182.862 147.787 171.689 151.644L171.295 196.189Z" fill="#FEAF8F"/>
<path d="M278.197 194.086C282.096 197.044 285.974 200.023 289.873 202.982C291.954 204.559 294.123 206.181 296.751 206.728C309.063 209.292 328.274 198.512 336.051 190.383C338.57 187.753 340.629 184.642 341.177 181.18C342.119 175.308 338.592 169.698 335.197 164.615C333.466 162.029 331.1 159.115 327.77 159.269L278.197 194.086Z" fill="#FEAF8F"/>
<path d="M192.785 125.196C203.409 129.469 204.987 150.482 196.312 172.108C187.615 193.735 177.407 206.093 154.778 201.776C143.518 199.629 149.126 178.244 157.801 156.617C166.498 134.969 182.161 120.902 192.785 125.196Z" fill="#191E10"/>
<path d="M187.528 170.093C199.384 170.093 208.996 159.39 208.996 146.188C208.996 132.985 199.384 122.283 187.528 122.283C175.671 122.283 166.06 132.985 166.06 146.188C166.06 159.39 175.671 170.093 187.528 170.093Z" fill="#9BB068"/>
<path d="M207.966 146.188C207.813 155.128 203.212 164.046 194.691 167.639C186.257 171.189 176.772 167.836 171.558 160.54C166.191 153.046 165.6 142.617 169.915 134.509C174.077 126.687 182.686 121.779 191.558 123.751C201.854 126.008 207.791 136.218 207.966 146.188C207.988 147.481 210.003 147.481 209.959 146.188C209.784 136.394 204.68 126.709 195.348 122.853C186.323 119.106 176.18 122.502 170.353 130.127C164.132 138.278 163.387 149.891 168.184 158.897C172.697 167.354 182.073 172.657 191.668 170.663C203.037 168.319 209.762 157.231 209.959 146.188C210.003 144.895 207.988 144.895 207.966 146.188Z" fill="#191E10"/>
<path d="M189.775 170.331C198.46 148.702 196.881 127.706 186.248 123.435C175.616 119.163 159.957 133.235 151.272 154.864C142.588 176.493 144.167 197.489 154.799 201.76C165.431 206.031 181.091 191.96 189.775 170.331Z" fill="#B4C48D"/>
<path d="M185.731 124.298C197.67 129.513 194.8 149.211 192.391 159.005C188.951 172.941 181.679 188.126 169.959 197C166.279 199.782 161.437 202.346 156.684 201.294C151.426 200.133 148.776 194.984 147.593 190.163C144.066 175.636 149.499 158.83 156.465 146.165C160.167 139.439 164.899 132.865 171.076 128.198C175.304 124.999 180.693 122.457 185.994 124.408C187.199 124.846 187.725 122.918 186.52 122.479C174.844 118.163 163.628 131.31 158.042 139.724C148.973 153.33 142.532 171.714 145.183 188.213C146.037 193.494 148.206 199.366 153.157 202.105C157.188 204.318 161.876 203.683 165.906 201.82C179.466 195.575 187.966 179.361 192.478 165.929C195.458 157.055 197.276 147.261 195.983 137.883C195.151 131.835 192.719 125.218 186.739 122.589C185.578 122.063 184.548 123.794 185.731 124.298Z" fill="#191E10"/>
<path d="M146.957 188.475C154.822 191.149 162.686 193.8 170.55 196.473C171.777 196.889 172.303 194.961 171.076 194.545C163.212 191.872 155.348 189.22 147.483 186.547C146.256 186.131 145.731 188.081 146.957 188.475Z" fill="#191E10"/>
<path d="M147.439 171.669C158.721 175.372 169.871 179.469 180.89 183.917C182.095 184.4 182.599 182.471 181.416 181.989C170.397 177.519 159.247 173.444 147.965 169.741C146.738 169.346 146.213 171.275 147.439 171.669Z" fill="#191E10"/>
<path d="M151.996 156.442C164.526 160.145 176.859 164.396 189.017 169.194C190.222 169.676 190.748 167.726 189.543 167.266C177.407 162.468 165.052 158.217 152.522 154.514C151.295 154.141 150.769 156.07 151.996 156.442Z" fill="#191E10"/>
<path d="M158.217 141.806C170.309 144.128 181.963 148.072 192.982 153.572C194.143 154.142 195.151 152.411 193.99 151.841C182.818 146.275 171.01 142.244 158.743 139.877C157.494 139.614 156.969 141.565 158.217 141.806Z" fill="#191E10"/>
<path d="M168.141 130.828C177.297 133.26 186.169 136.546 194.691 140.71C195.852 141.279 196.86 139.548 195.699 138.979C187.024 134.75 177.998 131.375 168.666 128.899C167.418 128.571 166.892 130.499 168.141 130.828Z" fill="#191E10"/>
<path d="M331.407 126.664C340.323 135.801 332.524 157.888 313.97 176.03C295.437 194.151 279.489 202.17 258.372 187.599C247.879 180.347 263.147 161.087 281.702 142.966C300.256 124.824 322.513 117.527 331.407 126.664Z" fill="#191E10"/>
<path d="M338.518 155.288C344.411 141.819 339.385 126.609 327.294 121.316C315.202 116.023 300.622 122.652 294.729 136.121C288.836 149.591 293.861 164.8 305.953 170.093C318.045 175.386 332.625 168.758 338.518 155.288Z" fill="#9BB068"/>
<path d="M337.628 154.82C333.554 163.716 325.164 170.728 315.065 170.881C304.725 171.035 296.313 163.541 293.969 153.703C291.56 143.536 295.656 132.361 303.783 125.875C311.472 119.74 322.469 118.491 330.684 124.385C340.41 131.353 341.922 144.631 337.541 155.061C337.037 156.244 338.986 156.77 339.468 155.587C343.718 145.464 342.645 132.997 334.561 125.021C326.872 117.461 315.109 116.673 305.952 121.975C296.182 127.628 290.333 139.176 291.428 150.416C292.458 161.065 299.796 170.574 310.596 172.525C322.907 174.76 334.364 166.74 339.359 155.828C339.884 154.667 338.154 153.659 337.628 154.82Z" fill="#191E10"/>
<path d="M325.536 121.953C334.452 131.09 326.653 153.176 308.099 171.319C289.566 189.44 267.31 196.736 258.394 187.599C249.478 178.462 257.277 156.375 275.831 138.233C294.364 120.112 316.62 112.816 325.536 121.953Z" fill="#B4C48D"/>
<path d="M324.813 122.654C334.014 132.558 323.805 150.087 317.65 158.698C308.011 172.173 293.553 184.86 277.299 189.33C272.019 190.776 265.448 191.543 260.672 188.234C255.853 184.904 255.174 178.659 256.006 173.291C258.46 157.493 270.683 143.25 282.622 133.456C289.654 127.693 297.759 122.632 306.609 120.2C312.611 118.556 319.994 117.943 324.813 122.654C325.733 123.552 327.157 122.128 326.237 121.229C315.875 111.15 297.693 120.441 288.077 126.905C273.312 136.83 258.657 152.585 254.538 170.442C253.268 175.898 253.071 182.274 256.576 186.985C259.84 191.389 265.382 192.792 270.639 192.485C278.482 192.047 286.083 188.629 292.721 184.619C301.352 179.382 309.085 172.502 315.525 164.745C321.615 157.405 327.026 148.86 329.304 139.504C330.815 133.281 330.859 126.203 326.259 121.251C325.361 120.287 323.937 121.712 324.813 122.654Z" fill="#191E10"/>
<path d="M256.335 170.398C263.147 176.643 269.96 182.888 276.795 189.154C277.737 190.031 279.161 188.606 278.219 187.73C271.406 181.485 264.593 175.241 257.759 168.974C256.817 168.119 255.393 169.522 256.335 170.398Z" fill="#191E10"/>
<path d="M264.374 153.506C274.21 162.358 283.739 171.517 292.962 181.005C293.86 181.925 295.284 180.522 294.386 179.58C285.163 170.093 275.634 160.912 265.798 152.06C264.834 151.227 263.41 152.629 264.374 153.506Z" fill="#191E10"/>
<path d="M275.853 140.03C286.959 149.43 297.628 159.312 307.836 169.654C308.734 170.574 310.158 169.15 309.26 168.23C299.052 157.887 288.383 148.006 277.277 138.606C276.291 137.795 274.867 139.197 275.853 140.03Z" fill="#191E10"/>
<path d="M288.953 128.066C300.234 135.867 310.333 145.157 319.096 155.718C319.928 156.704 321.33 155.28 320.519 154.294C311.648 143.601 301.395 134.245 289.982 126.335C288.909 125.612 287.901 127.343 288.953 128.066Z" fill="#191E10"/>
<path d="M303.761 121.187C312.086 127.826 319.709 135.232 326.587 143.383C327.42 144.369 328.822 142.945 328.011 141.959C321.133 133.83 313.51 126.424 305.185 119.763C304.178 118.974 302.754 120.376 303.761 121.187Z" fill="#191E10"/>
<path d="M258.679 300.158C246.367 318.914 223.454 328.139 213.311 348.626C212.895 349.459 213.793 350.598 214.691 350.006C222.731 344.66 230.595 339.007 238.481 333.442C245.71 328.358 252.786 323.078 259.139 316.899C260.059 316 258.657 314.576 257.715 315.474C251.187 321.807 243.892 327.175 236.466 332.412C228.886 337.736 221.372 343.148 213.683 348.275C214.143 348.736 214.603 349.196 215.064 349.656C225.162 329.235 248.12 319.944 260.431 301.188C261.11 300.093 259.38 299.085 258.679 300.158Z" fill="#191E10"/>
<path d="M137.757 326.057C141.218 306.381 157.407 291.832 172.631 278.904C184.745 268.606 196.881 258.329 208.996 248.031C212.522 245.029 216.619 241.852 221.219 242.378C224.549 242.75 227.857 245.073 230.989 243.868C232.435 243.32 233.508 242.093 234.516 240.91C237.627 237.272 240.759 233.635 243.87 229.998C246.477 226.952 249.478 223.183 254.013 218.253C254.013 218.253 258.591 221.452 263.717 224.586C255.086 231.334 247.988 240.077 243.169 249.915C239.511 245.774 233.092 244.35 228.032 246.541C225.359 247.702 223.169 249.696 221.022 251.646C200.54 270.337 180.058 289.027 159.575 307.717C156.027 310.96 152.456 314.225 149.74 318.191C146.037 323.603 144.132 330.242 144.394 336.793C141.415 334.142 139.137 330.702 137.845 326.911L137.757 326.057Z" fill="#191E10"/>
<path d="M182.358 352.767C181.679 344.922 185.14 337.166 190.134 331.075C195.107 324.983 201.526 320.25 207.813 315.496C224.768 302.699 241.285 289.246 256.422 274.324C259.708 271.081 264.725 267.269 268.974 265.472C272.217 264.092 277.715 273.426 277.693 273.404C277.671 273.404 277.715 273.426 277.715 273.426C284.725 267.357 295.941 258.263 302.929 252.216C305.185 256.006 308.931 260.805 313.247 261.725C302.294 266.677 288.471 275.486 281.22 285.083C280.694 281.928 280.147 278.685 277.978 276.187C277.058 275.135 275.875 274.324 274.517 274.018C270.946 273.163 268.471 275.792 266.28 278.159C256.926 288.238 246.17 296.893 235.436 305.504C224.396 314.356 213.355 323.23 202.292 332.082C199.926 333.989 197.517 335.917 195.72 338.349C192.062 343.279 191.252 349.699 190.551 355.812C187.462 355.812 184.373 355.155 181.569 353.884L182.358 352.767Z" fill="#191E10"/>
<path d="M169.981 279.825C172.369 281.775 175.676 286.114 178.064 288.064C178.634 288.546 179.357 289.028 180.058 288.809C180.43 288.699 180.693 288.414 180.956 288.13C185.381 283.484 189.784 278.817 194.209 274.172C191.558 272.134 188.908 270.097 186.235 268.059C185.578 267.555 184.833 267.029 184.001 267.073C183.19 267.117 182.533 267.708 181.963 268.256C177.933 272.069 173.924 275.925 169.981 279.825Z" fill="#926247"/>
<path d="M169.28 280.526C171.47 282.432 173.267 284.689 175.26 286.771C176.443 287.998 178.327 290.32 180.32 289.794C182.511 289.203 184.614 285.763 186.082 284.207C189.017 281.096 191.974 278.006 194.91 274.895C195.392 274.391 195.217 273.712 194.713 273.317C192.084 271.301 189.499 269.044 186.739 267.204C185.425 266.327 184.285 265.758 182.752 266.415C180.43 267.401 178.393 270.25 176.596 271.959C174.121 274.325 171.668 276.713 169.236 279.124C168.316 280.022 169.74 281.446 170.66 280.548C174.165 277.086 177.692 273.668 181.262 270.293C182.139 269.461 183.628 268.058 185.03 268.453C185.819 268.672 187.111 270.009 187.703 270.469C189.696 272.002 191.69 273.514 193.683 275.048C193.617 274.522 193.552 273.996 193.486 273.47C191.427 275.64 189.368 277.809 187.308 279.978C185.49 281.884 183.344 285.105 181.131 286.486C180.474 287.735 179.488 287.866 178.196 286.858C177.998 286.661 177.801 286.486 177.604 286.289C176.662 285.544 175.852 284.47 175.041 283.593C173.639 282.06 172.259 280.482 170.682 279.102C169.718 278.269 168.294 279.693 169.28 280.526Z" fill="#191E10"/>
<path d="M217.254 306.317C219.686 308.201 223.103 312.452 225.535 314.358C226.126 314.818 226.849 315.3 227.55 315.059C227.922 314.928 228.185 314.643 228.448 314.358C232.742 309.603 237.057 304.827 241.351 300.072C238.656 298.1 235.94 296.128 233.246 294.156C232.567 293.674 231.822 293.148 230.989 293.236C230.179 293.301 229.543 293.893 228.974 294.463C225.009 298.363 221.088 302.307 217.254 306.317Z" fill="#926247"/>
<path d="M216.531 307.04C218.766 308.881 220.628 311.094 222.665 313.131C223.87 314.315 225.819 316.615 227.791 316.046C229.982 315.432 231.997 311.904 233.421 310.327C236.291 307.15 239.16 303.973 242.03 300.795C242.49 300.27 242.359 299.612 241.833 299.218C239.138 297.268 236.532 295.077 233.728 293.302C232.391 292.447 231.274 291.899 229.719 292.601C227.44 293.609 225.425 296.545 223.716 298.298C221.307 300.73 218.919 303.184 216.553 305.638C215.655 306.558 217.079 307.982 217.977 307.062C221.394 303.512 224.834 300.007 228.317 296.545C229.171 295.712 230.639 294.222 232.041 294.573C232.829 294.77 234.166 296.084 234.757 296.523C236.794 297.991 238.81 299.481 240.847 300.949C240.781 300.423 240.716 299.897 240.65 299.371C238.634 301.584 236.641 303.819 234.626 306.032C232.851 307.982 230.792 311.247 228.602 312.693C227.966 313.942 227.002 314.117 225.666 313.175C225.469 313 225.272 312.803 225.053 312.627C224.089 311.926 223.256 310.853 222.424 309.976C220.978 308.464 219.554 306.931 217.933 305.594C216.969 304.805 215.545 306.207 216.531 307.04Z" fill="#191E10"/>
<path d="M173.661 276.823C175.917 280.242 178.743 283.156 182.095 285.522C183.146 286.267 184.154 284.536 183.103 283.791C180.036 281.622 177.451 278.927 175.392 275.794C174.691 274.742 172.96 275.728 173.661 276.823Z" fill="#191E10"/>
<path d="M177.823 283.988C179.335 282.257 180.868 280.526 182.38 278.773C183.234 277.809 181.81 276.385 180.956 277.349C179.444 279.08 177.911 280.811 176.399 282.564C175.545 283.55 176.969 284.974 177.823 283.988Z" fill="#191E10"/>
<path d="M220.233 304.212C222.84 307.148 225.798 309.668 229.105 311.771C230.201 312.473 231.208 310.742 230.113 310.04C226.937 308.025 224.133 305.592 221.635 302.788C220.781 301.824 219.379 303.248 220.233 304.212Z" fill="#191E10"/>
<path d="M223.695 310.04C226.148 308.068 228.601 306.118 231.033 304.146C232.041 303.335 230.617 301.933 229.609 302.722C227.156 304.694 224.702 306.644 222.271 308.616C221.285 309.426 222.709 310.829 223.695 310.04Z" fill="#191E10"/>
<path d="M211.296 269.898C217.451 271.607 223.366 274.039 228.886 277.282C232.479 279.408 236.291 284.031 240.54 281.358C245.162 278.444 249.828 274.894 253.925 271.279C256.86 268.671 258.722 265.341 256.444 261.638C251.647 253.881 239.182 250.2 230.617 251.493C226.236 252.15 221.767 255.196 218.218 257.759C214.406 260.498 212.281 264.399 210.617 268.671C210.135 269.876 212.084 270.402 212.544 269.197C214.187 265.012 216.312 261.441 220.124 258.899C223.059 256.949 226.608 254.429 230.069 253.618C234.45 252.588 239.533 253.509 243.695 255.021C247.55 256.423 253.071 259.14 254.998 263.04C257.408 267.948 249.522 272.33 246.367 274.719C244.768 275.924 243.169 277.085 241.526 278.246C240.036 279.298 238.7 280.591 236.553 279.934C235.611 279.649 234.582 278.531 233.771 277.984C227.068 273.426 219.642 270.095 211.843 267.948C210.573 267.619 210.047 269.548 211.296 269.898Z" fill="#191E10"/>
<path d="M219.204 270.534C219.576 268.847 219.949 267.138 220.321 265.451C219.708 265.538 219.094 265.604 218.481 265.692C218.985 266.721 219.664 267.62 220.496 268.409C220.562 267.883 220.628 267.357 220.693 266.831C219.927 267.379 219.16 267.927 218.393 268.496C217.364 269.241 218.349 270.972 219.401 270.227C220.168 269.679 220.934 269.132 221.701 268.562C222.205 268.211 222.402 267.466 221.898 266.984C221.175 266.305 220.628 265.56 220.19 264.684C219.817 263.917 218.547 264.092 218.349 264.925C217.977 266.612 217.605 268.321 217.232 270.008C216.991 271.257 218.919 271.783 219.204 270.534Z" fill="#191E10"/>
<path d="M79.9029 252.852C79.9029 225.09 79.9029 197.328 79.9029 169.567C79.9029 168.274 77.9095 168.274 77.9095 169.567C77.9095 197.328 77.9095 225.09 77.9095 252.852C77.8876 254.144 79.9029 254.144 79.9029 252.852Z" fill="#B4C48D"/>
<path d="M116.28 84.2544C116.28 56.4928 116.28 28.7312 116.28 0.969574C116.28 -0.323191 114.287 -0.323191 114.287 0.969574C114.287 28.7312 114.287 56.4928 114.287 84.2544C114.265 85.5471 116.28 85.5471 116.28 84.2544Z" fill="#B4C48D"/>
<path d="M408.144 342.886C408.144 326.277 408.144 309.668 408.144 293.037C408.144 291.745 406.15 291.745 406.15 293.037C406.15 309.646 406.15 326.255 406.15 342.886C406.128 344.178 408.144 344.178 408.144 342.886Z" fill="#B4C48D"/>
<path d="M408.144 276.648C408.144 264.356 408.144 252.064 408.144 239.771C408.144 238.479 406.15 238.479 406.15 239.771C406.15 252.064 406.15 264.356 406.15 276.648C406.128 277.941 408.144 277.941 408.144 276.648Z" fill="#B4C48D"/>
<path d="M235.547 111.146C235.547 98.8533 235.547 86.5611 235.547 74.2689C235.547 72.9761 233.554 72.9761 233.554 74.2689C233.554 86.5611 233.554 98.8533 233.554 111.146C233.532 112.438 235.547 112.438 235.547 111.146Z" fill="#B4C48D"/>
<path d="M377.176 316.444C377.176 305.291 377.176 294.138 377.176 282.985C377.176 281.692 375.183 281.692 375.183 282.985C375.183 294.138 375.183 305.291 375.183 316.444C375.161 317.736 377.176 317.736 377.176 316.444Z" fill="#B4C48D"/>
<path d="M377.432 157.866C377.432 149.671 377.432 66.9349 377.432 58.7401C377.432 57.4473 375.438 57.4473 375.438 58.7401C375.438 66.9349 375.438 149.671 375.438 157.866C375.438 159.159 377.432 159.159 377.432 157.866Z" fill="#B4C48D"/>
<path d="M323.871 414.36C329.742 423.409 348.735 429.763 357.869 440.982C359.184 442.603 361.374 443.414 363.434 442.844C365.953 442.143 366.347 439.799 366.15 437.761C365.405 430.333 358.57 424.658 357.65 417.186C357.585 416.682 357.607 416.157 357.716 415.674C358.395 412.651 361.659 412.519 364.31 412.607C372.349 412.914 380.389 412.804 388.406 412.234C393.357 411.884 398.593 411.248 402.47 408.203C403.193 407.633 403.894 406.91 403.522 405.771C403.171 404.719 402.142 403.996 401.024 403.864C392.437 402.922 383.894 401.476 375.482 399.57C374.08 399.241 373.028 397.97 373.182 396.568C373.335 395.1 374.496 394.771 375.548 394.508C384.617 392.317 395.329 391.134 399.776 382.676C400.477 381.339 400.411 379.696 399.36 378.601C398.242 377.439 396.731 377.768 395.373 378.119C391.189 379.17 387.004 380.244 382.82 381.296C388.144 379.455 392.853 375.949 396.052 371.414C397.169 369.814 397.257 367.645 396.03 366.111C394.694 364.446 392.853 364.796 391.21 365.169C386.435 366.265 381.725 367.579 377.081 369.113C380.082 367.733 383.302 366.089 385.822 363.964C388.45 361.729 386.128 357.544 382.777 358.464L346.763 368.39C342.031 369.705 337.672 372.049 333.992 375.27C329.238 379.411 326.697 382.413 324.178 388.044C320.366 396.524 319.731 407.984 323.871 414.36Z" fill="#FEAF8F"/>
<path d="M112.85 361.29C106.212 360.019 99.6841 361.86 94.2076 365.716C91.3379 367.732 88.8187 370.186 86.6938 372.991C84.4813 375.905 82.7726 379.236 80.2534 381.931C72.8053 389.906 63.5829 383.202 56.5072 378.491C53.4842 376.475 50.2421 374.59 46.6057 373.933C42.4654 373.188 34.6449 375.839 32.8267 370.449C32.4105 369.222 30.4828 369.748 30.899 370.975C31.841 373.802 34.2287 375.335 37.1422 375.752C39.2671 376.059 41.392 375.642 43.5388 375.664C46.3428 375.708 48.8182 376.409 51.3155 377.68C58.4569 381.295 64.8315 388.614 73.5721 387.65C81.0639 386.839 84.1965 379.608 88.2053 374.284C93.7695 366.9 102.839 361.378 112.324 363.197C113.573 363.46 114.12 361.531 112.85 361.29Z" fill="#191E10"/>
<path d="M26.693 365.322C27.4378 368.302 29.5627 370.537 32.4543 371.567C33.0239 371.764 33.7687 371.217 33.7249 370.603C33.462 367.645 33.1991 364.687 32.9362 361.729C32.8267 360.436 31.0742 360.458 30.9428 361.729C30.6799 364.139 30.5266 366.549 30.4389 368.982C31.0961 368.894 31.7533 368.806 32.4105 368.719C31.9724 365.892 30.8113 363.416 29.0589 361.181C28.5769 360.568 27.5692 360.962 27.394 361.619C26.7587 364.008 27.1092 366.374 28.4674 368.434C28.9712 369.179 30.4389 369.003 30.3294 367.93C30.0446 364.906 28.0731 362.452 25.0939 361.663C24.2176 361.422 23.5604 362.364 23.9547 363.131C25.3129 365.739 27.153 367.996 29.4313 369.858C30.417 370.669 31.8409 369.245 30.8552 368.434C28.6865 366.681 26.9778 364.599 25.7072 362.123C25.3348 362.605 24.9624 363.109 24.5681 363.591C26.6054 364.139 28.1169 365.783 28.3141 367.908C28.9274 367.733 29.5627 367.579 30.1761 367.404C29.1027 365.783 28.796 364.008 29.2998 362.145C28.7522 362.299 28.1826 362.43 27.635 362.583C29.1903 364.534 30.0884 366.79 30.4828 369.245C30.658 370.406 32.4105 370.055 32.4543 368.982C32.52 366.549 32.6953 364.139 32.9581 361.729C32.301 361.729 31.6219 361.729 30.9647 361.729C31.2276 364.687 31.4904 367.645 31.7533 370.603C32.1695 370.274 32.6076 369.968 33.0239 369.639C30.7894 368.85 29.2341 367.097 28.6645 364.797C28.3141 363.526 26.3863 364.052 26.693 365.322Z" fill="#191E10"/>
<path d="M18.2592 238.63C19.7707 243.933 21.7642 249.038 24.2614 253.968C24.8529 255.107 26.5835 254.1 25.992 252.96C23.5605 248.183 21.6327 243.253 20.1869 238.104C19.8364 236.855 17.9087 237.381 18.2592 238.63Z" fill="#191E10"/>
<path d="M26.6711 236.398C27.4159 242.007 28.9712 247.331 31.4247 252.415C31.9943 253.576 33.703 252.568 33.1553 251.407C30.8552 246.652 29.3436 241.634 28.6646 236.398C28.5112 235.149 26.4958 235.127 26.6711 236.398Z" fill="#191E10"/>
<path d="M14.1408 238.215C15.1704 240.099 16.66 241.633 18.5001 242.729C19.6173 243.386 20.625 241.655 19.5078 240.998C17.9525 240.078 16.7257 238.807 15.8495 237.207C15.258 236.068 13.5274 237.076 14.1408 238.215Z" fill="#191E10"/>
<path d="M21.545 234.773C20.7564 237.03 22.7718 239.682 25.1596 239.462C26.4301 239.353 26.452 237.337 25.1596 237.447C23.9985 237.556 23.0785 236.395 23.4728 235.299C23.9109 234.094 21.9832 233.568 21.545 234.773Z" fill="#191E10"/>
<path d="M29.5189 234.27C29.8256 237.381 31.0085 241.72 34.8202 241.786C36.1126 241.807 36.1126 239.792 34.8202 239.77C32.3448 239.726 31.7095 236.176 31.5124 234.27C31.3809 232.999 29.3875 232.977 29.5189 234.27Z" fill="#191E10"/>
<path d="M2.24581 269.46C3.97639 269.197 5.59744 269.92 6.73656 271.213C7.5909 272.199 8.99289 270.775 8.16046 269.789C6.5394 267.904 4.15164 267.159 1.72006 267.51C0.44951 267.707 0.975256 269.657 2.24581 269.46Z" fill="#191E10"/>
<path d="M352.349 435.11C355.854 435.987 358.57 438.945 358.987 442.582C359.118 443.853 361.133 443.875 360.98 442.582C360.476 438.068 357.322 434.278 352.875 433.182C351.626 432.853 351.1 434.782 352.349 435.11Z" fill="#191E10"/>
<path d="M392.328 405.858C395.088 407.786 398.768 407.808 401.55 405.924C402.602 405.201 401.616 403.47 400.542 404.193C398.286 405.727 395.57 405.683 393.357 404.127C392.284 403.382 391.276 405.113 392.328 405.858Z" fill="#191E10"/>
<path d="M362.382 385.526C371.583 384.277 380.674 382.414 389.633 379.916C390.882 379.566 390.356 377.638 389.107 377.988C380.148 380.464 371.057 382.349 361.856 383.597C360.586 383.751 361.133 385.679 362.382 385.526Z" fill="#191E10"/>
<path d="M360.082 372.728C367.661 372.443 375 370.931 382.076 368.214C383.259 367.754 382.755 365.804 381.55 366.286C374.649 368.959 367.486 370.449 360.082 370.734C358.789 370.756 358.789 372.772 360.082 372.728Z" fill="#191E10"/>
<path d="M375.569 362.803C378.702 364.03 382.054 363.394 384.682 361.356C385.69 360.568 384.266 359.165 383.259 359.932C381.177 361.554 378.505 361.795 376.095 360.852C374.89 360.392 374.365 362.342 375.569 362.803Z" fill="#191E10"/>
<path d="M385.427 369.113C388.363 370.691 392.065 370.077 394.233 367.513C395.066 366.527 393.642 365.103 392.81 366.089C391.232 367.974 388.626 368.565 386.435 367.382C385.296 366.768 384.288 368.499 385.427 369.113Z" fill="#191E10"/>
<path d="M389.042 381.097C392.459 383.354 397.125 381.667 398.615 377.986C399.097 376.781 397.169 376.277 396.687 377.46C395.657 380.023 392.262 380.856 390.049 379.388C388.954 378.665 387.968 380.396 389.042 381.097Z" fill="#191E10"/>
<path d="M24.3271 262.537C25.4663 261.857 26.6054 261.156 27.7226 260.477C28.8179 259.82 27.8102 258.067 26.7149 258.746C25.5758 259.425 24.4367 260.126 23.3195 260.806C22.2023 261.485 23.2099 263.216 24.3271 262.537Z" fill="#9BB068"/>
<path d="M31.7752 259.031C32.6953 258.571 33.5934 258.132 34.5135 257.672C35.6745 257.102 34.6668 255.371 33.5058 255.941C32.5858 256.401 31.6876 256.84 30.7675 257.3C29.6065 257.869 30.6142 259.6 31.7752 259.031Z" fill="#9BB068"/>
<path d="M38.3909 256.489C39.289 256.27 40.2091 256.029 41.1291 255.81C42.3778 255.503 41.852 253.553 40.6034 253.882C39.7052 254.101 38.7852 254.342 37.8651 254.561C36.6165 254.868 37.1422 256.796 38.3909 256.489Z" fill="#9BB068"/>
<path d="M346.741 395.45C346.61 393.653 347.026 392.032 347.99 390.498C348.691 389.403 346.96 388.395 346.259 389.49C345.12 391.265 344.594 393.325 344.748 395.45C344.835 396.721 346.829 396.743 346.741 395.45Z" fill="#9BB068"/>
<path d="M350.093 382.041C350.531 380.901 350.991 379.762 351.429 378.623C351.889 377.417 349.961 376.892 349.501 378.097C349.063 379.236 348.603 380.375 348.165 381.515C347.683 382.72 349.611 383.246 350.093 382.041Z" fill="#9BB068"/>
<path d="M354.759 371.348C355.547 370.275 356.073 369.048 356.292 367.733C356.38 367.185 356.161 366.659 355.591 366.506C355.109 366.374 354.452 366.681 354.364 367.207C354.167 368.39 353.751 369.398 353.028 370.362C352.7 370.801 352.962 371.48 353.379 371.743C353.904 372.028 354.452 371.787 354.759 371.348Z" fill="#9BB068"/>
<path d="M124.307 188.039C124.307 180.983 124.307 149.081 124.307 142.025C124.307 140.732 122.313 140.732 122.313 142.025C122.313 149.081 122.313 180.983 122.313 188.039C122.313 189.332 124.307 189.332 124.307 188.039Z" fill="#B4C48D"/>
<path d="M323.477 343.017C323.477 337.1 323.477 331.184 323.477 325.268C323.477 323.976 321.483 323.976 321.483 325.268C321.483 331.184 321.483 337.1 321.483 343.017C321.483 344.309 323.477 344.309 323.477 343.017Z" fill="#B4C48D"/>
<path d="M42.9809 217.497C42.9809 211.58 42.9809 205.664 42.9809 199.748C42.9809 198.456 40.9874 198.456 40.9874 199.748C40.9874 205.664 40.9874 211.58 40.9874 217.497C40.9874 218.789 42.9809 218.789 42.9809 217.497Z" fill="#B4C48D"/>
<path d="M124.81 334.779C123.408 340.082 115.697 341.484 109.717 340.849C99.7279 339.775 89.1254 334.955 86.5405 326.19C86.1242 324.788 85.949 323.254 86.6062 321.917C87.2634 320.581 88.9939 319.595 90.5055 320.033C91.7979 320.427 92.7399 321.72 94.12 321.654C96.1134 321.523 96.3544 318.937 95.7629 317.228C93.638 310.962 89.0158 305.681 85.7299 299.853C82.444 294.024 80.582 286.75 84.1527 280.943C85.5766 278.621 88.1834 276.561 91.0969 276.692C94.0542 276.824 96.3325 279.059 97.7345 281.403C99.1365 283.748 100.035 286.377 101.962 288.371C103.89 290.365 107.417 291.526 109.849 289.971C112.302 288.393 112.762 284.734 115.61 283.879C117.428 283.332 119.465 284.361 120.407 285.83C121.371 287.319 121.437 289.116 121.284 290.847C120.955 294.243 119.772 297.64 120.232 301.014C120.692 304.388 123.693 307.85 127.461 307.412C128.272 307.324 129.104 307.04 129.893 307.281C130.966 307.609 131.404 308.705 131.689 309.691C133.901 317.732 133.354 326.431 130.112 334.275L124.81 334.779Z" fill="#191E10"/>
<path d="M162.577 361.73L118.195 320.602C118.195 320.602 106.716 348.539 122.116 365.323L129.958 355.77L139.926 378.141C143.584 386.358 153.924 389.031 161.087 383.619C161.218 383.531 161.328 383.444 161.459 383.334C168.447 378.032 169.017 367.711 162.577 361.73Z" fill="#FEAF8F"/>
<path d="M143.387 331.886C143.102 335.392 140.035 338.021 136.53 337.736C133.025 337.452 130.396 334.384 130.681 330.856C130.966 327.35 134.033 324.721 137.538 325.006C141.043 325.291 143.672 328.38 143.387 331.886Z" fill="#FEAF8F"/>
<path d="M136.596 334.56C137.538 332.412 138.48 330.265 139.444 328.14C139.969 326.978 138.261 325.949 137.713 327.132C136.727 329.257 135.785 331.405 134.865 333.552C134.34 334.713 136.07 335.743 136.596 334.56Z" fill="#191E10"/>
<path d="M129.958 355.769L139.378 376.87L135.26 348.319L129.958 355.769Z" fill="#191E10"/>
<path d="M117.472 351.804C117.472 351.804 123.671 346.37 127.855 341.111C127.855 341.111 126.519 355.309 120.648 359.494L117.472 351.804Z" fill="white"/>
<path d="M113.923 335.393C112.85 339.447 112.039 343.741 111.754 347.904C111.711 348.671 112.631 349.131 113.266 348.781C114.668 347.97 116.092 347.137 117.494 346.327C118.611 345.669 117.603 343.938 116.486 344.596C115.084 345.406 113.66 346.239 112.258 347.05C112.762 347.335 113.266 347.619 113.77 347.926C114.033 343.938 114.843 339.819 115.851 335.941C116.179 334.67 114.252 334.144 113.923 335.393Z" fill="#191E10"/>
<path d="M116.311 337.868C115.15 340.739 110.418 341.55 105.708 339.665C101.02 337.781 98.1507 333.902 99.2898 331.032C100.451 328.162 105.183 327.351 109.892 329.235C114.602 331.142 117.472 334.998 116.311 337.868Z" fill="#191E10"/>
<path d="M113.726 336.838C113.025 338.569 109.805 338.919 106.563 337.604C103.299 336.29 101.218 333.814 101.919 332.083C102.62 330.352 105.84 330.001 109.082 331.316C112.346 332.609 114.427 335.085 113.726 336.838Z" fill="white"/>
<path d="M116.311 337.868C117.472 340.739 122.204 341.55 126.913 339.665C131.601 337.781 134.471 333.902 133.332 331.032C132.171 328.162 127.439 327.351 122.729 329.235C118.041 331.142 115.172 334.998 116.311 337.868Z" fill="#191E10"/>
<path d="M118.918 336.838C119.619 338.569 122.839 338.919 126.081 337.604C129.345 336.29 131.426 333.814 130.725 332.083C130.024 330.352 126.804 330.001 123.562 331.316C120.298 332.609 118.217 335.085 118.918 336.838Z" fill="white"/>
</svg>
