<svg width="460" height="511" viewBox="0 0 460 511" fill="none" xmlns="http://www.w3.org/2000/svg">
<path d="M258.665 39.2095C264.342 29.0132 257.236 14.9159 246.229 11.2081C235.223 7.539 222.633 12.7144 215.064 21.5204C210.738 26.5027 207.378 32.8368 201.392 35.5404C197.569 37.2398 193.205 37.1625 188.995 36.9694C175.015 36.2356 160.958 34.3431 147.055 35.9266C133.113 37.5101 118.901 43.1876 110.714 54.6199C103.685 64.4301 101.6 77.6004 92.9105 85.9815C77.5787 100.774 50.5065 93.088 33.205 105.524C26.9873 109.966 22.5847 116.918 21.1172 124.45C17.989 140.71 28.2618 158.09 22.4689 173.616C17.8345 186.13 3.66124 194.318 2.3868 207.604C1.61442 215.792 6.40321 223.864 13.2002 228.499C19.9972 233.095 28.4549 234.64 36.6422 234.563C56.3766 234.331 75.7635 224.675 87.9673 209.072C93.7215 201.695 97.8924 193.198 103.608 185.821C109.324 178.405 117.202 171.917 126.471 171.106C130.062 170.797 133.693 171.337 137.323 171.453C152.268 171.878 167.214 163.922 175.324 151.254C183.589 138.315 185.636 120.433 198.573 112.206C208.344 106.027 222.208 107.147 230.164 98.7269C238.544 89.8437 236.072 75.0127 242.406 64.5459C245.496 59.4091 250.748 55.6627 256.541 54.311L258.665 39.2095Z" fill="#4B3425"/>
<path d="M259.09 26.772C262.527 13.9493 252.293 1.55147 239.548 0.161054C231.979 -0.688643 224.293 1.89907 218.114 6.14755C211.433 10.705 207.185 18.0047 200.388 22.369C191.544 28.0466 180.422 25.3816 170.922 23.3346C162.966 21.6352 155.049 20.0131 146.9 21.0173C133.268 22.678 120.369 30.0936 112.336 41.2555C101.832 55.8548 103.84 76.8655 86.9631 86.9074C70.1637 96.872 49.3865 93.3573 31.7375 100.927C19.4565 106.18 9.10654 117.496 10.883 131.632C11.8485 139.395 15.7877 146.348 18.3752 153.609C21.5806 162.685 20.8082 170.487 14.9767 178.211C6.17147 189.798 -6.14809 201.192 3.54536 216.486C13.3161 231.858 32.9733 231.201 47.6873 224.095C49.7341 223.091 47.9576 220.039 45.9108 221.044C37.6849 225.022 28.1073 227.185 19.1476 224.327C11.1147 221.777 4.16327 214.478 3.46812 205.826C2.38678 192.386 17.178 184.429 22.044 173.229C27.2576 161.333 20.2289 150.133 16.367 139.009C13.6636 131.246 13.0843 123.444 17.7959 116.299C22.4688 109.154 30.2699 104.674 38.2641 102.241C53.2098 97.6831 69.4299 98.7645 83.9122 92.3532C96.5407 86.7529 102.527 76.711 106.466 63.9656C111.177 48.671 117.55 36.1187 132.611 28.819C138.868 25.8064 145.819 24.1071 152.77 24.1457C161.537 24.1843 169.995 27.0424 178.607 28.4328C185.558 29.5528 192.819 29.9004 199.384 26.8879C205.795 23.9912 209.85 18.3523 214.755 13.5631C221.513 6.88138 231.206 2.01494 240.9 3.90744C250.825 5.83857 258.433 15.7646 255.73 25.8451C255.112 28.0079 258.51 28.9349 259.09 26.772Z" fill="#4B3425"/>
<path d="M289.522 165.042C330.535 161.798 368.962 145.731 399.625 117.111C375.295 92.2769 346.717 74.1629 318.139 72.7725C280.33 70.9572 222.749 98.6882 189.15 127.385C185.558 130.475 181.928 133.564 178.337 136.731C209.734 159.905 249.937 168.093 289.522 165.042Z" fill="#FEAF8F"/>
<mask id="mask0_672_11027" style="mask-type:luminance" maskUnits="userSpaceOnUse" x="178" y="72" width="222" height="94">
<path d="M289.522 165.042C330.535 161.798 368.962 145.731 399.625 117.112C375.295 92.2774 346.717 74.1634 318.139 72.773C280.33 70.9577 222.749 98.6887 189.15 127.385C185.558 130.475 181.928 133.565 178.337 136.732C209.734 159.906 249.937 168.094 289.522 165.042Z" fill="white"/>
</mask>
<g mask="url(#mask0_672_11027)">
<path d="M213.133 163.382C230.55 125.918 253.451 91.2738 281.141 60.6075C284.192 57.2473 279.21 52.2264 276.159 55.6252C248.083 86.755 224.757 121.824 207.031 159.868C205.1 163.923 211.202 167.515 213.133 163.382Z" fill="#4B3425"/>
</g>
<mask id="mask1_672_11027" style="mask-type:luminance" maskUnits="userSpaceOnUse" x="178" y="72" width="222" height="94">
<path d="M289.522 165.042C330.535 161.798 368.962 145.731 399.625 117.112C375.295 92.2774 346.717 74.1634 318.139 72.773C280.33 70.9577 222.749 98.6887 189.15 127.385C185.558 130.475 181.928 133.565 178.337 136.732C209.734 159.906 249.937 168.094 289.522 165.042Z" fill="white"/>
</mask>
<g mask="url(#mask1_672_11027)">
<path d="M316.825 175.934C339.263 116.185 378.153 63.3877 428.319 23.9154C431.872 21.096 426.852 16.1523 423.338 18.9331C372.167 59.1778 332.891 113.172 309.99 174.08C308.406 178.329 315.242 180.182 316.825 175.934Z" fill="#4B3425"/>
</g>
<path d="M426.427 149.476C418.356 138.043 409.319 127.036 399.587 117.11C368.962 145.729 330.497 161.796 289.483 165.04C249.898 168.092 209.695 159.904 178.298 136.73C149.488 161.989 121.141 190.107 100.171 221.391C69.5458 267.043 49.0776 316.827 92.254 340.619C106.929 348.691 176.406 281.294 200.234 272.798C222.131 264.996 210.506 332.624 228.194 318.72L320.224 337.915C330.188 350.004 362.126 324.204 372.63 307.712C370.352 301.224 369.811 295.276 371.163 295.314C377.69 295.43 377.072 300.722 372.63 307.712C376.222 318.063 384.139 329.804 395.454 321.192C408.662 311.15 451.182 340.812 454.426 324.281C465.162 269.746 457.632 193.66 426.427 149.476Z" fill="#FE814B"/>
<path d="M371.163 295.353C369.811 295.315 370.352 301.262 372.63 307.751C377.072 300.76 377.69 295.43 371.163 295.353Z" fill="#FE814B"/>
<path d="M422.256 255.495C452.186 285.814 463.54 323.162 447.591 338.881C431.679 354.601 394.489 342.744 364.598 312.386C334.668 282.068 323.313 244.72 339.263 229C355.174 213.319 392.326 225.177 422.256 255.495Z" fill="#4B3425"/>
<path d="M297.13 90.4219L234.605 24.4932C234.605 24.4932 212.437 65.6648 233.485 93.9752L247.118 80.5345C247.118 80.5345 252.524 97.374 257.854 113.904C262.836 129.392 281.798 135.031 294.426 124.796C294.581 124.642 294.774 124.526 294.928 124.371C305.356 115.797 306.398 100.232 297.13 90.4219Z" fill="#FEAF8F"/>
<path d="M271.602 45.8902C270.598 51.2588 265.462 54.7734 260.094 53.8079C254.726 52.8037 251.211 47.6669 252.177 42.2983C253.181 36.9298 258.317 33.4152 263.685 34.3807C269.053 35.3849 272.606 40.5217 271.602 45.8902Z" fill="#FEAF8F"/>
<path d="M260.982 48.8634C262.758 45.735 264.574 42.5679 266.427 39.4395C267.586 37.4697 264.535 35.6931 263.376 37.6629C261.523 40.7913 259.746 43.9197 257.931 47.0868C256.811 49.0951 259.862 50.8718 260.982 48.8634Z" fill="#4B3425"/>
<path d="M247.079 80.4967L258.201 114.485L256.425 69.8755L247.079 80.4967Z" fill="#4B3425"/>
<path d="M225.375 46.6244C223.135 52.5337 221.204 58.9064 220.123 65.1247C219.852 66.7082 221.281 67.751 222.71 67.133C225.027 66.0902 227.306 65.086 229.623 64.0432C231.708 63.1163 229.893 60.0651 227.846 60.992C225.529 62.0349 223.251 63.039 220.934 64.0818C221.783 64.7384 222.672 65.395 223.521 66.0902C224.602 59.8334 226.533 53.4993 228.773 47.59C229.584 45.4658 226.186 44.5388 225.375 46.6244Z" fill="#4B3425"/>
<path d="M168.257 329.265C130.564 350.546 89.8982 349.89 77.4241 327.759C64.9501 305.667 85.3797 270.481 123.034 249.2C160.726 227.919 201.392 228.576 213.866 250.707C226.34 272.837 205.911 307.984 168.257 329.265Z" fill="#4B3425"/>
<path d="M366.335 217.683C390.086 222.742 411.713 233.904 428.011 252.134C429.517 253.834 432.027 251.323 430.521 249.624C413.837 231.008 391.592 219.459 367.301 214.284C365.061 213.821 364.134 217.219 366.335 217.683Z" fill="#4B3425"/>
<path d="M241.749 429.142L217.999 440.227C217.999 440.227 257.159 348.228 250.4 308.601C250.246 307.79 250.13 306.94 249.975 306.129C247.658 292.495 244.839 279.364 241.672 267.7C241.672 267.661 241.634 267.584 241.634 267.545C234.064 238.926 223.212 211.04 207.61 192.424C222.247 195.514 241.093 203.432 259.012 224.211C288.865 258.817 303.463 327.642 305.047 379.126C306.862 436.519 283.034 446.329 241.749 429.142Z" fill="#926247"/>
<path d="M110.83 353.095C106.196 367.192 135.546 387.005 176.367 397.433C217.226 407.823 253.258 411.801 257.892 397.704C262.527 383.606 234.026 356.802 193.166 346.413C152.346 335.985 115.464 338.997 110.83 353.095Z" fill="#4B3425"/>
<path d="M120.871 364.642C122.184 371.246 109.71 424.198 111.216 431.999L246.886 454.439L238.66 377.348C237.192 372.405 227.074 365.646 212.708 361.668C148.059 343.901 118.477 351.973 120.871 364.642Z" fill="#FEAF8F"/>
<path d="M257.892 397.665C257.622 396.583 248.315 359.66 184.284 345.717C130.333 333.976 114.499 348.421 110.675 353.635C109.903 354.716 109.594 355.373 109.594 355.373C109.594 355.373 109.594 355.334 109.594 355.296C110.057 353.326 121.373 304.855 132.225 267.816C132.264 267.7 132.302 267.545 132.341 267.429C135.43 256.847 138.52 247.23 141.301 239.93C141.571 239.158 141.841 238.462 142.073 237.883C142.266 237.381 142.459 236.917 142.652 236.415C142.807 236.029 142.961 235.682 143.116 235.295C143.386 234.677 143.656 234.059 143.927 233.441C144.158 232.901 144.429 232.399 144.66 231.858C144.854 231.472 145.047 231.085 145.24 230.699C145.433 230.313 145.626 229.927 145.819 229.541C147.402 226.374 149.218 223.129 151.264 219.962C151.496 219.576 151.766 219.19 152.037 218.803C152.191 218.533 152.384 218.301 152.539 218.031C152.77 217.683 153.002 217.336 153.234 217.027C153.427 216.718 153.659 216.448 153.852 216.139C154.277 215.559 154.701 214.98 155.165 214.362C155.59 213.783 156.053 213.203 156.517 212.624C156.903 212.122 157.328 211.62 157.752 211.118C157.868 210.963 158.023 210.809 158.139 210.654C158.563 210.191 158.95 209.727 159.374 209.264C160.842 207.642 162.387 206.097 164.009 204.629C164.24 204.436 164.472 204.243 164.704 204.011C165.051 203.702 165.399 203.432 165.747 203.123C166.171 202.736 166.635 202.389 167.06 202.041C167.33 201.81 167.639 201.578 167.948 201.346C168.218 201.114 168.489 200.921 168.798 200.728C170.226 199.685 171.733 198.681 173.277 197.754C173.548 197.6 173.818 197.445 174.127 197.291C175.17 196.711 176.251 196.132 177.371 195.63C177.68 195.475 177.95 195.36 178.259 195.205C178.298 195.205 178.336 195.166 178.375 195.166C178.684 195.012 178.993 194.896 179.302 194.78C181.503 193.853 183.82 193.081 186.215 192.54C186.524 192.463 186.833 192.386 187.18 192.308C187.451 192.231 187.721 192.193 187.991 192.154C188.107 192.115 188.223 192.115 188.378 192.077C188.648 192.038 188.918 191.961 189.189 191.922C189.343 191.884 189.536 191.845 189.691 191.845C189.845 191.806 190.038 191.768 190.193 191.768C190.579 191.729 190.965 191.652 191.351 191.613C191.737 191.575 192.124 191.536 192.51 191.497C193.552 191.381 194.634 191.343 195.715 191.304C196.024 191.304 196.372 191.304 196.719 191.304C196.874 191.304 197.028 191.304 197.183 191.304C197.646 191.304 198.11 191.304 198.534 191.343C199.152 191.343 199.809 191.381 200.465 191.459C202.821 191.613 205.216 191.961 207.687 192.502C223.251 211.118 234.141 239.003 241.711 267.622C241.711 267.661 241.749 267.738 241.749 267.777C244.955 279.441 247.735 292.534 250.053 306.206C250.207 307.017 250.323 307.867 250.477 308.678C257.274 348.305 258.51 380.98 258.51 380.98C260.364 401.72 257.892 397.665 257.892 397.665Z" fill="#926247"/>
<path d="M200.388 190.068C170.226 188.446 149.642 213.705 140.026 239.66C131.028 263.915 124.231 289.212 117.588 314.201C113.997 327.642 110.328 341.276 108.32 355.064C108.088 356.725 110.637 357.459 110.869 355.759C114.499 330.848 122.261 306.206 129.367 282.106C135.662 260.748 140.992 237.304 153.736 218.688C164.549 202.852 180.615 191.652 200.388 192.733C202.087 192.81 202.087 190.184 200.388 190.068Z" fill="#4B3425"/>
<path d="M242.908 267.237C241.209 261.019 239.278 254.839 237.038 248.775C236.459 247.192 233.871 247.887 234.489 249.471C236.729 255.534 238.66 261.675 240.359 267.932C240.784 269.554 243.371 268.859 242.908 267.237Z" fill="#4B3425"/>
<path d="M240.359 267.932C247.465 293.075 252.254 318.836 254.61 344.868C255.459 354.331 256.039 363.793 256.309 373.294C256.541 381.328 255.884 389.67 256.579 397.665C256.734 399.365 259.36 399.365 259.244 397.665C258.549 389.67 259.244 381.328 258.974 373.294C258.665 363.214 258.047 353.172 257.12 343.13C254.648 317.446 249.937 292.071 242.908 267.237C242.445 265.576 239.896 266.271 240.359 267.932Z" fill="#4B3425"/>
<path d="M244.144 250.243C243.603 255.689 242.406 260.98 240.668 266.194C240.127 267.817 242.676 268.512 243.217 266.89C245.071 261.482 246.229 255.959 246.809 250.243C246.963 248.544 244.298 248.544 244.144 250.243Z" fill="#4B3425"/>
<path d="M252.022 354.33C251.791 349.773 251.288 345.293 250.555 340.812C250.284 339.152 247.736 339.847 248.006 341.508C248.701 345.756 249.126 350.043 249.358 354.33C249.435 356.03 252.099 356.068 252.022 354.33Z" fill="#FE814B"/>
<path d="M247.89 330.191C246.654 325.981 245.766 321.732 245.264 317.407C245.071 315.746 242.406 315.707 242.599 317.407C243.14 322.003 244.028 326.483 245.302 330.886C245.805 332.547 248.353 331.851 247.89 330.191Z" fill="#FE814B"/>
<path d="M242.754 307.944C242.715 304.198 242.097 300.567 240.823 297.014C240.243 295.43 237.694 296.125 238.274 297.709C239.471 301.03 240.089 304.391 240.127 307.905C240.127 309.643 242.792 309.643 242.754 307.944Z" fill="#FE814B"/>
<path d="M237.579 289.907C237.54 286.161 236.922 282.53 235.648 278.977C235.068 277.394 232.519 278.089 233.099 279.672C234.296 282.994 234.914 286.354 234.952 289.869C234.914 291.607 237.579 291.607 237.579 289.907Z" fill="#FE814B"/>
<path d="M233.524 270.172C232.017 266.542 230.511 262.911 229.044 259.281C228.387 257.736 225.838 258.392 226.495 259.976C228.001 263.606 229.507 267.237 230.975 270.867C231.593 272.412 234.18 271.717 233.524 270.172Z" fill="#FE814B"/>
<path d="M326.828 455.213L320.031 451.467C320.031 451.467 358.921 355.374 350.308 314.859C350.115 314.009 349.961 313.159 349.768 312.31C346.794 298.367 343.357 284.965 339.534 273.108C339.495 273.03 339.495 272.992 339.495 272.953C330.419 243.793 317.83 215.521 300.489 196.944C316.285 199.57 336.753 207.024 356.681 227.726C389.893 262.216 413.142 328.183 416.618 381.058C420.48 440.034 371.704 471.357 326.828 455.213Z" fill="#926247"/>
<path d="M202.126 365.803C197.608 380.48 229.777 399.791 273.919 408.945C318.061 418.098 356.874 420.84 361.392 406.202C365.911 391.526 334.397 365.031 290.255 355.877C246.075 346.685 206.645 351.127 202.126 365.803Z" fill="#4B3425"/>
<path d="M361.392 406.202C361.354 406.163 361.392 406.163 361.392 406.202C361.083 405.12 349.845 367.463 280.678 355.49C222.44 345.41 205.911 360.859 202.01 366.382C201.199 367.502 200.929 368.236 200.929 368.236C200.929 368.197 200.929 368.197 200.929 368.158C201.354 366.111 211.819 315.863 222.247 277.318C222.285 277.164 222.324 277.048 222.363 276.932C225.336 265.924 228.31 255.921 231.052 248.313C231.322 247.501 231.593 246.768 231.824 246.15C232.017 245.648 232.21 245.146 232.404 244.605C232.558 244.219 232.713 243.832 232.867 243.446C233.137 242.79 233.408 242.133 233.678 241.476C233.91 240.936 234.18 240.356 234.412 239.816C234.605 239.429 234.798 239.005 234.991 238.58C235.184 238.155 235.377 237.769 235.57 237.344C237.154 234.022 239.008 230.623 241.054 227.302C241.325 226.877 241.556 226.491 241.827 226.105C241.981 225.834 242.174 225.564 242.367 225.294C242.599 224.946 242.831 224.56 243.101 224.212C243.294 223.903 243.526 223.594 243.758 223.285C244.183 222.667 244.646 222.049 245.109 221.431C245.573 220.813 246.036 220.195 246.5 219.577C246.924 219.037 247.349 218.535 247.774 217.994C247.929 217.839 248.044 217.685 248.199 217.492C248.624 216.99 249.049 216.488 249.473 215.985C250.979 214.286 252.602 212.625 254.301 211.042C254.532 210.81 254.764 210.617 254.996 210.385C255.343 210.076 255.73 209.729 256.077 209.42C256.541 209.033 257.004 208.647 257.468 208.261C257.777 208.029 258.085 207.759 258.394 207.527C258.665 207.295 258.974 207.064 259.283 206.832C260.789 205.673 262.372 204.592 263.994 203.626C264.265 203.433 264.574 203.279 264.882 203.124C266.002 202.468 267.122 201.85 268.281 201.27C268.59 201.116 268.899 200.961 269.208 200.807C269.246 200.807 269.285 200.768 269.324 200.768C269.633 200.614 269.98 200.459 270.289 200.343C272.645 199.3 275.078 198.451 277.627 197.756C277.974 197.678 278.283 197.601 278.631 197.485C278.94 197.408 279.21 197.331 279.519 197.292C279.635 197.253 279.79 197.215 279.905 197.215C280.214 197.138 280.485 197.099 280.755 197.022C280.948 196.983 281.103 196.945 281.296 196.906C281.489 196.867 281.643 196.829 281.836 196.79C282.261 196.713 282.647 196.636 283.072 196.597C283.497 196.52 283.922 196.481 284.308 196.404C285.428 196.249 286.548 196.172 287.706 196.095C288.054 196.056 288.402 196.056 288.749 196.056C288.904 196.056 289.058 196.018 289.213 196.056C289.676 196.018 290.178 196.018 290.68 196.018C291.375 196.018 292.07 196.018 292.766 196.056C295.276 196.133 297.902 196.404 300.567 196.867C317.907 215.445 330.497 243.716 339.572 272.877C339.572 272.915 339.611 272.992 339.611 273.031C343.434 284.888 346.871 298.29 349.845 312.233C350.038 313.083 350.231 313.932 350.386 314.782C358.998 355.297 361.469 388.86 361.469 388.86C364.173 410.257 361.392 406.202 361.392 406.202Z" fill="#926247"/>
<path d="M292.688 194.821C261.291 194.241 239.703 219.81 229.932 247.347C220.934 272.761 214.484 299.372 208.151 325.558C204.752 339.617 201.276 353.83 199.539 368.236C199.345 369.935 201.972 369.897 202.203 368.236C205.331 341.702 213.133 315.362 220.161 289.639C226.263 267.315 231.4 243.022 244.955 223.788C256.232 207.837 272.722 197.061 292.688 197.447C294.426 197.524 294.426 194.859 292.688 194.821Z" fill="#4B3425"/>
<path d="M340.769 272.607C338.684 266.157 336.367 259.784 333.702 253.527C333.046 251.943 330.767 253.295 331.424 254.879C333.972 260.904 336.212 267.084 338.221 273.302C338.761 274.963 341.31 274.267 340.769 272.607Z" fill="#4B3425"/>
<path d="M338.221 273.34C346.678 298.87 352.703 325.172 356.14 351.86C357.376 361.554 358.303 371.287 358.959 381.02C359.5 389.324 359.075 397.975 360.079 406.202C360.272 407.863 362.937 407.901 362.744 406.202C361.701 397.743 362.165 388.86 361.585 380.363C360.929 370.244 359.925 360.164 358.612 350.16C355.136 323.82 349.188 297.904 340.847 272.684C340.267 271.023 337.68 271.718 338.221 273.34Z" fill="#4B3425"/>
<path d="M341.696 254.994C341.31 260.633 340.229 266.118 338.491 271.525C337.989 273.147 340.538 273.842 341.04 272.22C342.816 266.581 343.898 260.865 344.322 254.994C344.477 253.295 341.812 253.295 341.696 254.994Z" fill="#4B3425"/>
<path d="M353.475 361.902C353.05 357.229 352.394 352.633 351.467 348.036C351.119 346.376 348.571 347.071 348.918 348.732C349.806 353.096 350.424 357.46 350.849 361.863C351.004 363.563 353.63 363.601 353.475 361.902Z" fill="#FE814B"/>
<path d="M348.262 337.223C346.755 332.858 345.674 328.378 344.94 323.821C344.67 322.121 342.121 322.855 342.392 324.516C343.125 329.073 344.207 333.554 345.713 337.957C346.253 339.54 348.802 338.845 348.262 337.223Z" fill="#FE814B"/>
<path d="M342.005 314.512C341.812 310.65 341.04 306.942 339.572 303.35C338.916 301.805 336.367 302.462 337.023 304.045C338.414 307.405 339.186 310.843 339.379 314.473C339.418 316.211 342.083 316.211 342.005 314.512Z" fill="#FE814B"/>
<path d="M335.788 296.166C335.594 292.304 334.822 288.596 333.355 285.004C332.698 283.459 330.149 284.116 330.806 285.7C332.196 289.06 332.968 292.497 333.161 296.128C333.239 297.866 335.903 297.866 335.788 296.166Z" fill="#FE814B"/>
<path d="M330.69 275.657C328.952 271.988 327.214 268.281 325.515 264.611C324.781 263.067 322.503 264.418 323.236 265.963C324.974 269.632 326.712 273.34 328.411 277.009C329.106 278.554 331.385 277.202 330.69 275.657Z" fill="#FE814B"/>
<path d="M264.882 142.988C260.403 148.433 257.004 154.42 254.648 161.063C253.876 163.226 257.313 164.153 258.047 161.99C260.171 155.926 263.299 150.403 267.354 145.459C268.822 143.76 266.311 141.25 264.882 142.988Z" fill="#4B3425"/>
<path d="M176.097 137.272C175.672 141.829 174.05 145.112 178.298 147.7C182.005 149.979 186.099 150.326 190.231 149.361C189.497 148.627 188.764 147.893 188.069 147.198C184.747 161.488 203.594 168.826 210.545 155.811C209.464 155.347 208.382 154.884 207.301 154.459C205.061 165.775 217.883 172.882 226.07 164.501C225.066 164.076 224.062 163.651 223.058 163.265C223.135 173.191 235.377 175.161 239.007 166.084C237.926 166.239 236.845 166.355 235.763 166.509C239.007 174.156 249.744 174.736 254.417 168.247C253.412 168.247 252.37 168.247 251.366 168.247C257.043 177.362 271.062 177.401 276.777 168.324C275.85 168.44 274.923 168.556 273.997 168.672C281.411 176.396 294.117 176.242 301.3 168.247C300.374 168.131 299.447 168.015 298.52 167.899C304.853 177.825 319.374 175.392 321.421 163.535C320.456 163.805 319.452 164.037 318.486 164.308C328.025 172.92 344.515 166.355 345.751 153.648C344.747 154.073 343.743 154.497 342.739 154.884C353.166 163.033 370.236 157.047 372.514 143.683C371.665 144.031 370.777 144.378 369.927 144.726C380.007 149.94 393.214 141.52 392.056 130.011C391.322 130.59 390.55 131.131 389.816 131.71C397.656 134.375 405.38 127.153 403.758 119.196C403.294 116.956 399.896 117.922 400.359 120.123C401.479 125.646 395.879 130.049 390.781 128.311C389.777 127.964 388.426 128.891 388.542 130.011C389.391 138.662 379.62 145.807 371.703 141.675C370.777 141.211 369.309 141.559 369.116 142.718C367.34 153.107 353.823 159.016 345.249 152.335C344.013 151.369 342.391 151.987 342.237 153.57C341.31 163.226 328.18 168.208 320.996 161.758C320.108 160.947 318.293 161.141 318.061 162.531C316.594 171.105 306.475 173.693 301.609 166.046C301.03 165.119 299.64 164.81 298.829 165.698C292.92 172.264 282.647 172.496 276.545 166.123C275.734 165.273 274.344 165.543 273.765 166.47C269.478 173.307 258.703 173.229 254.455 166.393C253.721 165.196 252.177 165.312 251.404 166.393C248.044 171.028 240.938 169.56 238.853 164.655C238.196 163.072 236.111 163.844 235.609 165.08C232.597 164.462 229.623 163.805 226.611 163.188C226.611 161.681 224.68 160.832 223.598 161.952C218.23 167.436 209.155 163.303 210.738 155.347C211.124 153.493 208.498 152.103 207.494 153.995C202.551 163.265 189.073 158.476 191.467 148.125C191.776 146.773 190.617 145.653 189.304 145.962C186.331 146.618 181.812 146.927 179.958 143.953C178.684 141.906 179.418 139.666 179.65 137.272C179.843 135.032 176.328 135.032 176.097 137.272Z" fill="#4B3425"/>
<path d="M113.263 415.625C105.694 428.872 93.0264 438.953 78.6214 443.124C73.4464 444.63 67.9238 445.48 63.9846 449.767C62.0537 451.853 61.0496 454.788 61.5902 457.608C63.0578 464.907 72.8285 465.371 79.471 462.86C84.4143 461.006 91.3658 456.99 97.0042 456.796C98.7421 456.758 99.5144 459.037 98.1241 460.079C96.0387 461.663 92.2154 464.328 88.701 467.186C83.2943 471.589 87.1949 480.665 93.9533 479.352C100.634 478.039 110.946 470.778 119.094 465.564C120.639 464.56 122.261 466.684 120.948 467.997L114.421 474.524C110.598 478.966 114.653 485.763 120.253 484.373C123.845 483.446 127.205 481.978 128.827 480.395C132.882 476.494 136.01 471.087 141.301 469.426C145.858 471.203 136.666 478.309 137.516 483.253C138.288 487.926 144.815 489.008 148.754 486.574C152.693 484.141 158.911 479.661 162.155 476.301C172.544 465.487 189.922 467.147 203.285 460.659C213.982 455.445 221.745 444.823 225.066 433.159C228.426 421.457 227.653 408.827 224.409 397.086L113.263 415.625Z" fill="#FEAF8F"/>
<path d="M159.297 473.79C163.429 473.481 166.133 474.988 169.222 477.46C170.999 478.85 173.084 478.927 174.629 477.112C176.29 475.181 176.29 472.323 175.17 470.121C173.741 467.186 170.767 465.718 167.909 464.444C165.862 463.517 164.047 466.568 166.133 467.495C168.102 468.345 170.535 469.272 171.733 471.203C172.196 471.937 173.084 474.447 171.694 474.524C170.883 474.563 170.265 473.597 169.609 473.134C166.596 470.932 162.927 469.967 159.259 470.237C157.057 470.43 157.019 473.984 159.297 473.79Z" fill="#4B3425"/>
<path d="M340.036 386.002C338.298 380.981 327.214 374.376 311.65 370.862C241.749 354.949 210.313 364.373 213.287 377.312C214.175 381.058 211.201 402.764 208.653 422.693C206.258 441.58 193.359 457.608 175.247 463.479C175.131 463.517 175.015 463.556 174.861 463.594C169.106 465.41 162.889 466.568 158.602 471.319C156.517 473.675 155.474 476.842 156.208 479.893C158.139 487.734 169.145 487.849 176.56 484.875C182.083 482.674 189.729 478.039 196.101 477.653C198.032 477.537 198.998 479.97 197.492 481.168C195.213 482.983 191.004 485.995 187.142 489.201C181.233 494.145 185.944 503.801 193.514 502.101C200.967 500.44 212.36 492.175 221.358 486.189C223.058 485.069 224.911 487.309 223.482 488.776L216.376 496.076C212.206 501.02 217.033 508.242 223.289 506.465C227.306 505.345 231.013 503.607 232.79 501.831C237.192 497.466 240.552 491.519 246.461 489.472C251.636 491.21 241.595 499.243 242.676 504.534C243.719 509.517 251.095 510.482 255.459 507.701C259.823 504.921 266.659 499.822 270.173 496.076C281.489 483.987 301.107 485.107 315.937 477.537C327.793 471.473 336.135 459.732 339.495 446.987C341.542 439.146 340.036 386.002 340.036 386.002Z" fill="#FEAF8F"/>
<path d="M341.542 385.113C337.371 375.264 321.189 371.325 312.114 369.162C296.589 365.493 280.639 362.751 264.728 361.438C254.069 360.549 243.217 360.24 232.597 361.862C226.726 362.751 220.123 364.141 215.411 368.042C212.051 370.823 211.317 373.681 211.549 377.813C212.36 391.138 209.116 405.274 207.417 418.444C205.447 433.7 199.345 447.45 186.176 456.256C180.306 460.195 173.934 461.74 167.407 464.058C161.885 466.027 155.628 469.465 154.431 475.799C152.307 486.922 164.82 489.626 173.084 487.811C175.633 487.231 177.989 486.227 180.383 485.146C183.627 483.678 188.03 480.395 191.622 480.356C192.201 480.202 192.741 480.047 193.321 479.893C194.711 481.09 194.557 481.979 192.78 482.558C192.162 483.485 190.115 484.566 189.227 485.3C186.833 487.193 184.207 488.931 183.164 491.943C181.928 495.574 183.28 499.784 186.215 502.14C189.922 505.152 194.363 504.032 198.419 502.333C205.254 499.475 211.433 495.033 217.574 490.9C217.999 490.63 222.208 488.12 222.131 487.695C222.169 487.849 220.741 489.124 220.663 489.201C219.08 491.016 217.188 492.561 215.604 494.376C209.966 500.904 215.372 509.826 223.753 508.203C230.318 506.929 234.412 502.796 238.621 498.007C239.085 497.505 245.264 490.707 246.075 491.982C246.577 492.754 242.329 498.625 241.904 499.629C238.081 508.435 247.774 513.302 255.228 509.903C260.673 507.392 266.118 502.564 270.405 498.432C276.391 492.716 282.647 489.549 290.603 487.309C305.51 483.099 320.031 480.55 330.574 468.113C337.603 459.809 341.58 449.96 342.082 439.185C342.932 421.534 342.353 403.729 341.851 386.04C341.773 383.761 338.259 383.761 338.336 386.04C338.723 399.597 338.954 413.153 338.838 426.71C338.8 433.16 339.225 440.189 337.834 446.562C334.822 460.466 324.086 472.786 310.917 477.923C299.872 482.21 287.513 482.983 277.009 488.738C272.529 491.209 269.285 494.84 265.462 498.161C262.913 500.363 245.727 514.885 244.414 503.607C244.105 500.981 254.957 488.235 246.5 487.733C242.445 487.502 237.772 493.604 235.57 496.114C233.253 498.779 231.245 501.251 228.001 502.873C225.722 503.993 223.444 504.998 220.934 504.573C217.11 503.916 215.527 500.749 217.767 497.235C219.234 494.956 230.588 487.154 223.482 484.45C219.698 482.983 213.712 489.278 210.893 491.132C205.795 494.492 199.307 499.629 193.012 500.44C187.528 501.135 184.554 495.574 187.644 491.325C190.038 488.042 194.286 486.227 197.299 483.562C199.307 481.785 201.392 479.082 198.612 476.765C195.445 474.138 188.455 477.691 185.558 478.927C179.958 481.322 174.668 484.605 168.45 484.914C165.09 485.068 160.687 484.566 158.718 481.361C155.397 475.953 160.958 470.778 165.438 468.615C170.844 466.027 176.908 465.178 182.314 462.551C192.587 457.569 200.967 448.918 205.833 438.605C211.317 426.903 211.704 413.23 213.248 400.601C213.943 394.807 214.716 389.014 215.063 383.221C215.218 380.633 214.561 377.775 214.87 375.264C215.411 370.668 221.011 368.467 224.757 367.231C233.601 364.373 243.294 364.141 252.486 364.334C267.779 364.643 282.995 366.845 297.979 369.78C306.321 371.402 314.817 372.986 322.811 376.037C328.102 378.045 336.096 381.251 338.529 386.89C339.379 389.014 342.43 387.199 341.542 385.113Z" fill="#4B3425"/>
<path d="M285.042 325.943C282.84 323.278 280.176 320.999 277.086 318.991C275.928 318.257 278.283 316.326 279.442 317.099C282.686 319.223 285.428 321.656 287.745 324.475C288.556 325.441 285.853 326.909 285.042 325.943Z" fill="#FE814B"/>
<path d="M415.15 299.833C416.154 312.849 387.383 317.523 372.939 319.261C356.024 321.308 299.485 333.744 289.367 336.216C274.074 339.962 257.97 348.691 245.264 358.192C240.629 361.668 233.369 360.007 235.532 355.952C239.394 348.73 247.89 339.653 256.039 332.894C257.39 331.774 255.421 330.847 253.953 331.929C244.993 338.417 235.493 349.116 229.816 356.107C225.8 361.05 215.411 359.814 218.23 354.716C223.869 344.558 232.79 333.281 243.101 325.556C244.916 324.166 242.869 322.698 240.668 323.818C234.798 326.869 229.971 331.813 226.649 336.293C224.139 339.692 219.582 345.176 214.368 350.236C210.236 354.291 201.894 352.901 204.173 348.575C209.309 338.842 220.586 322.968 229.353 310.995C230.048 310.03 228.387 309.644 227.576 310.609C220.818 318.527 212.669 328.685 207.533 333.937C202.937 338.611 193.128 337.375 195.329 332.354C202.126 316.982 222.054 295.662 237.501 280.908C240.475 278.089 237.579 275.231 232.867 276.312C224.1 278.359 214.291 280.677 208.112 281.604C205.949 281.951 203.555 282.222 201.972 281.604C199.345 280.561 200.35 277.394 203.091 275.347C205.833 273.338 209.58 272.218 213.133 271.214C226.765 267.429 330.844 230.081 345.056 226.837C396.343 215.173 418.78 270.673 415.15 299.833Z" fill="#FEAF8F"/>
<path d="M236.883 356.03C238.737 356.03 241.325 355.219 242.715 353.597C244.221 351.82 243.14 350.275 241.634 349.696C240.282 349.155 242.097 346.992 243.487 347.533C246.036 348.498 247.388 351.125 245.187 354.021C243.024 356.841 238.892 358.309 235.686 358.309C233.948 358.347 235.184 356.068 236.883 356.03Z" fill="#4B3425"/>
<path d="M198.534 334.245C202.087 331.04 201.508 327.564 198.805 325.903C197.608 325.169 199.963 323.276 201.161 324.01C204.945 326.328 204.907 331.31 200.195 335.558C198.766 336.794 197.105 335.52 198.534 334.245Z" fill="#4B3425"/>
<path d="M206.142 273.3C208.073 274.652 213.905 273.763 215.45 270.674C216.183 269.206 218.771 269.36 218.037 270.828C215.565 275.733 206.992 277.432 203.787 275.192C202.705 274.42 205.061 272.527 206.142 273.3Z" fill="#4B3425"/>
<path d="M281.489 328.143C279.133 326.25 276.739 324.319 274.383 322.427C273.34 321.577 275.696 319.685 276.739 320.534C279.094 322.427 281.489 324.358 283.844 326.25C284.849 327.1 282.531 328.993 281.489 328.143Z" fill="#FE814B"/>
<path d="M267.856 314.046C266.041 311.613 264.226 309.18 262.411 306.785C261.638 305.742 264.342 304.275 265.114 305.279C266.929 307.712 268.744 310.145 270.559 312.54C271.332 313.583 268.628 315.089 267.856 314.046Z" fill="#FE814B"/>
<path d="M257.39 299.293C256.154 297.709 254.88 296.126 253.644 294.503C252.833 293.499 255.537 291.993 256.348 292.997C257.583 294.581 258.858 296.164 260.094 297.786C260.866 298.829 258.163 300.297 257.39 299.293Z" fill="#FE814B"/>
<path d="M248.122 286.625C247.04 285.389 245.998 284.153 244.916 282.917C244.067 281.951 246.77 280.445 247.62 281.411C248.701 282.647 249.744 283.883 250.825 285.119C251.636 286.123 248.933 287.59 248.122 286.625Z" fill="#FE814B"/>
<path d="M256.348 268.356C255.768 266.193 255.15 264.068 254.571 261.906C254.224 260.67 257.081 259.665 257.429 260.94C258.008 263.103 258.626 265.227 259.205 267.39C259.514 268.626 256.695 269.592 256.348 268.356Z" fill="#FE814B"/>
<path d="M217.419 334.168C219.891 331.735 222.71 329.726 225.838 327.988C226.997 327.332 225.182 325.362 223.985 325.98C220.663 327.795 217.767 329.996 215.179 332.546C214.291 333.434 216.531 335.056 217.419 334.168Z" fill="#FE814B"/>
<path d="M93.1422 295.43C90.0913 307.905 106.273 315.012 119.288 317.638C134.504 320.728 202.86 340.734 211.742 343.786C225.182 348.42 238.544 357.883 248.701 367.925C252.408 371.594 259.36 370.435 258.008 366.38C255.652 359.157 249.28 349.849 242.908 342.82C241.865 341.661 243.835 340.889 244.993 342.009C252.177 348.845 259.167 359.775 263.26 366.882C266.157 371.903 275.889 371.401 274.112 366.302C270.598 356.145 264.226 344.674 256 336.563C254.532 335.134 256.695 333.821 258.51 335.057C263.415 338.378 267.045 343.477 269.362 348.034C271.1 351.471 274.421 357.033 278.399 362.286C281.527 366.457 289.406 365.685 288.015 361.359C284.887 351.626 277.125 335.598 270.984 323.47C270.482 322.504 272.104 322.234 272.684 323.2C277.627 331.272 283.458 341.623 287.32 346.991C290.796 351.819 299.987 351.24 298.79 346.296C295.044 331.04 280.214 309.18 268.397 293.885C266.118 290.95 269.246 288.401 273.379 289.791C281.103 292.34 289.753 295.198 295.276 296.511C297.207 296.975 299.331 297.438 300.914 296.898C303.502 296.048 303.077 292.92 300.914 290.795C298.752 288.671 295.469 287.358 292.341 286.161C280.407 281.603 200.62 244.448 188.107 240.393C142.923 225.755 106.157 262.292 93.1422 295.43Z" fill="#FEAF8F"/>
<path d="M91.443 294.929C88.8555 308.563 103.492 315.322 114.421 318.257C123.845 320.806 133.422 322.892 142.884 325.479C165.013 331.543 187.219 337.723 209.077 344.713C216.415 347.069 223.289 350.545 229.739 354.755C234.18 357.652 238.428 360.896 242.406 364.411C244.955 366.651 247.349 369.818 250.516 371.131C253.915 372.56 259.63 372.02 259.978 367.385C260.171 364.874 258.008 361.476 256.888 359.313C254.726 355.18 252.061 351.279 249.203 347.571C248.431 346.606 245.534 342.28 245.225 343.709C244.878 345.331 247.658 347.301 248.74 348.614C252.099 352.631 255.112 356.995 257.892 361.437C260.982 366.303 263.183 372.097 269.864 372.135C285.158 372.213 266.002 345.756 262.72 341.508C261.87 340.426 258.819 337.954 258.587 336.68C258.896 338.457 264.651 343.632 265.578 345.022C268.32 349.155 270.405 353.712 273.147 357.884C276.082 362.325 281.064 369.625 287.513 366.033C292.959 362.982 287.398 354.369 285.737 350.507C283.96 346.297 282.029 342.126 280.06 337.954C278.785 335.289 277.511 332.663 276.236 330.037C275.348 328.26 272.568 324.707 272.838 322.737C272.413 323.316 271.988 323.857 271.525 324.437C272.104 324.359 277.704 335.058 278.399 336.178C280.523 339.77 282.609 343.439 285.042 346.799C287.629 350.391 291.723 352.979 296.357 351.859C307.711 349.078 292.418 326.368 289.637 321.656C284.964 313.699 279.712 306.052 274.228 298.637C273.301 297.401 271.641 295.74 271.023 294.35C269.131 292.805 269.787 291.839 272.954 291.491C274.267 291.916 275.58 292.341 276.854 292.805C281.257 294.272 285.698 295.701 290.178 296.976C293.886 298.057 302.343 301.34 304.274 295.894C306.475 289.676 296.821 286.046 292.843 284.462C290.719 283.612 289.792 287.05 291.916 287.861C293.229 288.363 299.022 290.41 299.717 292.032C301.918 297.13 296.241 294.852 294.349 294.427C291.105 293.654 287.9 292.611 284.733 291.569C280.523 290.256 272.568 285.659 268.165 288.324C264.38 290.642 266.504 294.118 268.551 296.783C272.915 302.499 277.086 308.37 281.064 314.395C284.849 320.149 288.44 326.097 291.53 332.277C293.19 335.598 294.735 338.997 295.932 342.512C297.632 347.456 293.808 350.429 289.483 346.644C285.08 342.782 282.068 335.251 279.094 330.269C277.241 327.14 275.232 320.265 270.675 320.999C269.864 321.115 269.478 322.003 269.362 322.698C269.015 325.363 271.679 328.569 272.838 330.925C274.846 335.019 276.854 339.113 278.747 343.246C280.716 347.494 282.647 351.781 284.347 356.146C284.81 357.304 285.814 359.197 285.93 360.433C286.278 363.561 283.999 363.947 281.218 362.364C276.816 359.853 262.836 326.368 254.803 333.474C253.49 334.671 253.721 335.985 254.494 337.375C256.502 340.89 260.287 343.825 262.604 347.262C265.037 350.816 267.161 354.562 269.015 358.463C269.71 359.969 272.954 364.99 272.413 366.69C271.602 369.277 268.435 368.698 266.775 367.771C262.295 365.261 248.392 333.783 241.363 340.735C240.938 341.16 240.707 341.894 240.9 342.473C242.174 345.949 246.036 349.155 248.16 352.129C250.786 355.798 254.841 360.819 255.73 365.338C257.236 372.831 246.809 363.677 244.8 361.9C241.363 358.888 237.733 356.03 233.987 353.442C223.791 346.374 212.901 342.203 201.199 338.65C177.294 331.427 153.311 324.398 129.135 318.18C117.936 315.322 91.6747 312.193 94.7642 295.856C95.2663 293.654 91.8678 292.727 91.443 294.929Z" fill="#4B3425"/>
<path d="M220.354 336.524C222.865 334.825 225.336 333.164 227.846 331.465C228.928 330.731 227.113 328.723 225.993 329.457C223.482 331.156 221.011 332.817 218.501 334.516C217.419 335.289 219.234 337.258 220.354 336.524Z" fill="#FE814B"/>
<path d="M235.146 323.856C237.192 321.655 239.278 319.415 241.325 317.213C242.213 316.286 239.973 314.664 239.085 315.591C237.038 317.793 234.952 320.033 232.906 322.234C232.017 323.161 234.257 324.783 235.146 323.856Z" fill="#FE814B"/>
<path d="M247.156 310.338C248.546 308.871 249.975 307.442 251.366 305.974C252.254 305.047 250.014 303.425 249.126 304.352C247.735 305.82 246.307 307.249 244.916 308.716C244.028 309.643 246.268 311.265 247.156 310.338Z" fill="#FE814B"/>
<path d="M257.738 298.752C258.935 297.632 260.094 296.512 261.291 295.392C262.218 294.503 259.978 292.881 259.051 293.769C257.854 294.89 256.695 296.01 255.498 297.13C254.571 297.979 256.811 299.601 257.738 298.752Z" fill="#FE814B"/>
<path d="M253.181 280.599C254.069 278.552 254.996 276.544 255.884 274.497C256.425 273.299 253.953 272.179 253.412 273.377C252.524 275.424 251.597 277.432 250.709 279.479C250.168 280.638 252.64 281.758 253.181 280.599Z" fill="#FE814B"/>
<path d="M159.799 473.944C162.773 473.365 165.592 476.532 168.025 477.807C169.917 478.811 172.968 479.738 174.822 478.077C176.792 476.3 175.286 471.936 174.204 470.043C172.582 467.224 169.763 465.254 166.558 464.829C164.318 464.52 163.352 467.919 165.631 468.228C168.218 468.576 170.42 470.043 171.501 472.477C171.733 473.017 172.157 474.022 172.08 474.678C172.003 475.566 172.582 475.219 171.617 475.373C170.883 475.528 169.57 474.601 168.991 474.253C165.747 472.322 162.889 469.735 158.872 470.507C156.632 470.97 157.598 474.369 159.799 473.944Z" fill="#4B3425"/>
<path d="M187.528 491.826C190.965 494.8 196.333 498.044 200.234 493.757C204.057 489.547 199.152 485.646 195.445 484.14C193.359 483.29 192.433 486.689 194.518 487.539C196.14 488.196 199.925 490.436 196.797 491.981C194.364 493.178 191.776 490.822 190.038 489.354C188.3 487.848 185.79 490.32 187.528 491.826Z" fill="#4B3425"/>
<path d="M216.763 498.624C219.35 498.161 221.899 500.98 224.564 501.212C226.611 501.405 228.619 500.594 229.507 498.624C230.318 496.847 229.777 494.723 228.657 493.256C227.074 491.209 224.487 490.629 222.092 490.204C219.852 489.818 218.925 493.217 221.165 493.603C222.633 493.873 224.525 494.067 225.645 495.187C227.19 496.732 226.031 498.083 224.1 497.543C221.049 496.693 219.234 494.607 215.874 495.225C213.596 495.612 214.523 499.01 216.763 498.624Z" fill="#4B3425"/>
<path d="M243.912 503.144C246.886 504.264 249.937 504.959 253.065 505.384C253.76 505.461 254.648 504.766 254.764 504.071C255.768 498.857 251.752 493.72 246.345 493.681C244.067 493.681 244.067 497.196 246.345 497.234C249.319 497.234 251.906 500.17 251.327 503.144C251.906 502.719 252.447 502.294 253.026 501.831C250.207 501.444 247.465 500.71 244.8 499.706C242.715 498.934 241.788 502.371 243.912 503.144Z" fill="#4B3425"/>
<path d="M65.7998 449.38C68.1169 451.311 70.3955 453.436 72.8285 455.212C74.7208 456.564 77.1925 456.525 78.0421 454.015C79.471 449.728 75.8408 445.132 71.7858 444.166C69.5845 443.664 68.619 447.063 70.8589 447.565C72.0947 447.835 73.1374 448.453 73.8712 449.496C74.1802 449.921 74.4119 450.384 74.5664 450.887C74.6436 451.157 74.6436 452.509 74.7595 452.625C74.6822 453.011 74.7981 452.972 75.107 452.47C74.6822 452.161 74.296 451.813 73.9098 451.466C73.3692 451.002 72.7899 450.539 72.2492 450.075C70.9361 448.994 69.6617 447.913 68.3486 446.831C66.5722 445.441 64.0619 447.913 65.7998 449.38Z" fill="#4B3425"/>
<path d="M90.5162 469.812C91.5975 469.58 92.6788 470.739 93.5285 471.28C94.2622 471.743 95.0732 472.091 95.9229 472.245C97.5063 472.516 99.2441 472.129 100.094 470.662C102.063 467.263 98.2014 462.899 95.305 461.547C93.2581 460.581 91.4816 463.632 93.5285 464.598C94.6484 465.139 95.5753 465.834 96.2704 466.838C96.4635 467.108 97.2746 468.383 97.0428 468.692C96.927 468.885 96.5794 468.808 96.2318 468.692C95.1119 468.383 94.2236 467.417 93.1809 466.877C91.9837 466.297 90.8637 466.104 89.5507 466.413C87.3494 466.915 88.2762 470.314 90.5162 469.812Z" fill="#4B3425"/>
<path d="M114.151 477.034C116.082 479.853 119.326 481.167 122.686 480.51C123.42 480.355 124.038 479.544 123.999 478.811C123.922 477.304 123.845 475.837 123.767 474.33C123.729 473.751 123.458 473.094 122.879 472.785C121.798 472.283 120.755 471.743 119.674 471.241C117.627 470.275 115.85 473.288 117.897 474.292C118.979 474.794 120.021 475.335 121.103 475.837C120.794 475.335 120.523 474.832 120.214 474.292C120.292 475.798 120.369 477.266 120.446 478.772C120.871 478.193 121.296 477.652 121.759 477.073C120.021 477.42 118.206 476.648 117.202 475.219C115.928 473.403 112.877 475.141 114.151 477.034Z" fill="#4B3425"/>
<path d="M185.906 466.798C187.837 466.644 189.613 467.146 191.081 468.421C192.78 469.927 195.29 467.416 193.591 465.91C191.467 464.056 188.764 463.052 185.945 463.245C183.666 463.438 183.666 466.953 185.906 466.798Z" fill="#FE814B"/>
<path d="M207.069 475.952C209.464 475.72 211.51 476.3 213.403 477.767C214.175 478.347 215.372 477.883 215.836 477.149C216.377 476.261 215.952 475.295 215.218 474.716C212.901 472.939 209.966 472.128 207.108 472.437C204.829 472.669 204.829 476.222 207.069 475.952Z" fill="#FE814B"/>
<path d="M229.816 478.502C232.21 478.927 234.605 479.352 236.999 479.815C239.239 480.201 240.166 476.802 237.926 476.416C235.532 475.991 233.137 475.567 230.743 475.103C228.542 474.678 227.576 478.077 229.816 478.502Z" fill="#FE814B"/>
<path d="M257.738 481.013C260.441 481.901 263.145 482.828 265.848 483.716C268.011 484.45 268.937 481.013 266.775 480.317C264.071 479.429 261.368 478.502 258.665 477.614C256.541 476.88 255.614 480.279 257.738 481.013Z" fill="#FE814B"/>
<path d="M90.5161 445.055C93.7601 445.905 97.0041 446.754 100.21 447.565C102.411 448.145 103.338 444.746 101.136 444.166C97.8924 443.317 94.6483 442.467 91.4429 441.656C89.2416 441.077 88.3148 444.475 90.5161 445.055Z" fill="#FE814B"/>
<path d="M112.375 452.51C114.576 453.36 116.777 454.21 118.979 455.098C121.103 455.909 122.03 452.51 119.905 451.699C117.704 450.849 115.503 450 113.302 449.111C111.216 448.3 110.289 451.699 112.375 452.51Z" fill="#FE814B"/>
<path d="M127.011 458.032C129.676 458.728 132.38 459.384 135.044 460.079C137.246 460.62 138.172 457.221 135.971 456.681C133.306 455.985 130.603 455.329 127.938 454.634C125.737 454.054 124.81 457.453 127.011 458.032Z" fill="#FE814B"/>
<path d="M147.904 462.435C150.299 463.169 152.693 463.864 155.126 464.598C157.328 465.255 158.254 461.856 156.053 461.199C153.659 460.465 151.264 459.77 148.831 459.036C146.669 458.38 145.703 461.779 147.904 462.435Z" fill="#FE814B"/>
<path d="M240.938 43.8825C239.355 47.0882 237.926 50.3711 236.729 53.7312C236.072 55.5851 238.467 56.3962 239.664 55.4693C241.672 53.9243 243.989 52.9202 246.461 52.4181C248.701 51.9546 247.735 48.5172 245.534 49.0193C242.406 49.6759 239.703 51.0663 237.192 52.9974C238.158 53.5767 239.162 54.1561 240.127 54.7354C241.247 51.6456 242.522 48.6717 243.989 45.7364C244.993 43.6121 241.943 41.8355 240.938 43.8825Z" fill="#4B3425"/>
<path d="M233.948 36.6585C236.729 37.3151 239.509 38.0103 242.29 38.6669C244.491 39.2076 245.457 35.8088 243.217 35.2681C240.436 34.6115 237.656 33.9163 234.875 33.2597C232.674 32.719 231.747 36.1178 233.948 36.6585Z" fill="#4B3425"/>
<path d="M229.353 79.492C230.897 72.7717 234.721 66.7466 239.78 63.0002C241.016 62.0733 242.367 61.3008 243.835 61.1463C245.302 61.0305 246.886 61.687 247.62 63.1547C248.546 64.97 247.89 67.3646 246.615 68.8708C245.38 70.3771 243.642 71.2268 242.02 72.1151C238.505 74.0849 231.979 76.1705 229.353 79.492Z" fill="#4B3425"/>
<path d="M281.489 74.0454C281.103 74.084 283.806 81.8858 285.66 87.5633C286.162 89.1468 286.664 90.769 287.822 91.9663C288.981 93.1636 290.912 93.8202 292.688 93.0863C295.006 92.1594 295.932 89.3013 295.314 87.2543C294.658 85.2073 292.881 83.7783 291.182 82.4651C287.977 79.9547 281.489 74.0454 281.489 74.0454Z" fill="#A28FFF"/>
<path d="M281.489 112.63C281.103 112.669 283.806 120.47 285.66 126.148C286.162 127.731 286.664 129.353 287.822 130.551C288.981 131.748 290.912 132.405 292.688 131.671C295.006 130.744 295.932 127.886 295.314 125.839C294.658 123.792 292.881 122.363 291.182 121.05C287.977 118.539 281.489 112.63 281.489 112.63Z" fill="#A28FFF"/>
<path d="M248.237 51.9537C247.851 51.8764 248.199 60.1416 248.315 66.0895C248.353 67.7503 248.353 69.4497 249.087 70.9173C249.821 72.385 251.52 73.5823 253.412 73.3892C255.884 73.1575 257.622 70.6856 257.583 68.5614C257.545 66.3985 256.27 64.5446 255.034 62.768C252.717 59.4851 248.237 51.9537 248.237 51.9537Z" fill="#A28FFF"/>
<path d="M211.626 74.4317C211.395 74.1227 206.142 80.4955 202.242 85.0143C201.161 86.2889 200.041 87.5248 199.616 89.1469C199.191 90.7304 199.654 92.7388 201.199 93.8975C203.207 95.3652 206.142 94.7086 207.533 93.0864C208.962 91.4643 209.232 89.2242 209.502 87.0613C209.966 83.0446 211.626 74.4317 211.626 74.4317Z" fill="#A28FFF"/>
</svg>
