<svg width="291" height="315" viewBox="0 0 291 315" fill="none" xmlns="http://www.w3.org/2000/svg">
<path d="M145 299C215.692 299 273 241.692 273 171C273 100.308 215.692 43 145 43C74.3076 43 17 100.308 17 171C17 241.692 74.3076 299 145 299Z" fill="#F2F5EB"/>
<path fill-rule="evenodd" clip-rule="evenodd" d="M83.3478 311.633C88.0935 311.633 96.7938 311.633 109.464 311.633C121.499 292.748 127.532 277.23 127.532 265.08C127.532 253.038 120.77 237.521 107.231 218.528C96.1424 218.528 88.171 218.528 83.3478 218.528C58.9374 218.528 39.164 239.368 39.164 265.08C39.164 290.793 58.9529 311.633 83.3478 311.633Z" fill="#6D4B36"/>
<path d="M92.9317 225.267H68.1801C67.0169 225.267 66.0864 224.32 66.0864 223.172C66.0864 222.008 67.0324 221.077 68.1801 221.077H92.9317C94.0949 221.077 95.0254 222.023 95.0254 223.172C95.0254 224.32 94.0949 225.267 92.9317 225.267Z" fill="white"/>
<path d="M77.0979 237.805H52.3617C51.1986 237.805 50.2681 236.858 50.2681 235.71C50.2681 234.546 51.2141 233.615 52.3617 233.615H77.1134C78.2765 233.615 79.207 234.562 79.207 235.71C79.207 236.858 78.261 237.805 77.0979 237.805Z" fill="white"/>
<path d="M67.8702 253.648H43.1186C41.9554 253.648 41.0249 252.702 41.0249 251.553C41.0249 250.39 41.9709 249.458 43.1186 249.458H67.8702C69.0334 249.458 69.9639 250.405 69.9639 251.553C69.9639 252.717 69.0334 253.648 67.8702 253.648Z" fill="white"/>
<path d="M66.5519 271.478H41.8002C40.6371 271.478 39.7065 270.531 39.7065 269.383C39.7065 268.219 40.6526 267.288 41.8002 267.288H66.5519C67.715 267.288 68.6455 268.235 68.6455 269.383C68.6455 270.531 67.715 271.478 66.5519 271.478Z" fill="white"/>
<path d="M71.8249 289.307H47.0888C45.9256 289.307 44.9951 288.361 44.9951 287.213C44.9951 286.064 45.9411 285.118 47.0888 285.118H71.8404C73.0036 285.118 73.9341 286.064 73.9341 287.213C73.9341 288.361 72.9881 289.307 71.8249 289.307Z" fill="white"/>
<path d="M84.3557 305.803H59.6195C58.4564 305.803 57.5259 304.856 57.5259 303.708C57.5259 302.544 58.4719 301.613 59.6195 301.613H84.3712C85.5343 301.613 86.4649 302.559 86.4649 303.708C86.4493 304.871 85.5188 305.803 84.3557 305.803Z" fill="white"/>
<path d="M108.409 218.528C84.0073 218.528 64.2255 239.37 64.2255 265.08C64.2255 290.79 84.0073 311.633 108.409 311.633C132.811 311.633 152.593 290.79 152.593 265.08C152.593 239.37 132.811 218.528 108.409 218.528Z" fill="#4B3425"/>
<path fill-rule="evenodd" clip-rule="evenodd" d="M203.311 134.971L245.386 242.228C252.876 261.315 243.478 282.853 224.403 290.332C220.091 292.024 215.485 292.893 210.848 292.893H122.744C102.257 292.893 85.6475 276.273 85.6475 255.775C85.6475 252.361 86.1127 248.963 87.0432 245.673L118.324 134.956H203.311V134.971Z" fill="#9BB068"/>
<path d="M186.888 256.908H168.727C168.169 256.908 167.611 256.846 167.068 256.706C163.315 255.79 161.019 251.989 161.934 248.233L163.253 242.849C163.299 242.632 163.33 242.414 163.33 242.182C163.33 240.63 162.074 239.373 160.523 239.373H128.575C127.785 239.373 127.009 239.233 126.265 238.969C124.497 238.349 123.085 237.076 122.279 235.4C121.473 233.709 121.364 231.816 121.984 230.047L129.878 207.547C130.266 206.445 131.46 205.871 132.561 206.259C133.662 206.647 134.236 207.841 133.848 208.943L125.955 231.444C125.443 232.902 126.218 234.5 127.676 235.013C127.971 235.121 128.281 235.168 128.606 235.168H160.554C164.416 235.168 167.548 238.302 167.548 242.166C167.548 242.725 167.486 243.283 167.347 243.826L166.029 249.211C165.656 250.716 166.587 252.237 168.076 252.594C168.293 252.64 168.51 252.671 168.743 252.671H186.903C188.066 252.671 188.997 253.618 188.997 254.766C188.997 255.915 188.051 256.908 186.888 256.908Z" fill="white"/>
<path d="M85.5235 252.873C85.3219 252.873 85.1203 252.842 84.9187 252.78C83.8021 252.454 83.1818 251.275 83.5074 250.173L91.5564 223.235C91.8821 222.117 93.0607 221.497 94.1618 221.823C95.2784 222.149 95.8988 223.328 95.5731 224.43L87.5242 251.368C87.2605 252.284 86.423 252.873 85.5235 252.873Z" fill="#4B3425"/>
<path d="M123.907 292.365C123.566 292.365 123.225 292.288 122.899 292.101C121.891 291.543 121.519 290.27 122.077 289.246L124.434 284.948C128.25 278.012 135.539 273.698 143.448 273.698H191.338C192.502 273.698 193.432 274.644 193.432 275.793C193.432 276.956 192.486 277.887 191.338 277.887H143.448C137.074 277.887 131.196 281.363 128.11 286.95L125.753 291.248C125.365 291.977 124.652 292.365 123.907 292.365Z" fill="white"/>
<path fill-rule="evenodd" clip-rule="evenodd" d="M219.866 311.633C224.612 311.633 233.312 311.633 245.982 311.633C258.017 292.748 264.05 277.23 264.05 265.08C264.05 253.038 257.288 237.521 243.749 218.528C232.661 218.528 224.689 218.528 219.866 218.528C195.456 218.528 175.682 239.368 175.682 265.08C175.682 290.793 195.456 311.633 219.866 311.633Z" fill="#4B3425"/>
<path d="M228.13 225.267H203.378C202.215 225.267 201.285 224.32 201.285 223.172C201.285 222.008 202.231 221.077 203.378 221.077H228.13C229.293 221.077 230.224 222.023 230.224 223.172C230.224 224.32 229.278 225.267 228.13 225.267Z" fill="white"/>
<path d="M212.296 237.805H187.544C186.381 237.805 185.45 236.858 185.45 235.71C185.45 234.546 186.396 233.615 187.544 233.615H212.296C213.459 233.615 214.389 234.562 214.389 235.71C214.389 236.858 213.459 237.805 212.296 237.805Z" fill="white"/>
<path d="M203.068 253.648H178.316C177.153 253.648 176.223 252.702 176.223 251.553C176.223 250.39 177.169 249.458 178.316 249.458H203.068C204.231 249.458 205.162 250.405 205.162 251.553C205.162 252.717 204.231 253.648 203.068 253.648Z" fill="white"/>
<path d="M201.75 271.478H176.998C175.835 271.478 174.904 270.531 174.904 269.383C174.904 268.219 175.85 267.288 176.998 267.288H201.75C202.913 267.288 203.843 268.235 203.843 269.383C203.843 270.531 202.897 271.478 201.75 271.478Z" fill="white"/>
<path d="M207.023 289.307H182.271C181.108 289.307 180.177 288.361 180.177 287.213C180.177 286.064 181.123 285.118 182.271 285.118H207.023C208.186 285.118 209.116 286.064 209.116 287.213C209.116 288.361 208.186 289.307 207.023 289.307Z" fill="white"/>
<path d="M219.553 305.803H194.802C193.639 305.803 192.708 304.856 192.708 303.708C192.708 302.544 193.654 301.613 194.802 301.613H219.553C220.716 301.613 221.647 302.559 221.647 303.708C221.647 304.871 220.716 305.803 219.553 305.803Z" fill="white"/>
<path d="M246.246 311.633C270.648 311.633 290.43 290.79 290.43 265.08C290.43 239.37 270.648 218.528 246.246 218.528C221.844 218.528 202.062 239.37 202.062 265.08C202.062 290.79 221.844 311.633 246.246 311.633Z" fill="#6D4B36"/>
<path d="M247.565 281.916C256.669 281.916 264.05 274.233 264.05 264.754C264.05 255.276 256.669 247.592 247.565 247.592C238.46 247.592 231.079 255.276 231.079 264.754C231.079 274.233 238.46 281.916 247.565 281.916Z" fill="white"/>
<path d="M251.949 256.746H245.467C244.862 256.746 244.304 256.482 243.9 256.048L240.38 252.091C239.604 251.222 239.682 249.903 240.55 249.127C241.419 248.351 242.737 248.429 243.513 249.298L246.413 252.556H250.709L252.259 249.701C252.818 248.677 254.089 248.305 255.113 248.848C256.137 249.406 256.509 250.679 255.966 251.703L253.826 255.66C253.423 256.312 252.725 256.746 251.949 256.746Z" fill="#4B3425"/>
<path d="M254.089 281.171C253.345 281.171 252.616 280.767 252.244 280.069L250.693 277.214H246.397L243.497 280.472C242.722 281.341 241.403 281.419 240.535 280.643C239.666 279.867 239.589 278.548 240.364 277.679L243.885 273.722C244.288 273.272 244.862 273.024 245.451 273.024H251.934C252.709 273.024 253.407 273.443 253.779 274.126L255.919 278.083C256.478 279.107 256.09 280.379 255.066 280.938C254.772 281.093 254.431 281.171 254.089 281.171Z" fill="#4B3425"/>
<path fill-rule="evenodd" clip-rule="evenodd" d="M109.733 165.727H159.174C166.137 165.727 171.767 171.375 171.767 178.327C171.767 179.444 171.612 180.577 171.317 181.663L165.021 204.645C163.516 210.122 158.554 213.924 152.877 213.924H93.5728L109.733 165.727Z" fill="#E5EAD7"/>
<path d="M148.054 195.055H146.147C140.533 195.055 135.958 190.477 135.958 184.86C135.958 184.239 136.02 183.603 136.128 182.998C137.353 176.45 143.06 171.701 149.714 171.701H149.869C155.855 171.701 160.725 176.574 160.725 182.563C160.725 182.905 160.709 183.246 160.678 183.588C160.042 190.12 154.63 195.055 148.054 195.055ZM149.698 175.891C145.061 175.891 141.091 179.196 140.238 183.758C140.176 184.115 140.129 184.488 140.129 184.86C140.129 188.165 142.812 190.865 146.131 190.865H148.039C152.428 190.865 156.057 187.56 156.475 183.184C156.491 182.982 156.506 182.765 156.506 182.563C156.506 178.886 153.513 175.906 149.853 175.906H149.698V175.891Z" fill="#B4C48D"/>
<path fill-rule="evenodd" clip-rule="evenodd" d="M53.6854 186.194H149.296C152.94 186.194 155.887 189.142 155.887 192.789C155.887 196.436 152.94 199.384 149.296 199.384H53.6854C50.0409 199.384 47.0943 196.436 47.0943 192.789C47.0788 189.142 50.0409 186.194 53.6854 186.194Z" fill="#4B3425"/>
<path fill-rule="evenodd" clip-rule="evenodd" d="M127.537 186.194H149.295C152.94 186.194 155.887 189.142 155.887 192.789C155.887 196.436 152.94 199.384 149.295 199.384H127.537C123.892 199.384 120.946 196.436 120.946 192.789C120.946 189.142 123.892 186.194 127.537 186.194Z" fill="#6D4B36"/>
<path d="M149.063 188.289H52.8012C51.638 188.289 50.7075 187.342 50.7075 186.194C50.7075 185.03 51.6535 184.099 52.8012 184.099H149.063C150.226 184.099 151.156 185.046 151.156 186.194C151.156 187.342 150.226 188.289 149.063 188.289Z" fill="#4B3425"/>
<path d="M200.23 155.811C207.07 155.811 212.606 161.367 212.606 168.225V176.682C212.606 202.721 191.546 223.824 165.569 223.824H95.0668C88.2275 223.824 82.6909 218.269 82.6909 211.41C82.6909 204.552 88.2275 198.996 95.0668 198.996H165.569C177.867 198.996 187.854 189.003 187.854 176.667V168.21C187.854 161.367 193.391 155.811 200.23 155.811Z" fill="#B4C48D"/>
<path d="M143.113 216.873H139.608C136.522 216.873 134.009 214.359 134.009 211.271C134.009 208.183 136.522 205.669 139.608 205.669H143.113C146.199 205.669 148.711 208.183 148.711 211.271C148.711 214.359 146.214 216.873 143.113 216.873ZM118.625 216.873H115.12C112.033 216.873 109.521 214.359 109.521 211.271C109.521 208.183 112.033 205.669 115.12 205.669H118.625C121.711 205.669 124.223 208.183 124.223 211.271C124.223 214.359 121.711 216.873 118.625 216.873ZM94.1211 216.873H90.6162C87.53 216.873 85.0176 214.359 85.0176 211.271C85.0176 208.183 87.53 205.669 90.6162 205.669H94.1211C97.2073 205.669 99.7197 208.183 99.7197 211.271C99.7197 214.359 97.2228 216.873 94.1211 216.873ZM164.111 216.795C161.18 216.795 158.714 214.514 158.528 211.55C158.327 208.462 160.668 205.793 163.755 205.607C164.747 205.545 165.755 205.436 166.717 205.281C169.772 204.8 172.641 206.895 173.122 209.952C173.602 213.009 171.509 215.88 168.454 216.361C167.151 216.562 165.802 216.717 164.468 216.795C164.344 216.795 164.22 216.795 164.111 216.795ZM186.444 207.795C184.846 207.795 183.264 207.128 182.163 205.809C180.163 203.45 180.457 199.912 182.83 197.91C183.59 197.274 184.334 196.591 185.017 195.877C187.188 193.674 190.739 193.658 192.942 195.815C195.144 197.988 195.175 201.541 193.004 203.745C192.073 204.691 191.081 205.607 190.057 206.46C189.002 207.36 187.715 207.795 186.444 207.795ZM199.068 187.281C198.633 187.281 198.199 187.234 197.765 187.126C194.756 186.412 192.895 183.386 193.609 180.375C193.841 179.413 194.027 178.42 194.167 177.443C194.601 174.386 197.424 172.244 200.494 172.679C203.55 173.113 205.69 175.953 205.255 179.01C205.069 180.329 204.821 181.663 204.511 182.951C203.906 185.543 201.595 187.281 199.068 187.281Z" fill="#CFD9B5"/>
<path fill-rule="evenodd" clip-rule="evenodd" d="M61.584 199.385H103.798V202.705C103.798 214.374 94.3536 223.825 82.6911 223.825C71.0287 223.825 61.584 214.374 61.584 202.705V199.385Z" fill="white"/>
<path d="M82.7008 225.919C69.9062 225.919 59.5 215.492 59.5 202.69V199.384C59.5 198.221 60.446 197.29 61.5937 197.29C62.7568 197.29 63.6873 198.236 63.6873 199.384V202.69C63.6873 213.179 72.217 221.714 82.6853 221.714C83.8484 221.714 84.779 222.661 84.779 223.809C84.779 224.957 83.8484 225.919 82.7008 225.919Z" fill="#4B3425"/>
<path d="M142.042 33.0056H128.859V58.0974H142.042V33.0056Z" fill="#9BB068"/>
<path d="M135.125 35.0075C144.778 35.0075 152.603 27.1708 152.603 17.5037C152.603 7.83669 144.778 0 135.125 0C125.472 0 117.646 7.83669 117.646 17.5037C117.646 27.1708 125.472 35.0075 135.125 35.0075Z" fill="#B4C48D"/>
<path d="M131.4 10.7612C134.767 8.8158 136.685 5.83089 135.683 4.09421C134.681 2.35754 131.138 2.52675 127.771 4.47216C124.403 6.41756 122.486 9.40248 123.488 11.1392C124.49 12.8758 128.032 12.7066 131.4 10.7612Z" fill="white"/>
<path d="M186.888 33.0056H173.706V58.0974H186.888V33.0056Z" fill="#9BB068"/>
<path d="M179.971 35.0075C189.624 35.0075 197.449 27.1708 197.449 17.5037C197.449 7.83669 189.624 0 179.971 0C170.318 0 162.493 7.83669 162.493 17.5037C162.493 27.1708 170.318 35.0075 179.971 35.0075Z" fill="#B4C48D"/>
<path d="M177.563 10.7605C180.931 8.81508 182.848 5.83016 181.846 4.09348C180.844 2.35681 177.302 2.52602 173.934 4.47143C170.567 6.41684 168.649 9.40175 169.651 11.1384C170.654 12.8751 174.196 12.7059 177.563 10.7605Z" fill="white"/>
<path fill-rule="evenodd" clip-rule="evenodd" d="M138.779 51.5027H173.022C199.62 51.5027 221.192 73.0875 221.192 99.7C221.192 126.313 199.62 147.897 173.022 147.897H138.779C112.167 147.897 90.6099 126.313 90.6099 99.7C90.6099 73.072 112.167 51.5027 138.779 51.5027Z" fill="#B4C48D"/>
<path d="M202.054 116.552C194.967 116.552 189.399 108.855 189.399 99.0327C189.399 89.2101 194.951 81.5134 202.054 81.5134C209.142 81.5134 214.709 89.2101 214.709 99.0327C214.709 108.855 209.157 116.552 202.054 116.552ZM202.054 85.7187C197.479 85.7187 193.602 91.817 193.602 99.0327C193.602 106.248 197.479 112.347 202.054 112.347C206.629 112.347 210.507 106.248 210.507 99.0327C210.507 91.817 206.645 85.7187 202.054 85.7187Z" fill="#B4C48D"/>
<path d="M175.674 53.5974H131.863C130.7 53.5974 129.769 52.6509 129.769 51.5026C129.769 50.3388 130.715 49.4077 131.863 49.4077H175.69C176.853 49.4077 177.784 50.3543 177.784 51.5026C177.784 52.6509 176.838 53.5974 175.674 53.5974Z" fill="#4B3425"/>
<path fill-rule="evenodd" clip-rule="evenodd" d="M129.241 68.2925H151.558C168.897 68.2925 182.948 82.3513 182.948 99.6999C182.948 117.048 168.897 131.107 151.558 131.107H129.241C111.903 131.107 97.8521 117.048 97.8521 99.6999C97.8676 82.3513 111.918 68.2925 129.241 68.2925Z" fill="white"/>
<path fill-rule="evenodd" clip-rule="evenodd" d="M117.408 85.6589C121.006 85.6589 123.906 88.5762 123.906 92.1608V94.3332C123.906 97.9333 120.991 100.835 117.408 100.835C113.81 100.835 110.91 97.9178 110.91 94.3332V92.1608C110.91 88.5762 113.81 85.6589 117.408 85.6589Z" fill="#6D4B36"/>
<path fill-rule="evenodd" clip-rule="evenodd" d="M149.061 85.6589C152.659 85.6589 155.559 88.5762 155.559 92.1608V94.3332C155.559 97.9333 152.644 100.835 149.061 100.835C145.463 100.835 142.563 97.9178 142.563 94.3332V92.1608C142.563 88.5762 145.463 85.6589 149.061 85.6589Z" fill="#6D4B36"/>
<path d="M130.497 116.492C125.488 116.492 121.347 112.442 121.27 107.399C121.254 106.235 122.185 105.289 123.332 105.258C123.348 105.258 123.348 105.258 123.363 105.258C124.511 105.258 125.442 106.173 125.457 107.321C125.504 110.068 127.752 112.271 130.482 112.271C130.497 112.271 130.513 112.271 130.528 112.271L134.157 112.24C136.53 112.225 138.438 110.347 138.5 107.973C138.531 106.809 139.539 105.909 140.655 105.925C141.819 105.956 142.734 106.918 142.703 108.082C142.578 112.721 138.841 116.384 134.204 116.43L130.575 116.461C130.559 116.492 130.528 116.492 130.497 116.492Z" fill="#4B3425"/>
<path d="M89.9477 163.734C97.9646 163.734 104.464 157.231 104.464 149.21C104.464 141.188 97.9646 134.685 89.9477 134.685C81.9307 134.685 75.4316 141.188 75.4316 149.21C75.4316 157.231 81.9307 163.734 89.9477 163.734Z" fill="#926247"/>
<path d="M84.7987 141.606C84.1163 141.606 83.465 141.28 83.0617 140.675L80.9681 137.556C80.3167 136.594 80.5804 135.29 81.5419 134.639C82.5034 133.987 83.8062 134.251 84.4575 135.213L86.5512 138.332C87.2025 139.294 86.9389 140.597 85.9774 141.249C85.6051 141.497 85.2019 141.606 84.7987 141.606Z" fill="#4B3425"/>
<path fill-rule="evenodd" clip-rule="evenodd" d="M119.952 133.382C124.838 136.206 126.513 142.459 123.69 147.363L109.019 172.812L91.3081 162.586L105.979 137.137C108.817 132.233 115.067 130.558 119.952 133.382Z" fill="#4B3425"/>
<path d="M112.198 147.937C111.841 147.937 111.469 147.844 111.128 147.642C110.135 147.053 109.794 145.765 110.399 144.772L117.905 132.109C118.495 131.116 119.782 130.775 120.774 131.38C121.767 131.97 122.108 133.258 121.503 134.251L113.997 146.913C113.625 147.58 112.927 147.937 112.198 147.937Z" fill="#4B3425"/>
<path fill-rule="evenodd" clip-rule="evenodd" d="M65.5474 152.515H131.49V159.001C131.49 172.92 120.215 184.217 106.288 184.217H90.7488C76.8376 184.217 65.5474 172.936 65.5474 159.001V152.515Z" fill="white"/>
<path d="M130.745 160.491H65.5473C64.3841 160.491 63.4536 159.544 63.4536 158.396C63.4536 157.232 64.3996 156.301 65.5473 156.301H130.745C131.908 156.301 132.839 157.248 132.839 158.396C132.854 159.56 131.908 160.491 130.745 160.491Z" fill="#4B3425"/>
<path d="M184.81 295.003H119.72C118.557 295.003 117.626 294.057 117.626 292.908C117.626 291.745 118.572 290.813 119.72 290.813H184.825C185.988 290.813 186.919 291.76 186.919 292.908C186.919 294.057 185.973 295.003 184.81 295.003Z" fill="#4B3425"/>
<path d="M22.7372 59.8615C22.7372 59.2567 22.9855 58.6674 23.482 58.2486C24.3665 57.5042 25.701 57.6128 26.4459 58.5123L56.0533 93.7787C57.5274 95.5312 59.6068 96.6168 61.8878 96.8184C64.1844 97.02 66.4034 96.3221 68.1724 94.8333C69.9259 93.36 71.0121 91.2819 71.2138 89.0021C71.4156 86.7068 70.7173 84.4891 69.2276 82.7211L39.6202 47.4547C38.8754 46.5707 38.984 45.2369 39.884 44.4925C40.7685 43.7481 42.103 43.8567 42.8479 44.7562L72.4552 80.0226C77.0019 85.4351 76.2881 93.5151 70.8725 98.0436C68.25 100.246 64.9293 101.285 61.5309 100.99C58.1171 100.696 55.0446 99.0827 52.8411 96.4617L23.2338 61.1953C22.8924 60.823 22.7372 60.3423 22.7372 59.8615Z" fill="#9BB068"/>
<path d="M259.279 194.838C261.178 187.752 268.639 183.586 275.909 185.534C283.179 187.482 287.554 194.836 285.659 201.906C285.358 203.03 284.203 203.684 283.094 203.386C281.97 203.085 281.315 201.93 281.612 200.822C282.909 195.983 279.876 190.932 274.84 189.583C269.804 188.233 264.656 191.077 263.356 195.93C263.055 197.054 261.9 197.708 260.791 197.41C259.636 197.101 258.982 195.946 259.279 194.838Z" fill="#4B3425"/>
<path d="M13.8966 178.72C11.8954 179.875 9.44423 180.251 7.06682 179.545L2.94979 178.338C1.83242 178.016 1.19203 176.845 1.5216 175.741C1.84341 174.623 3.01398 173.983 4.11792 174.313L8.23495 175.52C10.647 176.224 13.1896 174.827 13.9054 172.407C13.9812 172.166 14.0225 171.928 14.0559 171.675C14.6334 166.845 19.0191 163.399 23.8489 163.979C24.3109 164.035 24.775 164.125 25.2199 164.244L26.5068 164.612C29.4486 165.458 32.5207 163.738 33.3649 160.796C33.4046 160.648 33.4366 160.486 33.4763 160.338L33.5515 159.972C34.451 155.295 38.9925 152.243 43.6679 153.145C44.2302 153.251 44.7755 153.42 45.2959 153.639C47.6611 154.603 50.3589 153.475 51.3213 151.11C51.4183 150.875 51.4997 150.613 51.5544 150.366L52.4193 146.498C52.6641 145.371 53.7881 144.651 54.9225 144.91C56.0569 145.168 56.7701 146.28 56.5118 147.414L55.647 151.282C55.5377 151.775 55.3995 152.249 55.1977 152.706C53.3565 157.21 48.1914 159.367 43.6885 157.524C43.411 157.415 43.1277 157.328 42.8466 157.275C40.4492 156.814 38.1191 158.392 37.6513 160.776L37.576 161.142C37.5234 161.423 37.4632 161.691 37.3817 161.953C35.9072 167.123 30.5018 170.136 25.333 168.659L24.0539 168.304C23.8208 168.242 23.5743 168.187 23.3433 168.159C20.8235 167.858 18.5214 169.671 18.2216 172.191C18.1738 172.667 18.0702 173.138 17.932 173.612C17.2672 175.842 15.7769 177.634 13.8966 178.72Z" fill="#9BB068"/>
<path d="M250.593 92.7245C244.607 92.7245 239.737 87.852 239.737 81.8622C239.737 75.8725 244.607 71 250.593 71C256.58 71 261.449 75.8725 261.449 81.8622C261.449 87.852 256.58 92.7245 250.593 92.7245ZM250.593 75.2208C246.933 75.2208 243.94 78.2001 243.94 81.8778C243.94 85.5399 246.918 88.5348 250.593 88.5348C254.253 88.5348 257.246 85.5554 257.246 81.8778C257.246 78.2001 254.269 75.2208 250.593 75.2208Z" fill="#9BB068"/>
<path d="M26.831 314.121C25.6678 314.121 24.7373 313.174 24.7373 312.026C24.7373 310.862 25.6833 309.931 26.831 309.931L279.496 309.869C280.66 309.869 281.59 310.815 281.59 311.964C281.59 313.128 280.644 314.059 279.496 314.059L26.831 314.121Z" fill="#4B3425"/>
</svg>
