<svg width="283" height="272" viewBox="0 0 283 272" fill="none" xmlns="http://www.w3.org/2000/svg">
<rect x="25" y="20" width="248" height="248" rx="124" fill="#E8DDD9"/>
<path d="M158.154 123.997C157.178 118.137 161.119 112.597 166.98 111.621C172.84 110.644 178.385 114.605 179.369 120.453L181.275 131.807C183.458 144.807 195.632 153.677 208.672 151.759C222.098 149.789 231.651 137.719 230.488 124.21L224.261 51.6469C223.752 45.7331 228.142 40.5332 234.056 40.0236C239.97 39.5139 245.182 43.9118 245.692 49.8256L251.918 122.389C254.049 147.228 236.471 169.423 211.794 173.036C187.167 176.645 164.17 159.896 160.048 135.345L158.154 123.997Z" fill="#926247"/>
<path d="M237.531 150.305C237.412 150.511 237.274 150.722 237.119 150.907C236.463 151.707 235.778 152.474 235.087 153.222C233.407 155.013 230.583 155.094 228.792 153.414C227 151.734 226.919 148.91 228.599 147.118C229.155 146.519 229.706 145.9 230.24 145.256C231.808 143.351 234.612 143.081 236.505 144.642C238.2 146.041 238.6 148.452 237.531 150.305ZM245.192 135.609C244.199 137.328 242.127 138.232 240.132 137.661C237.772 136.993 236.385 134.529 237.053 132.169C237.282 131.381 237.474 130.572 237.636 129.761C238.138 127.354 240.498 125.81 242.905 126.311C245.312 126.813 246.856 129.174 246.355 131.581C246.144 132.59 245.902 133.596 245.623 134.582C245.519 134.958 245.374 135.294 245.192 135.609ZM222.081 161.877C221.613 162.688 220.89 163.353 219.963 163.755C219.018 164.162 218.05 164.523 217.077 164.866C214.755 165.673 212.21 164.43 211.423 162.102C210.616 159.779 211.852 157.247 214.187 156.447C214.967 156.187 215.743 155.876 216.508 155.559C218.771 154.605 221.389 155.664 222.343 157.927C222.891 159.244 222.759 160.702 222.081 161.877ZM245.987 116.303C245.309 117.477 244.105 118.332 242.654 118.496C240.212 118.782 237.998 117.051 237.7 114.602L237.37 111.845C237.085 109.403 238.815 107.188 241.264 106.891C243.706 106.605 245.92 108.335 246.218 110.784L246.548 113.542C246.663 114.545 246.449 115.503 245.987 116.303ZM243.671 96.9603C242.993 98.135 241.789 98.99 240.338 99.1536C237.896 99.4393 235.682 97.7087 235.384 95.2599L235.054 92.5021C234.768 90.0603 236.499 87.846 238.948 87.5481C241.39 87.2624 243.604 88.993 243.902 91.4418L244.231 94.1995C244.347 95.2027 244.132 96.1609 243.671 96.9603ZM203.034 164.493C202.146 166.031 200.386 166.953 198.518 166.665C197.481 166.503 196.446 166.309 195.421 166.072C193.029 165.515 191.545 163.108 192.114 160.724C192.678 158.32 195.078 156.848 197.47 157.405C198.248 157.596 199.047 157.75 199.835 157.866C202.269 158.238 203.938 160.493 203.579 162.934C203.494 163.499 203.307 164.021 203.034 164.493ZM241.355 77.6179C240.676 78.7926 239.472 79.6476 238.021 79.8112C235.58 80.0969 233.365 78.3663 233.067 75.9175L232.738 73.1597C232.452 70.7179 234.183 68.5036 236.632 68.2057C239.073 67.92 241.288 69.6505 241.586 72.0994L241.915 74.8571C242.049 75.8551 241.823 76.8064 241.355 77.6179ZM185.636 156.337C185.489 156.592 185.311 156.844 185.103 157.064C183.477 158.902 180.654 159.065 178.816 157.438C178.036 156.746 177.266 156.01 176.548 155.241C174.851 153.453 174.919 150.65 176.694 148.946C178.481 147.249 181.296 147.324 182.988 149.092C183.542 149.671 184.123 150.232 184.717 150.769C186.341 152.207 186.671 154.545 185.636 156.337ZM175.526 140.004C174.96 140.985 174.011 141.762 172.827 142.079C170.451 142.726 168.005 141.314 167.37 138.945C167.175 138.219 167 137.488 166.851 136.739L166.689 135.984C166.188 133.58 167.734 131.21 170.151 130.716C172.555 130.215 174.925 131.761 175.419 134.177L175.58 134.933C175.703 135.504 175.837 136.082 175.985 136.636C176.298 137.801 176.1 139.011 175.526 140.004ZM171.514 120.942C170.899 122.008 169.854 122.81 168.554 123.077C166.149 123.578 163.787 122.02 163.286 119.615L162.729 116.888C162.228 114.483 163.786 112.121 166.191 111.62C168.595 111.119 170.958 112.676 171.459 115.081L172.028 117.816C172.255 118.932 172.046 120.022 171.514 120.942Z" fill="#AC836C"/>
<path d="M231.817 120.022C231.558 120.47 231.093 120.799 230.533 120.847C229.613 120.93 228.801 120.267 228.706 119.34L222.706 56.5642C222.624 55.6445 223.287 54.8322 224.213 54.7375C225.133 54.6548 225.945 55.3176 226.04 56.2443L232.033 119.032C232.068 119.391 231.985 119.731 231.817 120.022Z" fill="#4B3425"/>
<path fill-rule="evenodd" clip-rule="evenodd" d="M208.461 36.4874L206.805 20.7559C206.339 16.4173 209.493 12.5216 213.836 12.0743C213.956 12.0627 214.076 12.0511 214.195 12.0395C218.892 11.7638 223.042 15.0641 223.823 19.6973L226.282 34.2615C226.82 37.4139 229.694 39.6227 232.889 39.3195C235.964 39.0279 238.228 36.2817 237.936 33.2067C237.938 33.1755 237.933 33.1564 237.935 33.1252L236.236 17.6918C235.721 13.0183 239.094 8.79739 243.78 8.2892C243.881 8.28271 243.988 8.26412 244.089 8.25763C249.01 7.9014 253.323 11.506 253.838 16.4051L255.434 31.5691C256.805 44.5205 247.406 56.13 234.454 57.5016L234.435 57.5067C221.46 58.8644 209.838 49.4579 208.461 36.4874Z" fill="#BDA193"/>
<path d="M227.368 34.6464C227.13 35.0582 226.73 35.3599 226.223 35.4548C225.317 35.626 224.438 35.0219 224.286 34.1106L221.607 19.4517C221.436 18.5455 222.04 17.667 222.952 17.5149C223.858 17.3438 224.736 17.9478 224.888 18.8592L227.567 33.5181C227.644 33.9174 227.557 34.3194 227.368 34.6464Z" fill="#4B3425"/>
<path fill-rule="evenodd" clip-rule="evenodd" d="M170.53 58.468L164.279 34.8759C163.803 33.0998 164.866 31.2679 166.656 30.7924C167.719 30.5127 168.852 30.7644 169.677 31.4776L197.157 54.9718L170.53 58.468Z" fill="#AC836C"/>
<path fill-rule="evenodd" clip-rule="evenodd" d="M112.046 113.945L152.112 106.156C157.538 105.107 162.797 108.645 163.859 114.085L169.761 144.418L110.018 156.025L104.117 125.692C103.068 120.266 106.606 115.008 112.046 113.945Z" fill="#AC836C"/>
<path fill-rule="evenodd" clip-rule="evenodd" d="M124.115 111.848L164.181 104.058C169.607 103.009 174.865 106.547 175.928 111.987L181.83 142.32L122.087 153.927L116.186 123.595C115.123 118.169 118.675 112.91 124.115 111.848Z" fill="#BDA193"/>
<path fill-rule="evenodd" clip-rule="evenodd" d="M73.3931 63.4879L142.603 50.0347C156.49 47.3356 169.929 56.3977 172.628 70.2844L178.474 100.351C181.173 114.238 172.111 127.677 158.224 130.376L89.0139 143.83C75.1272 146.529 61.6879 137.467 58.9889 123.58L53.1433 93.5129C50.4583 79.6262 59.5203 66.1869 73.3931 63.4879Z" fill="#AC836C"/>
<path fill-rule="evenodd" clip-rule="evenodd" d="M101.726 57.7281L170.936 44.2749C184.823 41.5759 198.262 50.6379 200.961 64.5247L206.806 94.5917C209.505 108.478 200.443 121.918 186.557 124.617L117.347 138.07C103.46 140.769 90.0207 131.707 87.3216 117.82L81.4761 87.7532C78.777 73.8664 87.853 60.4272 101.726 57.7281Z" fill="#BDA193"/>
<path d="M114.214 139.733C113.431 139.733 112.731 139.173 112.578 138.376C112.41 137.467 112.997 136.6 113.906 136.418L191.829 121.385C192.738 121.203 193.605 121.805 193.786 122.714C193.968 123.623 193.367 124.49 192.458 124.671L114.536 139.705C114.424 139.733 114.326 139.733 114.214 139.733Z" fill="#4B3425"/>
<path fill-rule="evenodd" clip-rule="evenodd" d="M116.004 71.1674L170.978 60.4831C180.334 58.6651 189.396 64.7764 191.214 74.1322L192.235 79.3904C194.053 88.7461 187.941 97.8082 178.586 99.6262L123.612 110.31C114.256 112.128 105.194 106.017 103.376 96.6614L102.355 91.4032C100.537 82.0475 106.649 72.9854 116.004 71.1674Z" fill="#D5C2B9"/>
<path fill-rule="evenodd" clip-rule="evenodd" d="M136.505 76.9711C139.316 76.4257 142.029 78.2577 142.575 81.0686L142.896 82.7607C143.442 85.5716 141.61 88.2846 138.799 88.83C135.988 89.3754 133.275 87.5435 132.729 84.7325L132.408 83.0404C131.862 80.2435 133.694 77.5165 136.505 76.9711Z" fill="#4B3425"/>
<path fill-rule="evenodd" clip-rule="evenodd" d="M166.405 70.1591C169.215 69.6137 171.928 71.4456 172.474 74.2566L172.796 75.9487C173.341 78.7596 171.509 81.4726 168.698 82.018C165.887 82.5634 163.174 80.7314 162.629 77.9205L162.307 76.2284C161.776 73.4175 163.608 70.7045 166.405 70.1591Z" fill="#4B3425"/>
<path d="M154.923 96.0157C151.399 96.0157 148.266 93.4705 147.637 89.8904C147.483 88.9814 148.085 88.1144 148.994 87.9606C149.903 87.8067 150.77 88.4081 150.923 89.3171C151.301 91.4987 153.399 92.9811 155.594 92.6175L158.531 92.128C160.419 91.8063 161.692 90.0862 161.44 88.1843C161.314 87.2753 161.971 86.4362 162.88 86.3104C163.789 86.1845 164.628 86.8418 164.754 87.7508C165.23 91.4288 162.74 94.7991 159.076 95.4144L156.14 95.9038C155.734 95.9878 155.329 96.0157 154.923 96.0157Z" fill="#4B3425"/>
<path fill-rule="evenodd" clip-rule="evenodd" d="M51.2411 92.4228L41.2001 67.7678C40.5009 66.0617 41.326 64.1179 43.0321 63.4186C44.011 63.027 45.1158 63.111 46.0108 63.6564L79.6998 83.9341L51.2411 92.4228Z" fill="#AC836C"/>
<path d="M60.7787 74.0603C60.499 74.0603 60.2054 73.9904 59.9397 73.8366L45.4656 65.4877C44.6684 65.0262 44.3887 64.0054 44.8502 63.2082C45.3117 62.4111 46.3326 62.1314 47.1297 62.5929L61.6038 70.9417C62.401 71.4032 62.6806 72.4241 62.2192 73.2212C61.9255 73.7526 61.3661 74.0603 60.7787 74.0603Z" fill="#4B3425"/>
<path fill-rule="evenodd" clip-rule="evenodd" d="M71.1135 127.399C79.6558 123.337 82.9831 110.637 78.5494 99.022C74.1156 87.4068 63.5972 81.3093 55.0549 85.3716C46.5125 89.4339 43.1853 102.134 47.619 113.749C52.0527 125.364 62.5711 131.461 71.1135 127.399Z" fill="#BDA193"/>
<path fill-rule="evenodd" clip-rule="evenodd" d="M58.1662 120.735C63.1512 118.322 65.0665 110.742 62.4492 103.791C59.8319 96.8398 53.6586 93.157 48.6736 95.5696C43.6887 97.9822 41.7734 105.562 44.3907 112.513C47.008 119.464 53.1813 123.147 58.1662 120.735Z" fill="#AC836C"/>
<path d="M58.1746 122.395C57.5492 122.392 56.962 122.041 56.6736 121.453C56.2727 120.629 56.622 119.63 57.446 119.229C61.6734 117.192 63.2111 110.53 60.891 104.379C59.5589 100.851 57.1281 98.0984 54.3933 97.0044C52.6671 96.3148 50.9383 96.3356 49.4071 97.0742C48.5832 97.4751 47.5844 97.1258 47.1835 96.3019C46.7826 95.4779 47.1319 94.4791 47.9558 94.0782C50.311 92.9387 53.0418 92.8832 55.6381 93.9165C59.2891 95.3743 62.3443 98.7691 64.0231 103.216C66.9327 110.939 64.647 119.479 58.9021 122.253C58.6639 122.352 58.416 122.395 58.1746 122.395Z" fill="#4B3425"/>
<path fill-rule="evenodd" clip-rule="evenodd" d="M75.3452 160.846L144.597 147.393C158.484 144.708 171.909 153.77 174.622 167.643L180.468 197.696C183.167 211.569 174.105 225.022 160.232 227.721L90.98 241.174C77.0933 243.859 63.668 234.797 60.955 220.924L55.1094 190.871C52.3964 176.971 61.4584 163.531 75.3452 160.846C75.3452 160.832 75.3452 160.832 75.3452 160.846Z" fill="#BDA193"/>
<path fill-rule="evenodd" clip-rule="evenodd" d="M81.3166 204.633C88.5746 202.074 92.3504 192.075 89.7493 182.299C87.1482 172.524 79.1489 166.692 71.8909 169.252C64.6329 171.811 60.857 181.81 63.4582 191.585C66.0593 201.346 74.0445 207.192 81.3166 204.633Z" fill="#AC836C"/>
<path fill-rule="evenodd" clip-rule="evenodd" d="M114.181 153.491L194.243 137.94C208.129 135.255 221.555 144.317 224.268 158.19L230.113 188.243C232.812 202.116 223.75 215.569 209.878 218.268L129.815 233.819C115.929 236.504 102.503 227.442 99.7904 213.569L93.9449 183.516C91.2318 169.63 100.294 156.19 114.181 153.491Z" fill="#AC836C"/>
<path d="M100.853 219.527C100.07 219.527 99.3707 218.982 99.2168 218.185L91.805 181.307C91.6232 180.398 92.2105 179.517 93.1195 179.335C94.0285 179.153 94.9096 179.741 95.0914 180.65L102.503 217.527C102.685 218.436 102.098 219.317 101.189 219.499C101.077 219.513 100.965 219.527 100.853 219.527Z" fill="#4B3425"/>
<path fill-rule="evenodd" clip-rule="evenodd" d="M124.35 168.186L151.914 162.829C164.136 160.452 175.981 168.437 178.359 180.674C180.736 192.896 172.751 204.741 160.528 207.119L132.964 212.461C120.742 214.838 108.897 206.853 106.519 194.617C104.128 182.394 112.113 170.563 124.35 168.186Z" fill="#BDA193"/>
<path fill-rule="evenodd" clip-rule="evenodd" d="M130.643 167.136L158.207 161.78C170.43 159.403 182.275 167.388 184.652 179.625C187.029 191.847 179.044 203.692 166.822 206.069L139.258 211.426C127.035 213.803 115.19 205.818 112.813 193.581C110.435 181.345 118.421 169.514 130.643 167.136Z" fill="#D5C2B9"/>
<path d="M135.594 199.637C130.881 199.637 126.658 196.294 125.721 191.498C124.658 186.058 128.224 180.757 133.678 179.695L133.874 179.653C139.314 178.59 144.614 182.17 145.677 187.61C146.698 192.882 143.397 198.015 138.237 199.287L138.223 199.301L137.524 199.441C136.866 199.581 136.223 199.637 135.594 199.637ZM134.251 182.981C130.643 183.708 128.294 187.232 128.993 190.854C129.678 194.393 133.049 196.742 136.587 196.224L136.713 196.099H137.23C140.782 195.329 143.09 191.833 142.39 188.253C141.677 184.617 138.139 182.226 134.503 182.939L134.251 182.981Z" fill="#926247"/>
<path d="M151.885 182.646C151.116 182.646 150.431 182.114 150.263 181.331C150.067 180.436 150.627 179.541 151.536 179.345L167.282 175.863C168.191 175.667 169.072 176.227 169.268 177.136C169.464 178.031 168.905 178.926 167.996 179.122L152.249 182.604C152.123 182.632 151.997 182.646 151.885 182.646Z" fill="#926247"/>
<path d="M153.983 191.036C153.214 191.036 152.529 190.504 152.361 189.721C152.165 188.826 152.725 187.931 153.634 187.735L162.724 185.722C163.633 185.526 164.514 186.085 164.709 186.994C164.905 187.889 164.346 188.784 163.437 188.98L154.347 190.994C154.221 191.022 154.109 191.036 153.983 191.036Z" fill="#926247"/>
<path d="M69.6952 179.46C74.2822 175.684 81.0507 176.327 84.8266 180.914C88.6024 185.501 87.9452 192.284 83.3722 196.06L74.4919 203.388C64.3251 211.779 62.7308 226.756 70.9119 237.091C79.3306 247.733 94.5599 249.971 105.678 242.209L165.406 200.535C170.273 197.137 176.971 198.339 180.37 203.206C183.768 208.073 182.565 214.785 177.699 218.183L117.97 259.858C97.5246 274.122 69.5134 269.997 54.0464 250.432C38.6073 230.91 41.614 202.619 60.815 186.774L69.6952 179.46Z" fill="#926247"/>
<path d="M86.6027 261.354C86.3649 261.354 86.1132 261.34 85.8755 261.298C84.8546 261.13 83.8477 260.92 82.8548 260.696C80.4634 260.137 78.981 257.732 79.5404 255.34C80.0998 252.949 82.5052 251.467 84.8965 252.026C85.6937 252.208 86.5048 252.376 87.3299 252.515C89.7632 252.921 91.3994 255.214 90.9939 257.634C90.6302 259.801 88.7423 261.354 86.6027 261.354ZM103.16 260.64C101.175 260.64 99.3567 259.298 98.8532 257.284C98.2519 254.907 99.6923 252.473 102.07 251.872C102.867 251.676 103.664 251.439 104.447 251.173C106.783 250.404 109.3 251.676 110.069 254.012C110.838 256.347 109.565 258.864 107.23 259.634C106.251 259.955 105.258 260.249 104.265 260.501C103.888 260.599 103.524 260.64 103.16 260.64ZM68.8562 253.76C67.9192 253.76 66.9822 253.466 66.1711 252.865C65.346 252.25 64.5489 251.592 63.7658 250.921C61.9058 249.313 61.71 246.488 63.3322 244.642C64.9405 242.782 67.7514 242.586 69.6113 244.209C70.2267 244.754 70.8839 245.271 71.5412 245.775C73.4991 247.257 73.8906 250.054 72.4083 252.012C71.5412 253.145 70.2127 253.76 68.8562 253.76ZM120.278 251.676C118.921 251.676 117.579 251.061 116.712 249.886C115.243 247.914 115.635 245.131 117.607 243.649L119.83 241.985C121.802 240.517 124.585 240.908 126.067 242.88C127.536 244.852 127.144 247.635 125.172 249.117L122.949 250.781C122.138 251.383 121.201 251.676 120.278 251.676ZM135.871 239.999C134.514 239.999 133.172 239.384 132.304 238.209C130.836 236.237 131.228 233.454 133.2 231.972L135.423 230.308C137.395 228.839 140.178 229.231 141.66 231.203C143.129 233.175 142.737 235.958 140.765 237.44L138.542 239.104C137.731 239.705 136.794 239.999 135.871 239.999ZM57.0671 238.573C55.2911 238.573 53.6129 237.51 52.9277 235.748C52.5501 234.769 52.2005 233.776 51.8928 232.769C51.1796 230.42 52.5221 227.93 54.8715 227.231C57.2349 226.518 59.7102 227.86 60.4234 230.21C60.6472 230.979 60.9129 231.748 61.2066 232.489C62.1016 234.783 60.9828 237.356 58.6893 238.265C58.1579 238.475 57.6125 238.573 57.0671 238.573ZM151.463 228.322C150.107 228.322 148.764 227.707 147.897 226.532C146.429 224.56 146.821 221.777 148.792 220.295L151.016 218.631C152.988 217.162 155.771 217.554 157.253 219.526C158.721 221.497 158.33 224.28 156.358 225.763L154.135 227.427C153.337 228.042 152.4 228.322 151.463 228.322ZM55.4309 219.428C55.1372 219.428 54.8296 219.4 54.5359 219.33C52.1305 218.84 50.5782 216.477 51.0677 214.072C51.2775 213.051 51.5292 212.016 51.8369 211.009C52.5361 208.646 54.9974 207.303 57.3608 207.988C59.7242 208.688 61.0667 211.163 60.3815 213.512C60.1577 214.281 59.9619 215.065 59.7941 215.848C59.3606 217.973 57.5006 219.428 55.4309 219.428ZM64.5209 202.506C63.3882 202.506 62.2414 202.073 61.3744 201.206C59.6263 199.472 59.6263 196.647 61.3604 194.913C61.8918 194.381 62.4372 193.864 63.0106 193.36L63.584 192.843C65.4159 191.207 68.2408 191.361 69.877 193.207C71.5132 195.039 71.3594 197.863 69.5134 199.5L68.9401 200.017C68.5066 200.409 68.073 200.814 67.6675 201.22C66.8144 202.073 65.6677 202.506 64.5209 202.506ZM79.023 189.501C77.7924 189.501 76.5757 188.997 75.6947 188.004C74.0585 186.172 74.2263 183.347 76.0583 181.711L78.142 179.865C79.974 178.229 82.7989 178.397 84.4351 180.229C86.0713 182.061 85.9034 184.886 84.0715 186.522L81.9877 188.382C81.1347 189.137 80.0858 189.501 79.023 189.501Z" fill="#AC836C"/>
<path d="M109.971 241.263C109.454 241.263 108.936 241.025 108.615 240.564C108.083 239.808 108.251 238.774 109.006 238.228L160.372 201.644C161.127 201.113 162.162 201.281 162.707 202.036C163.239 202.791 163.071 203.826 162.316 204.371L110.936 240.955C110.643 241.165 110.307 241.263 109.971 241.263Z" fill="#4B3425"/>
<path fill-rule="evenodd" clip-rule="evenodd" d="M170.637 179.269L183.433 169.969C186.957 167.396 191.907 168.179 194.467 171.718C194.536 171.815 194.606 171.913 194.676 172.011C197.264 175.941 196.48 181.185 192.858 184.178L181.475 193.589C179.014 195.631 178.538 199.225 180.398 201.84C182.188 204.358 185.698 204.945 188.215 203.155C188.243 203.141 188.257 203.127 188.285 203.113L200.802 193.925C204.591 191.142 209.934 191.953 212.717 195.757C212.772 195.841 212.842 195.925 212.898 196.009C215.667 200.092 214.702 205.63 210.717 208.525L198.382 217.489C187.852 225.153 173.098 222.817 165.434 212.287L165.42 212.273C157.757 201.715 160.092 186.947 170.637 179.269Z" fill="#D5C2B9"/>
<path d="M181.684 194.722C181.209 194.722 180.748 194.526 180.412 194.135C179.811 193.436 179.894 192.373 180.608 191.785L191.963 182.136C192.662 181.535 193.725 181.619 194.313 182.332C194.914 183.031 194.83 184.094 194.117 184.681L182.761 194.331C182.454 194.596 182.062 194.722 181.684 194.722Z" fill="#4B3425"/>
<path d="M15.8297 190C15.2323 190 14.6348 189.757 14.2131 189.253C13.475 188.368 13.5804 187.066 14.4766 186.336L49.7273 157.114C51.4846 155.656 52.5565 153.607 52.7673 151.35C52.9606 149.093 52.2577 146.888 50.7816 145.151C49.3055 143.415 47.232 142.356 44.9475 142.147C42.6631 141.956 40.4314 142.651 38.6741 144.109L3.44105 173.349C2.54485 174.078 1.2269 173.974 0.488853 173.088C-0.249197 172.203 -0.143761 170.901 0.752442 170.171L36.0031 140.949C38.6214 138.779 41.9251 137.755 45.3341 138.05C48.7432 138.345 51.8184 139.925 54.015 142.512C56.2116 145.099 57.2484 148.381 56.9496 151.732C56.6509 155.1 55.0518 158.139 52.4335 160.309L17.1828 189.514C16.7787 189.844 16.3042 190 15.8297 190Z" fill="#9BB068"/>
<path d="M69.7176 13.2094C68.1526 11.6444 67.1968 9.47005 67.2565 7.06874L67.3402 2.9471C67.3641 1.8241 68.284 0.951975 69.407 0.975869C70.53 0.999763 71.4021 1.91967 71.3782 3.04267L71.2826 7.15237C71.2587 8.32316 71.6888 9.44616 72.5012 10.2824C73.3255 11.1307 74.4007 11.6085 75.5715 11.6324C75.8105 11.6324 76.0613 11.6205 76.2883 11.5846C80.9117 10.9276 85.2006 14.1413 85.8697 18.7527C85.9294 19.1948 85.9533 19.6487 85.9533 20.1027L85.9294 21.3691C85.8816 24.308 88.2351 26.7332 91.174 26.781C91.3294 26.7929 91.4847 26.781 91.64 26.769L91.9984 26.7451C94.2085 26.5898 96.347 27.2947 98.0196 28.7522C99.6802 30.1978 100.696 32.2168 100.851 34.4269C100.887 34.9645 100.875 35.526 100.803 36.0517C100.648 37.2344 100.97 38.3933 101.699 39.3371C102.428 40.2809 103.479 40.8782 104.65 41.0216C104.901 41.0574 105.152 41.0694 105.403 41.0574L109.202 40.8902C110.325 40.8424 111.257 41.7025 111.304 42.8255C111.352 43.9485 110.492 44.8804 109.369 44.9282L105.57 45.0954C105.092 45.1193 104.614 45.0954 104.148 45.0357C101.902 44.749 99.9072 43.614 98.5213 41.822C97.1355 40.03 96.5382 37.8079 96.8249 35.5619C96.8607 35.2871 96.8607 35.0004 96.8488 34.7256C96.6815 32.384 94.6506 30.6159 92.2971 30.7712L91.9386 30.7951C91.6758 30.819 91.401 30.8309 91.1263 30.819C85.9533 30.7354 81.8316 26.4704 81.9153 21.2974L81.9272 20.0191C81.9272 19.7801 81.9153 19.5532 81.8794 19.3262C81.533 16.901 79.287 15.2284 76.8618 15.5749C76.4078 15.6466 75.9419 15.6585 75.4879 15.6585C73.2299 15.6227 71.199 14.6908 69.7176 13.2094Z" fill="#FE814B"/>
<path d="M245.298 168.096C256.854 161.424 271.854 165.709 278.749 177.651C285.643 189.592 281.854 204.725 270.298 211.397C268.469 212.453 266.146 211.823 265.083 209.981C264.02 208.14 264.635 205.813 266.464 204.757C274.362 200.197 276.91 189.761 272.142 181.503C267.373 173.244 257.062 170.232 249.164 174.792C247.335 175.848 245.012 175.217 243.949 173.376C242.886 171.535 243.469 169.152 245.298 168.096Z" fill="#9BB068"/>
<path d="M206.5 272C196.857 272 189 264.143 189 254.5C189 244.857 196.857 237 206.5 237C216.143 237 224 244.857 224 254.5C224 264.143 216.143 272 206.5 272ZM206.5 243.779C200.6 243.779 195.779 248.6 195.779 254.5C195.779 260.4 200.6 265.221 206.5 265.221C212.4 265.221 217.221 260.4 217.221 254.5C217.221 248.572 212.4 243.779 206.5 243.779Z" fill="#FE814B"/>
</svg>
