<svg width="159" height="235" viewBox="0 0 159 235" fill="none" xmlns="http://www.w3.org/2000/svg">
<path fill-rule="evenodd" clip-rule="evenodd" d="M79.2981 11.7122C84.4221 11.7122 88.5722 15.8719 88.5722 21.0076V56.8415C88.5722 61.9772 84.4221 66.137 79.2981 66.137C74.1742 66.137 70.024 61.9772 70.024 56.8415V21.0076C70.0008 15.8719 74.1742 11.7122 79.2981 11.7122Z" fill="#6D4B36"/>
<path d="M79.6219 35.8339C89.4945 35.8339 97.4978 27.8122 97.4978 17.917C97.4978 8.02171 89.4945 0 79.6219 0C69.7494 0 61.7461 8.02171 61.7461 17.917C61.7461 27.8122 69.7494 35.8339 79.6219 35.8339Z" fill="#926247"/>
<path d="M41.5596 169.32C49.2105 161.651 49.2105 149.218 41.5596 141.55C33.9087 133.881 21.5041 133.881 13.8532 141.55C6.20229 149.218 6.20229 161.651 13.8532 169.32C21.5041 176.988 33.9087 176.988 41.5596 169.32Z" fill="#6D4B36"/>
<path d="M21.8611 204.825H21.8843C23.971 204.802 25.6635 203.105 25.6403 201.014L25.2925 158.162C25.2693 156.071 23.5768 154.397 21.5133 154.397H21.4901C19.4035 154.421 17.7109 156.117 17.7341 158.208L18.0819 201.06C18.1051 203.152 19.7976 204.825 21.8611 204.825Z" fill="#926247"/>
<path fill-rule="evenodd" clip-rule="evenodd" d="M3.8928 214.678L4.84339 228.435C5.09843 232.223 8.39074 235.082 12.1699 234.826C12.2627 234.826 12.3786 234.803 12.4714 234.803C16.5288 234.338 19.5892 230.875 19.5661 226.785L19.4733 213.911C19.4501 211.123 21.5832 208.799 24.3654 208.566C27.0549 208.357 29.3966 210.356 29.6053 213.051C29.6053 213.075 29.6053 213.098 29.6053 213.121L30.4863 226.623C30.7414 230.713 34.2887 233.827 38.3693 233.548C38.4621 233.548 38.5548 233.525 38.6475 233.525C42.9136 233.083 46.0668 229.342 45.7654 225.066L44.838 211.82C44.0497 200.503 34.2655 191.951 22.9511 192.741C22.9511 192.741 22.9511 192.741 22.9279 192.741C11.6367 193.508 3.1045 203.338 3.8928 214.678Z" fill="#AC836C"/>
<path fill-rule="evenodd" clip-rule="evenodd" d="M36.3275 43.4327H118.125C128.002 43.4327 136.001 51.45 136.001 61.3496V113.613C136.001 123.513 128.002 131.53 118.125 131.53H36.3275C26.4506 131.53 18.4517 123.513 18.4517 113.613V61.3496C18.4517 51.45 26.4506 43.4327 36.3275 43.4327Z" fill="#926247"/>
<path fill-rule="evenodd" clip-rule="evenodd" d="M39.5048 57.2133H83.1858C93.0628 57.2133 101.062 65.2307 101.062 75.1303V75.3859C101.062 85.2855 93.0628 93.3028 83.1858 93.3028H39.5048C29.6278 93.3028 21.6289 85.2855 21.6289 75.3859V75.1303C21.6289 65.2539 29.6278 57.2133 39.5048 57.2133Z" fill="#AC836C"/>
<path d="M39.0877 80.5916C41.7255 80.5916 43.8639 78.4483 43.8639 75.8044C43.8639 73.1605 41.7255 71.0173 39.0877 71.0173C36.4499 71.0173 34.3115 73.1605 34.3115 75.8044C34.3115 78.4483 36.4499 80.5916 39.0877 80.5916Z" fill="#4B3425"/>
<path d="M79.3372 80.5914C81.975 80.5914 84.1134 78.4481 84.1134 75.8043C84.1134 73.1604 81.975 71.0172 79.3372 71.0172C76.6994 71.0172 74.561 73.1604 74.561 75.8043C74.561 78.4481 76.6994 80.5914 79.3372 80.5914Z" fill="#4B3425"/>
<path d="M41.5913 103.249H84.1131C85.2492 103.249 86.1766 102.32 86.1766 101.181C86.1766 100.042 85.2492 99.113 84.1131 99.113H41.5913C40.4552 99.113 39.5278 100.042 39.5278 101.181C39.5278 102.343 40.4552 103.249 41.5913 103.249Z" fill="#4B3425"/>
<path d="M133.939 110.151C134.635 110.151 135.284 109.802 135.678 109.175C136.281 108.199 136.002 106.921 135.029 106.317L126.102 100.693C125.708 100.437 125.453 99.9957 125.453 99.531V77.2219C125.453 76.7339 125.708 76.2924 126.126 76.0367L134.982 70.7849C135.956 70.2039 136.281 68.9257 135.701 67.9497C135.121 66.9737 133.846 66.6484 132.872 67.2293L124.016 72.4812C122.346 73.4805 121.326 75.2931 121.326 77.2219V99.531C121.326 101.437 122.277 103.179 123.9 104.202L132.826 109.826C133.197 110.058 133.568 110.151 133.939 110.151Z" fill="#926247"/>
<path fill-rule="evenodd" clip-rule="evenodd" d="M51.8859 137.898H104.841C113.953 137.898 121.349 145.311 121.349 154.444V200.619C121.349 209.751 113.953 217.164 104.841 217.164H51.8859C42.774 217.164 35.3779 209.751 35.3779 200.619V154.444C35.4011 145.311 42.774 137.898 51.8859 137.898Z" fill="#926247"/>
<path fill-rule="evenodd" clip-rule="evenodd" d="M92.1577 150.954L67.9689 150.547C57.1958 150.357 48.2957 158.961 48.1157 169.745C47.9129 180.534 56.4937 189.436 67.2896 189.622L91.4784 190.029C102.251 190.219 111.152 181.615 111.332 170.831C111.508 160.024 102.954 151.14 92.1577 150.954Z" fill="#4B3425"/>
<path fill-rule="evenodd" clip-rule="evenodd" d="M86.4044 150.509L62.6885 150.112C51.7743 149.924 42.7948 158.612 42.5932 169.542C42.5932 169.542 42.5932 169.542 42.5972 169.565C42.3956 180.495 51.0879 189.495 62.002 189.684L85.718 190.08C96.6322 190.269 105.612 181.58 105.813 170.65C105.813 170.65 105.813 170.65 105.809 170.628C106.011 159.698 97.3186 150.697 86.4044 150.509Z" fill="#AC836C"/>
<path d="M85.8239 180.237C90.8882 180.236 95.0472 176.15 95.1437 171.062C95.2282 165.906 91.1372 161.654 85.9844 161.553L85.8433 161.555C83.3643 161.522 81.0041 162.436 79.2117 164.168C77.4193 165.901 76.4139 168.225 76.3596 170.735C76.2751 175.891 80.3661 180.142 85.5189 180.244L85.66 180.242C85.7057 180.234 85.7554 180.249 85.8239 180.237ZM85.9101 165.694C88.7707 165.753 91.0719 168.128 91.0093 170.993C90.9655 173.831 88.6326 176.107 85.8069 176.113C85.784 176.117 85.7383 176.125 85.7115 176.106L85.5704 176.107C82.7098 176.048 80.4085 173.673 80.4712 170.808C80.4856 169.414 81.0577 168.11 82.0675 167.153C83.0773 166.195 84.3958 165.655 85.769 165.695L85.9101 165.694Z" fill="#926247"/>
<path d="M70.2072 167.987C71.3127 167.98 72.2201 167.112 72.2598 165.997C72.2956 164.859 71.4218 163.906 70.2814 163.849L56.6787 163.358C55.5195 163.328 54.5893 164.2 54.5307 165.342C54.495 166.48 55.3687 167.433 56.5091 167.49L70.1119 167.98C70.1616 167.995 70.1844 167.991 70.2072 167.987Z" fill="#926247"/>
<path d="M70.3238 175.548C71.3819 175.487 72.2251 174.618 72.2608 173.559C72.3031 172.428 71.4095 171.471 70.2795 171.43L62.448 171.171C61.2955 171.135 60.362 172.026 60.3197 173.158C60.2775 174.289 61.1711 175.246 62.3011 175.287L70.1326 175.546C70.2056 175.552 70.2733 175.536 70.3238 175.548Z" fill="#926247"/>
<path d="M144.71 169.32C152.361 161.651 152.361 149.218 144.71 141.55C137.059 133.881 124.655 133.881 117.004 141.55C109.353 149.218 109.353 161.651 117.004 169.32C124.654 176.988 137.059 176.988 144.71 169.32Z" fill="#6D4B36"/>
<path d="M131.201 202.06H131.225C133.311 202.037 135.004 200.34 134.981 198.249L134.633 155.397C134.61 153.305 132.917 151.632 130.854 151.632H130.83C128.744 151.656 127.051 153.352 127.074 155.443L127.422 198.295C127.445 200.387 129.138 202.06 131.201 202.06Z" fill="#926247"/>
<path fill-rule="evenodd" clip-rule="evenodd" d="M113.234 211.913L114.185 225.671C114.44 229.459 117.732 232.317 121.511 232.061C121.604 232.061 121.72 232.038 121.813 232.038C125.87 231.573 128.931 228.111 128.907 224.021L128.815 211.147C128.791 208.358 130.924 206.034 133.707 205.802C136.396 205.593 138.738 207.591 138.947 210.287C138.947 210.31 138.947 210.333 138.947 210.356L139.828 223.858C140.083 227.948 143.63 231.062 147.711 230.783C147.803 230.783 147.896 230.76 147.989 230.76C152.255 230.318 155.408 226.577 155.107 222.301L154.179 209.055C153.391 197.738 143.607 189.186 132.292 189.976C132.292 189.976 132.292 189.976 132.269 189.976C120.978 190.743 112.446 200.573 113.234 211.913Z" fill="#AC836C"/>
</svg>
